<?xml version="1.0" encoding="UTF-8" standalone="no"?>
<svg width="373px" height="248px" viewBox="0 0 373 248" version="1.1" xmlns="http://www.w3.org/2000/svg" xmlns:xlink="http://www.w3.org/1999/xlink">
    <!-- Generator: Sketch 3.8.1 (29687) - http://www.bohemiancoding.com/sketch -->
    <title>Slice 1</title>
    <desc>Created with Sketch.</desc>
    <defs></defs>
    <g id="Page-1" stroke="none" stroke-width="1" fill="none" fill-rule="evenodd">
        <g id="Group-344">
            <path d="M189.935905,5.42508929 C190.452381,2.20365179 190.821929,0.7274375 190.821929,0.7274375 C190.821929,0.7274375 187.620667,0.956428571 182.912274,5.42286607 C182.320107,5.42286607 137.168512,5.3961875 137.168512,5.3961875 C136.761119,9.93821429 135.4165,21.7301429 135.414274,26.8835536 C135.403143,73.2242321 147.662774,91.2811786 159.543952,104.871687 C171.445167,118.488875 185.434548,120.478652 185.434548,120.478652 C185.434548,120.478652 199.058833,118.433295 210.962274,104.811661 C222.843452,91.2122589 235.272274,73.0641607 235.272274,26.5145 C235.272274,21.4766964 233.867548,9.74034821 233.482417,5.36061607 C233.482417,5.36061607 190.405631,5.42508929 189.935905,5.42508929" id="Fill-281" fill="#FFFFFF"></path>
            <path d="M15.2177976,197.94433 L15.2177976,208.524607 C15.2177976,213.033286 15.3001667,215.894563 15.4649048,217.110661 C15.6274167,218.324536 16.0682024,219.24717 16.7828095,219.878563 C17.4974167,220.507732 18.9088214,220.823429 21.01925,220.823429 C24.7681548,220.823429 27.5820595,219.865223 29.4565119,217.948813 C31.3309643,216.034625 32.2681905,213.162232 32.2681905,209.331634 C32.2681905,205.407661 31.2085238,202.517482 29.0869643,200.658875 C26.9654048,198.802491 23.2343095,197.873188 17.8892262,197.873188 C17.0455,197.873188 16.1550238,197.897643 15.2177976,197.94433 L15.2177976,197.94433 Z M15.2177976,196.14575 C15.8032857,196.170205 16.2952738,196.181321 16.6937619,196.181321 C21.756119,196.181321 25.2133929,195.385411 27.0633571,193.78692 C28.9155476,192.190652 29.8416429,189.605054 29.8416429,186.036795 C29.8416429,183.546795 29.4787738,181.621491 28.7508095,180.258661 C28.0250714,178.898054 26.9342381,177.846473 25.4827619,177.106143 C24.0290595,176.365813 21.544631,175.996759 18.0294762,175.996759 C17.1167381,175.996759 16.1795119,176.03233 15.2177976,176.10125 L15.2177976,196.14575 Z M23.8309286,196.843839 C29.24725,197.244018 33.26775,198.591286 35.8946548,200.887866 C38.5215595,203.18667 39.8350119,206.059063 39.8350119,209.502821 C39.8350119,212.504161 38.9423095,215.089759 37.1613571,217.257393 C35.3781786,219.42725 33.0963333,220.845661 30.3158214,221.512625 C27.5353095,222.181813 23.813119,222.515295 19.1447976,222.515295 L0.424761905,222.515295 L0.424761905,220.879009 L2.25914286,220.879009 C4.3072381,220.879009 5.72309524,220.621116 6.51116667,220.10533 C7.2992381,219.591768 7.80013095,218.786964 8.01161905,217.697589 C8.22310714,216.608214 8.32996429,214.071527 8.32996429,210.087527 L8.32996429,186.888286 C8.32996429,183.022116 8.21642857,180.525446 7.99380952,179.4005 C7.76896429,178.275554 7.2970119,177.501875 6.57795238,177.079464 C5.85666667,176.659277 4.28275,176.445848 1.85397619,176.445848 L0.932333333,176.445848 L0.932333333,174.811786 L8.78188095,174.593911 L17.7222619,174.304893 C30.7699643,174.304893 37.2949286,178.062125 37.2949286,185.574366 C37.2949286,188.673527 36.1751548,191.161304 33.9356071,193.03992 C31.6982857,194.918536 28.3300595,196.185768 23.8309286,196.843839 L23.8309286,196.843839 Z" id="Fill-283" fill="#FFFFFF"></path>
            <path d="M53.7642857,201.201339 C55.2892262,201.159098 56.8675952,201.099071 58.4949405,201.019036 C60.1222857,200.936777 61.5381429,200.714455 62.7380595,200.349848 C63.9379762,199.987464 64.9108214,199.456116 65.6521429,198.755804 C66.3956905,198.059938 66.9811786,197.14175 67.406381,196.007911 C67.8338095,194.876295 68.04975,193.477893 68.04975,191.819375 C68.04975,188.92475 67.3217857,186.608161 65.8658571,184.865161 C64.4099286,183.126607 61.2420595,182.255107 56.3577976,182.255107 C55.6053452,182.255107 54.7415833,182.295125 53.7642857,182.377384 L53.7642857,201.201339 Z M84.9866071,222.515295 L73.8690119,222.515295 C71.8988333,221.130232 68.8823452,217.528625 64.8217738,211.703804 C63.5216786,209.845196 62.170381,208.059955 60.7701071,206.352527 C59.3676071,204.642875 58.4036667,203.602411 57.8760595,203.228911 C57.3484524,202.855411 56.5269881,202.666438 55.4094405,202.666438 L53.7642857,202.666438 L53.7642857,211.794955 C53.7642857,215.029732 53.8399762,217.148455 53.9913571,218.148902 C54.1449643,219.149348 54.550131,219.894125 55.2113095,220.376563 C55.8724881,220.863446 57.1391905,221.103554 59.0091905,221.103554 L60.9905,221.103554 L60.9905,222.515295 L41.1729524,222.515295 L41.1729524,221.103554 L42.5175714,221.103554 C44.2918452,221.103554 45.5207024,220.881232 46.2041429,220.436589 C46.8853571,219.989723 47.3194643,219.29608 47.5042381,218.351214 C47.6867857,217.408571 47.7780595,215.214259 47.7780595,211.766054 L47.7780595,191.53258 C47.7780595,188.248893 47.6867857,186.127946 47.5042381,185.174188 C47.3216905,184.222652 46.9165238,183.562357 46.2887381,183.19775 C45.6587262,182.833143 44.30075,182.648616 42.2103571,182.648616 L41.5113333,182.648616 L41.5113333,181.239098 L47.4263214,180.943411 C51.3689048,180.765554 54.4989286,180.676625 56.8163929,180.676625 C60.7589762,180.676625 63.9646905,181.041232 66.4335357,181.77267 C68.9046071,182.504107 70.8992738,183.700196 72.4242143,185.365384 C73.9491548,187.030571 74.7105119,189.018125 74.7105119,191.332491 C74.7105119,194.031473 73.7154048,196.334723 71.7207381,198.244464 C69.7260714,200.151982 66.798631,201.339179 62.9317381,201.806054 C64.6770714,202.624196 67.4642619,205.623313 71.2933095,210.803402 C74.4166548,214.994161 76.8699167,217.737607 78.6553214,219.035964 C80.4407262,220.334321 82.5511548,221.023518 84.9866071,221.103554 L84.9866071,222.515295 Z" id="Fill-284" fill="#FFFFFF"></path>
            <path d="M87.1660476,201.81717 C87.1660476,208.480143 88.4884048,213.482375 91.1353452,216.823866 C93.7822857,220.16758 97.7538095,221.837214 103.04769,221.837214 C107.691524,221.837214 111.362512,220.16758 114.060655,216.823866 C116.758798,213.482375 118.105643,208.500152 118.105643,201.877196 C118.105643,195.436545 116.776607,190.501009 114.120762,187.066143 C111.464917,183.6335 107.609155,181.917179 102.560155,181.917179 C97.5912976,181.917179 93.7822857,183.593482 91.1353452,186.946089 C88.4884048,190.298696 87.1660476,195.254241 87.1660476,201.81717 M80.1646786,201.603741 C80.1646786,195.223116 82.2951429,190.103054 86.5582976,186.24133 C90.8214524,182.38183 96.1398214,180.449857 102.513405,180.449857 C108.949321,180.449857 114.323345,182.359598 118.637702,186.181304 C122.949833,190.000786 125.107012,195.212 125.107012,201.81717 C125.107012,208.217804 123.041107,213.397893 118.911524,217.359661 C114.779714,221.323652 109.343357,223.304536 102.604679,223.304536 C96.0485476,223.304536 90.6678452,221.323652 86.4670238,217.359661 C82.2639762,213.397893 80.1646786,208.146661 80.1646786,201.603741" id="Fill-285" fill="#FFFFFF"></path>
            <path d="M164.619667,207.063955 L165.917536,207.063955 L165.917536,221.554866 L164.619667,221.554866 C164.250119,219.907464 163.582262,218.455705 162.616095,217.19292 C158.9785,221.268071 154.339119,223.304536 148.6935,223.304536 C142.720631,223.304536 137.840821,221.414804 134.054071,217.635339 C130.265095,213.855875 128.370607,208.858089 128.370607,202.639759 C128.370607,198.555714 129.2455,194.709554 130.990833,191.1035 C132.738393,187.497446 135.176071,184.820696 138.303869,183.071027 C141.431667,181.325804 144.864452,180.449857 148.6,180.449857 C151.687726,180.449857 154.486048,181.090143 156.992738,182.364045 C159.501655,183.642393 161.376107,185.056357 162.616095,186.608161 C163.470952,184.8785 163.989655,183.091036 164.16775,181.239098 L165.579155,181.239098 L165.917536,196.914982 L164.619667,196.914982 C163.706929,191.321375 161.841381,187.439643 159.029702,185.276455 C156.215798,183.111045 153.04125,182.028339 149.508286,182.028339 C145.182798,182.028339 141.74556,183.786902 139.196571,187.297357 C136.647583,190.810036 135.371976,195.8345 135.371976,202.37075 C135.371976,208.562402 136.763345,213.308964 139.546083,216.608214 C142.328821,219.907464 145.792774,221.554866 149.935714,221.554866 C152.148548,221.554866 154.412583,221.019071 156.730048,219.945259 C159.045286,218.87367 160.87744,217.05508 162.228738,214.491714 C163.580036,211.930571 164.377012,209.453911 164.619667,207.063955" id="Fill-286" fill="#FFFFFF"></path>
            <path d="M181.837024,202.241804 L194.459524,190.887848 C197.386964,188.273348 198.849571,186.410295 198.849571,185.294241 C198.849571,183.613491 197.393643,182.730875 194.484012,182.648616 L194.484012,181.239098 L210.067345,181.239098 L210.067345,182.648616 C208.78506,182.670848 207.498321,182.944304 206.204905,183.473429 C204.913714,184.002554 203.729381,184.69175 202.651905,185.543241 C201.572202,186.396955 199.568631,188.193313 196.638964,190.936759 L189.105536,197.864295 L204.604274,213.453473 C208.139464,217.050634 210.510357,219.224938 211.7125,219.976384 C212.914643,220.730054 214.472976,221.103554 216.389726,221.103554 L216.389726,222.515295 L194.878048,222.515295 L194.878048,221.103554 L195.701738,221.103554 C198.021429,221.103554 199.468452,220.912357 200.038357,220.527741 C200.608262,220.143125 200.893214,219.667357 200.893214,219.098214 C200.893214,218.246723 199.419476,216.352545 196.472,213.413455 L184.795631,201.665991 L181.837024,204.253813 L181.837024,211.766054 C181.837024,215.011946 181.917167,217.135116 182.079679,218.140009 C182.24219,219.144902 182.65181,219.889679 183.308536,220.376563 C183.965262,220.861223 185.225286,221.103554 187.088607,221.103554 L187.876679,221.103554 L187.876679,222.515295 L169.301345,222.515295 L169.301345,221.103554 L170.581405,221.103554 C172.346774,221.103554 173.571179,220.881232 174.252393,220.436589 C174.931381,219.989723 175.367714,219.29608 175.561393,218.351214 C175.755071,217.408571 175.850798,215.214259 175.850798,211.766054 L175.850798,191.53258 C175.850798,188.126616 175.74394,185.956759 175.530226,185.023009 C175.318738,184.089259 174.897988,183.462313 174.270202,183.137723 C173.642417,182.813134 172.175357,182.648616 169.866798,182.648616 L169.866798,181.239098 L188.21506,181.239098 L188.21506,182.648616 L187.44925,182.648616 C185.405607,182.648616 184.063214,182.81758 183.430976,183.151063 C182.796512,183.486768 182.37131,184.111491 182.157595,185.023009 C181.943881,185.93675 181.837024,188.106607 181.837024,191.534804 L181.837024,202.241804 Z" id="Fill-287" fill="#FFFFFF"></path>
            <path d="M228.126202,201.594848 L231.069226,201.594848 C233.435667,201.594848 235.347964,201.356964 236.803893,200.87675 C238.259821,200.396536 239.475321,199.391643 240.44594,197.862071 C241.41656,196.3325 241.904095,194.444991 241.904095,192.199545 C241.904095,188.773571 241.069274,186.259116 239.399631,184.658402 C237.729988,183.055464 235.02294,182.255107 231.28294,182.255107 C229.904929,182.255107 228.854167,182.297348 228.126202,182.377384 L228.126202,201.594848 Z M228.126202,203.06217 L228.126202,211.748268 C228.126202,214.998607 228.201893,217.128446 228.3555,218.133339 C228.506881,219.140455 228.918726,219.885232 229.586583,220.374339 C230.256667,220.861223 231.514464,221.103554 233.362202,221.103554 L234.73131,221.103554 L234.73131,222.515295 L215.76194,222.515295 L215.76194,221.103554 L216.866131,221.103554 C218.644857,221.103554 219.87594,220.881232 220.561607,220.436589 C221.247274,219.989723 221.681381,219.29608 221.866155,218.351214 C222.048702,217.408571 222.142202,215.214259 222.142202,211.766054 L222.142202,191.53258 C222.142202,188.248893 222.048702,186.127946 221.866155,185.174187 C221.681381,184.222652 221.271762,183.562357 220.637298,183.19775 C220.00506,182.833143 218.633726,182.648616 216.52775,182.648616 L215.76194,182.648616 L215.76194,181.239098 L220.944512,181.032339 C225.094131,180.870045 228.32656,180.790009 230.64625,180.790009 C234.913857,180.790009 238.204167,181.123491 240.512726,181.794902 C242.81906,182.464089 244.709095,183.653509 246.18506,185.358714 C247.658798,187.066143 248.395667,189.218214 248.395667,191.819375 C248.395667,194.073714 247.892548,196.065714 246.888536,197.790929 C245.884524,199.518366 244.444179,200.827839 242.5675,201.721571 C240.690821,202.615304 237.387155,203.06217 232.660952,203.06217 L228.126202,203.06217 Z" id="Fill-288" fill="#FFFFFF"></path>
            <path d="M257.271488,201.81717 C257.271488,208.480143 258.596071,213.482375 261.243012,216.823866 C263.889952,220.16758 267.85925,221.837214 273.153131,221.837214 C277.79919,221.837214 281.470179,220.16758 284.168321,216.823866 C286.864238,213.482375 288.21331,208.500152 288.21331,201.877196 C288.21331,195.436545 286.8865,190.501009 284.228429,187.066143 C281.570357,183.6335 277.716821,181.917179 272.667821,181.917179 C267.696738,181.917179 263.889952,183.593482 261.243012,186.946089 C258.596071,190.298696 257.271488,195.254241 257.271488,201.81717 M250.270119,201.603741 C250.270119,195.223116 252.40281,190.103054 256.665964,186.24133 C260.929119,182.38183 266.247488,180.449857 272.621071,180.449857 C279.056988,180.449857 284.431012,182.359598 288.743143,186.181304 C293.0575,190.000786 295.214679,195.212 295.214679,201.81717 C295.214679,208.217804 293.148774,213.397893 289.01919,217.359661 C284.887381,221.323652 279.451024,223.304536 272.712345,223.304536 C266.156214,223.304536 260.775512,221.323652 256.57469,217.359661 C252.371643,213.397893 250.270119,208.146661 250.270119,201.603741" id="Fill-289" fill="#FFFFFF"></path>
            <path d="M308.309131,201.201339 C309.836298,201.159098 311.41244,201.099071 313.039786,201.019036 C314.669357,200.936777 316.082988,200.714455 317.282905,200.349848 C318.482821,199.987464 319.45344,199.456116 320.196988,198.755804 C320.940536,198.059938 321.526024,197.14175 321.953452,196.007911 C322.378655,194.876295 322.594595,193.477893 322.594595,191.819375 C322.594595,188.92475 321.866631,186.608161 320.410702,184.865161 C318.954774,183.126607 315.786905,182.255107 310.904869,182.255107 C310.15019,182.255107 309.286429,182.295125 308.309131,182.377384 L308.309131,201.201339 Z M339.531452,222.515295 L328.413857,222.515295 C326.443679,221.130232 323.429417,217.528625 319.366619,211.703804 C318.066524,209.845196 316.715226,208.059955 315.314952,206.352527 C313.914679,204.642875 312.948512,203.602411 312.420905,203.228911 C311.893298,202.855411 311.071833,202.666438 309.954286,202.666438 L308.309131,202.666438 L308.309131,211.794955 C308.309131,215.029732 308.384821,217.148455 308.536202,218.148902 C308.68981,219.149348 309.097202,219.894125 309.756155,220.376563 C310.417333,220.863446 311.684036,221.103554 313.554036,221.103554 L315.537571,221.103554 L315.537571,222.515295 L295.717798,222.515295 L295.717798,221.103554 L297.062417,221.103554 C298.83669,221.103554 300.065548,220.881232 300.748988,220.436589 C301.430202,219.989723 301.866536,219.29608 302.049083,218.351214 C302.231631,217.408571 302.325131,215.214259 302.325131,211.766054 L302.325131,191.53258 C302.325131,188.248893 302.231631,186.127946 302.049083,185.174188 C301.866536,184.222652 301.461369,183.562357 300.833583,183.19775 C300.203571,182.833143 298.845595,182.648616 296.755202,182.648616 L296.056179,182.648616 L296.056179,181.239098 L301.971167,180.943411 C305.91375,180.765554 309.043774,180.676625 311.361238,180.676625 C315.303821,180.676625 318.509536,181.041232 320.978381,181.77267 C323.449452,182.504107 325.444119,183.700196 326.96906,185.365384 C328.494,187.030571 329.255357,189.018125 329.255357,191.332491 C329.255357,194.031473 328.26025,196.334723 326.265583,198.244464 C324.270917,200.151982 321.343476,201.339179 317.47881,201.806054 C319.221917,202.624196 322.009107,205.623313 325.840381,210.803402 C328.9615,214.994161 331.414762,217.737607 333.200167,219.035964 C334.985571,220.334321 337.096,221.023518 339.531452,221.103554 L339.531452,222.515295 Z" id="Fill-290" fill="#FFFFFF"></path>
            <path d="M332.984226,191.219107 L331.572821,191.219107 L331.786536,181.239098 L371.958143,181.239098 L372.169631,191.219107 L370.871762,191.219107 C370.402036,188.504563 369.763119,186.543688 368.948333,185.336482 C368.135774,184.1315 367.260881,183.39117 366.325881,183.115491 C365.390881,182.844259 363.794702,182.70642 361.539571,182.70642 L354.892167,182.70642 L354.892167,211.779393 C354.892167,214.998607 354.967857,217.115107 355.121464,218.128893 C355.272845,219.140455 355.686917,219.889679 356.361452,220.376563 C357.033762,220.863446 358.298238,221.103554 360.154881,221.103554 L362.176262,221.103554 L362.176262,222.515295 L341.510536,222.515295 L341.510536,221.103554 L343.641,221.103554 C345.406369,221.103554 346.628548,220.883455 347.307536,220.436589 C347.986524,219.991946 348.425083,219.298304 348.618762,218.355661 C348.810214,217.415241 348.90594,215.220929 348.90594,211.779393 L348.90594,182.70642 L342.775012,182.70642 C340.112488,182.70642 338.322631,182.833143 337.407667,183.086589 C336.490476,183.340036 335.633393,184.104821 334.829738,185.38317 C334.026083,186.659295 333.411655,188.604607 332.984226,191.219107" id="Fill-291" fill="#FFFFFF"></path>
            <path d="M101.14875,143.215464 C101.14875,143.571179 101.068607,143.571179 100.19594,143.571179 C99.9176667,143.571179 99.9176667,143.491143 99.7217619,142.739696 C98.8067976,139.647205 98.4906786,138.537821 88.6887619,138.379973 L88.6887619,158.195482 C88.6887619,162.793089 89.5213571,163.070991 92.6157619,163.386687 C93.2902976,163.426705 93.3704405,163.426705 93.4105119,163.78242 C93.4105119,164.813991 93.4105119,164.934045 93.01425,164.934045 C91.1487024,164.891804 89.2831548,164.854009 87.4176071,164.813991 C85.1157262,164.813991 82.776,164.854009 80.474119,164.934045 C80.1958452,164.934045 80.1557738,164.773973 80.1157024,164.616125 C80.1157024,163.584554 80.1157024,163.466723 80.5141905,163.386687 C83.886869,163.02875 84.7194643,162.793089 84.7996071,158.869116 C84.8775238,155.025179 84.8396786,143.175446 84.8396786,138.457786 C83.3303214,138.419991 78.9246905,138.379973 76.46475,139.211455 C74.5212857,139.885089 74.2430119,140.876643 73.5684762,143.293277 C73.4883333,143.571179 73.4104167,143.571179 72.6156667,143.571179 C72.3373929,143.571179 72.3373929,143.491143 72.2995476,143.293277 L72.2995476,141.630312 C72.2995476,140.480911 72.2995476,139.133643 72.3373929,137.984241 C72.3373929,137.548491 72.3373929,136.912652 73.2100595,136.912652 C73.648619,136.912652 74.4812143,137.150536 88.0921429,137.150536 C99.4813333,137.150536 99.7217619,136.912652 100.236012,136.912652 C101.108679,136.912652 101.108679,137.190554 101.14875,139.371527 L101.14875,143.215464 Z" id="Fill-292" fill="#FFFFFF"></path>
            <path d="M107.695976,139.013589 C107.655905,140.082955 107.575762,144.878429 107.575762,149.991821 C108.648786,149.080304 110.59225,147.415116 114.005,147.415116 C115.236083,147.415116 116.783286,147.693018 117.934226,148.722366 C119.403512,150.031839 119.403512,151.576973 119.403512,154.033625 L119.403512,160.336437 C119.403512,163.266634 119.641714,163.266634 122.101655,163.624571 C122.339857,163.624571 122.379929,163.664589 122.42,163.902473 C122.42,164.813991 122.42,164.934045 122.101655,164.934045 C120.594524,164.773973 119.00725,164.733955 117.497893,164.733955 C116.188893,164.733955 114.877667,164.854009 113.568667,164.934045 C113.290393,164.934045 113.252548,164.891804 113.212476,164.616125 C113.212476,163.742402 113.212476,163.624571 113.568667,163.584554 C114.839821,163.426705 115.394143,163.306652 115.792631,162.950937 C116.269036,162.435152 116.269036,162.277304 116.269036,158.195482 C116.269036,152.766393 116.148821,151.379107 115.394143,150.347536 C114.441333,148.96025 113.05219,148.96025 112.615857,148.96025 C111.585131,148.96025 109.601595,149.238152 108.410583,151.101205 C107.575762,152.330643 107.575762,153.044295 107.575762,157.323982 C107.575762,163.02875 107.615833,163.266634 110.316202,163.624571 C110.552179,163.664589 110.59225,163.702384 110.59225,163.980286 C110.59225,164.813991 110.59225,164.934045 110.356274,164.934045 C109.205333,164.854009 108.13231,164.773973 106.108702,164.733955 C104.639417,164.733955 103.132286,164.813991 101.663,164.934045 C101.427024,164.934045 101.427024,164.733955 101.427024,164.573884 C101.427024,163.78242 101.427024,163.664589 101.743143,163.584554 C103.014298,163.386687 103.806821,163.266634 104.163012,162.47517 C104.441286,161.921589 104.481357,161.881571 104.481357,155.460929 C104.481357,152.130554 104.481357,143.451125 104.363369,141.152321 C104.283226,138.973571 103.964881,138.973571 101.823286,138.973571 C101.545012,138.973571 101.50494,138.933554 101.50494,138.697893 C101.50494,137.904205 101.50494,137.82417 101.783214,137.784152 C102.776095,137.666321 103.054369,137.666321 106.148774,136.95267 L107.575762,136.674768 C107.655905,136.674768 107.776119,136.674768 107.776119,136.95267 L107.695976,139.013589 Z" id="Fill-293" fill="#FFFFFF"></path>
            <path d="M130.276226,152.568527 C132.65825,152.568527 133.252643,152.488491 134.205452,152.408455 C134.205452,151.339089 134.205452,149.911786 132.65825,149.120321 C131.981488,148.762384 131.347024,148.762384 130.990833,148.762384 C128.410679,148.762384 126.941393,151.02117 126.427143,152.528509 C127.696071,152.528509 129.005071,152.568527 130.276226,152.568527 L130.276226,152.568527 Z M137.141798,153.637893 C136.306976,153.795741 127.854131,153.677911 126.108798,153.717929 C126.030881,154.351545 125.99081,154.86733 125.99081,155.460929 C125.99081,160.09633 128.847012,163.108786 132.061631,163.108786 C133.410702,163.108786 135.554524,162.357339 137.101726,160.890018 C137.141798,160.812205 137.497988,160.454268 137.578131,160.454268 C137.73619,160.454268 138.172524,160.930036 138.172524,161.007848 C138.172524,161.16792 135.752655,165.407589 130.71256,165.407589 C126.266857,165.407589 122.655976,162.199491 122.655976,156.888232 C122.655976,150.58542 126.783333,147.33508 130.990833,147.33508 C135.396464,147.33508 137.38,150.269723 137.38,152.250607 C137.38,152.726375 137.299857,153.122107 137.141798,153.597875 L137.141798,153.637893 Z" id="Fill-294" fill="#FFFFFF"></path>
            <path d="M174.998167,163.426705 C174.998167,163.742402 174.800036,163.742402 174.205643,163.742402 C173.847226,163.742402 173.729238,163.624571 172.936714,162.833107 C172.696286,162.673036 172.578298,162.552982 172.340095,162.552982 C171.943833,162.552982 171.625488,162.753071 170.950952,163.228839 C169.323607,164.258187 166.823595,165.685491 162.696238,165.685491 C154.521667,165.685491 148.410774,159.344884 148.410774,151.339089 C148.410774,143.253259 154.481595,136.121188 162.73631,136.121188 C166.507476,136.121188 168.927345,137.548491 169.880155,138.142089 C170.118357,138.262143 171.189155,139.133643 171.467429,139.133643 C171.625488,139.133643 171.785774,139.013589 171.903762,138.893536 L172.776429,138.062054 C173.014631,137.82417 173.094774,137.82417 173.847226,137.82417 C174.165571,137.82417 174.165571,137.944223 174.165571,138.142089 L174.1255,141.152321 C174.1255,142.897545 174.165571,143.611196 174.325857,145.236366 L174.403774,145.91 C174.403774,146.225696 174.285786,146.225696 173.76931,146.225696 C173.214988,146.225696 173.174917,146.067848 173.094774,145.712134 C172.896643,145.15633 172.222107,143.175446 171.149083,141.590295 C169.085405,138.617857 165.356536,137.586286 163.054655,137.586286 C160.832917,137.586286 158.252762,138.537821 156.467357,140.320839 C154.79994,141.905991 153.132524,145.0385 153.132524,149.83175 C153.132524,157.203929 156.347143,163.942491 163.72919,163.942491 C165.396607,163.942491 167.856548,163.624571 170.118357,161.60367 C171.705631,160.176366 172.776429,158.077652 173.689167,154.113661 C173.729238,153.757946 173.809381,153.757946 174.365929,153.757946 C174.840107,153.757946 174.960321,153.757946 174.960321,154.153679 L174.92025,156.372446 L174.880179,160.056312 C174.880179,160.890018 174.880179,161.485839 174.960321,162.47517 L174.998167,163.426705 Z" id="Fill-295" fill="#FFFFFF"></path>
            <path d="M180.316536,156.292411 C180.316536,161.959384 183.252881,164.258188 185.792964,164.258188 C188.689238,164.258188 191.349536,161.643688 191.349536,156.292411 C191.349536,151.339089 188.92744,148.168786 185.674976,148.326634 C182.776476,148.446688 180.316536,151.181241 180.316536,156.292411 M190.554786,148.40667 C193.293,149.951804 194.8825,153.202143 194.8825,156.214598 C194.8825,165.011857 186.865988,165.407589 185.873107,165.407589 C179.880202,165.407589 176.745726,161.007848 176.745726,156.252393 C176.745726,151.02117 180.516893,147.495152 185.356631,147.21725 C187.144262,147.09942 188.967512,147.495152 190.554786,148.40667" id="Fill-296" fill="#FFFFFF"></path>
            <path d="M201.547714,139.291491 C201.429726,143.531161 201.429726,152.964259 201.429726,157.601884 C201.429726,158.591214 201.429726,161.761518 201.705774,162.395134 C201.984048,163.108786 202.262321,163.188821 204.087798,163.664589 C204.366071,163.742402 204.406143,163.822437 204.443988,164.020304 C204.443988,164.854009 204.443988,164.934045 204.165714,164.934045 C203.014774,164.854009 201.825988,164.773973 200.198643,164.773973 C198.65144,164.773973 197.142083,164.854009 195.594881,164.934045 C195.276536,164.934045 195.276536,164.854009 195.276536,163.980286 C195.276536,163.742402 195.356679,163.702384 196.031214,163.584554 C198.333095,163.02875 198.333095,162.990955 198.333095,157.203929 L198.333095,146.225696 C198.333095,144.640545 198.255179,141.788161 198.255179,141.152321 C198.097119,138.973571 198.016976,138.973571 195.634952,138.973571 C195.356679,138.973571 195.356679,138.855741 195.356679,138.697893 L195.356679,138.062054 C195.39675,137.784152 195.476893,137.784152 195.795238,137.746357 C196.943952,137.666321 197.896762,137.428438 199.366048,137.072723 C199.682167,137.032705 201.189298,136.636973 201.349583,136.636973 C201.627857,136.636973 201.627857,136.754804 201.627857,136.992688 L201.547714,139.291491 Z" id="Fill-297" fill="#FFFFFF"></path>
            <path d="M210.436893,139.291491 C210.318905,143.531161 210.318905,152.964259 210.318905,157.601884 C210.318905,158.591214 210.318905,161.761518 210.594952,162.395134 C210.873226,163.108786 211.1515,163.188821 212.976976,163.664589 C213.25525,163.742402 213.295321,163.822437 213.335393,164.020304 C213.335393,164.854009 213.335393,164.934045 213.057119,164.934045 C211.906179,164.854009 210.715167,164.773973 209.087821,164.773973 C207.540619,164.773973 206.031262,164.854009 204.48406,164.934045 C204.165714,164.934045 204.165714,164.854009 204.165714,163.980286 C204.165714,163.742402 204.245857,163.702384 204.920393,163.584554 C207.222274,163.02875 207.222274,162.990955 207.222274,157.203929 L207.222274,146.225696 C207.222274,144.640545 207.144357,141.788161 207.144357,141.152321 C206.984071,138.973571 206.906155,138.973571 204.524131,138.973571 C204.245857,138.973571 204.245857,138.855741 204.245857,138.697893 L204.245857,138.062054 C204.285929,137.784152 204.366071,137.784152 204.684417,137.746357 C205.833131,137.666321 206.78594,137.428438 208.255226,137.072723 C208.571345,137.032705 210.078476,136.636973 210.238762,136.636973 C210.517036,136.636973 210.517036,136.754804 210.517036,136.992688 L210.436893,139.291491 Z" id="Fill-298" fill="#FFFFFF"></path>
            <path d="M221.271762,152.568527 C223.653786,152.568527 224.248179,152.488491 225.198762,152.408455 C225.198762,151.339089 225.198762,149.911786 223.653786,149.120321 C222.977024,148.762384 222.34256,148.762384 221.986369,148.762384 C219.406214,148.762384 217.936929,151.02117 217.422679,152.528509 C218.691607,152.528509 220.002833,152.568527 221.271762,152.568527 L221.271762,152.568527 Z M228.137333,153.637893 C227.302512,153.795741 218.849667,153.677911 217.104333,153.717929 C217.026417,154.351545 216.986345,154.86733 216.986345,155.460929 C216.986345,160.09633 219.842548,163.108786 223.057167,163.108786 C224.406238,163.108786 226.55006,162.357339 228.097262,160.890018 C228.137333,160.812205 228.493524,160.454268 228.573667,160.454268 C228.731726,160.454268 229.16806,160.930036 229.16806,161.007848 C229.16806,161.16792 226.74819,165.407589 221.708095,165.407589 C217.262393,165.407589 213.651512,162.199491 213.651512,156.888232 C213.651512,150.58542 217.781095,147.33508 221.986369,147.33508 C226.392,147.33508 228.375536,150.269723 228.375536,152.250607 C228.375536,152.726375 228.295393,153.122107 228.137333,153.597875 L228.137333,153.637893 Z" id="Fill-299" fill="#FFFFFF"></path>
            <path d="M233.691679,153.637893 C233.691679,157.401795 235.597298,158.433366 237.104429,158.433366 C240.120917,158.433366 240.675238,154.945143 240.675238,153.044295 C240.675238,152.290625 240.55725,148.208804 237.184571,148.288839 C235.359095,148.326634 233.691679,149.911786 233.691679,153.637893 L233.691679,153.637893 Z M239.644512,162.793089 C242.184595,162.793089 243.533667,162.990955 244.526548,163.702384 C246.510083,165.091893 246.828429,167.388473 246.828429,168.617911 C246.828429,173.05767 243.215321,175.712187 237.778964,175.712187 C232.42275,175.712187 229.842595,173.05767 229.842595,170.440946 C229.842595,167.588562 232.144476,166.714839 232.859083,166.714839 C233.097286,166.714839 233.177429,166.794875 233.373333,166.874911 C232.899155,167.786429 232.58081,168.420045 232.58081,169.529429 C232.58081,173.453402 235.99356,174.36492 238.255369,174.36492 C241.429917,174.36492 244.526548,173.05767 244.526548,169.569446 C244.526548,166.359125 241.826179,166.161259 241.191714,166.121241 C240.517179,166.081223 240.080845,166.081223 236.113774,166.081223 C234.68456,166.081223 230.953464,166.081223 230.953464,162.913143 C230.953464,160.534304 233.57369,159.422696 234.722405,158.949152 C233.892036,158.709045 232.738869,158.273295 231.748214,157.163911 C230.396917,155.618777 230.319,154.191473 230.319,153.480045 C230.319,149.080304 234.326143,147.059402 237.382702,147.059402 C240.120917,147.059402 241.309702,148.128768 242.144524,148.882437 C243.215321,148.048732 244.644536,146.939348 246.23181,146.939348 C247.02656,146.939348 248.453548,147.297286 248.453548,148.446687 C248.453548,149.160339 247.502964,150.031839 246.866274,150.031839 C246.628071,150.031839 246.352024,149.911786 246.113821,149.753937 C245.161012,149.080304 244.962881,148.96025 244.32619,148.96025 C243.651655,148.96025 243.413452,149.120321 242.701071,149.596089 C243.453524,150.427571 243.97,151.932687 243.97,153.202143 C243.97,154.667241 243.375607,156.054527 242.382726,157.123893 C241.033655,158.55342 239.366238,159.066982 237.462845,159.304866 C236.866226,159.384902 236.311905,159.422696 235.715286,159.54275 C235.238881,159.622786 233.255345,160.136348 233.255345,161.405804 C233.255345,162.673036 234.68456,162.833107 236.231762,162.833107 L239.644512,162.793089 Z" id="Fill-300" fill="#FFFFFF"></path>
            <path d="M255.080917,152.568527 C257.46294,152.568527 258.057333,152.488491 259.010143,152.408455 C259.010143,151.339089 259.010143,149.911786 257.46294,149.120321 C256.788405,148.762384 256.15394,148.762384 255.795524,148.762384 C253.215369,148.762384 251.74831,151.02117 251.231833,152.528509 C252.500762,152.528509 253.811988,152.568527 255.080917,152.568527 L255.080917,152.568527 Z M261.946488,153.637893 C261.113893,153.795741 252.661048,153.677911 250.913488,153.717929 C250.835571,154.351545 250.7955,154.86733 250.7955,155.460929 C250.7955,160.09633 253.653929,163.108786 256.866321,163.108786 C258.217619,163.108786 260.359214,162.357339 261.906417,160.890018 C261.946488,160.812205 262.304905,160.454268 262.382821,160.454268 C262.540881,160.454268 262.97944,160.930036 262.97944,161.007848 C262.97944,161.16792 260.557345,165.407589 255.51725,165.407589 C251.073774,165.407589 247.460667,162.199491 247.460667,156.888232 C247.460667,150.58542 251.59025,147.33508 255.795524,147.33508 C260.201155,147.33508 262.18469,150.269723 262.18469,152.250607 C262.18469,152.726375 262.104548,153.122107 261.946488,153.597875 L261.946488,153.637893 Z" id="Fill-301" fill="#FFFFFF"></path>
            <path d="M276.708357,160.256402 C276.708357,162.435152 278.25556,163.306652 279.486643,163.306652 C280.121107,163.306652 280.795643,163.108786 281.66831,162.713054 C283.295655,161.959384 283.295655,161.485839 283.335726,160.970054 C283.415869,158.2355 283.415869,157.91758 283.45594,155.183027 C279.288512,156.570312 276.708357,157.79975 276.708357,160.256402 L276.708357,160.256402 Z M289.764964,162.833107 C289.963095,162.833107 290.399429,163.426705 290.399429,163.584554 C290.399429,163.702384 290.359357,163.742402 289.845107,164.140357 C289.090429,164.693937 288.295679,165.169705 286.986679,165.169705 C284.923,165.169705 283.77206,164.100339 283.415869,162.990955 C280.517369,164.573884 279.05031,165.329777 277.345048,165.329777 C275.359286,165.329777 273.37575,163.942491 273.37575,161.761518 C273.37575,157.243946 279.963048,155.102991 283.496012,153.993607 L283.533857,152.608545 C283.533857,150.903339 283.415869,148.762384 280.121107,148.762384 C278.731964,148.762384 277.304976,149.27817 276.868643,150.507607 C276.748429,150.941134 276.748429,151.379107 276.550298,151.774839 C276.231952,152.368437 275.755548,152.646339 275.121083,152.646339 C274.1705,152.646339 273.651798,151.894893 273.651798,151.181241 C273.651798,149.238152 276.194107,147.495152 280.677655,147.495152 C286.67056,147.495152 286.67056,150.58542 286.67056,152.448473 C286.67056,153.044295 286.5125,159.502732 286.5125,160.41425 C286.5125,161.523634 286.5125,163.386687 288.295679,163.386687 C288.734238,163.386687 289.050357,163.228839 289.28856,163.108786 L289.764964,162.833107 Z" id="Fill-302" fill="#FFFFFF"></path>
            <path d="M294.885202,148.446687 L299.448893,148.446687 C299.765012,148.446687 299.805083,148.484482 299.845155,148.762384 C299.845155,149.633884 299.845155,149.753937 299.486738,149.753937 L294.885202,149.753937 C294.764988,153.359991 294.684845,155.578759 294.684845,157.759732 C294.684845,160.136348 294.684845,162.950938 297.305071,162.950938 C298.297952,162.950938 298.892345,162.552982 299.647024,162.03942 C299.765012,161.921589 299.845155,161.841554 300.003214,161.841554 C300.241417,161.841554 300.599833,162.237286 300.599833,162.435152 C300.599833,162.713054 298.932417,165.209723 295.677726,165.209723 C291.472452,165.209723 291.472452,161.643687 291.472452,159.462714 C291.472452,157.401795 291.670583,152.012723 291.7485,149.753937 L290.559714,149.753937 C290.201298,149.753937 290.123381,149.71392 290.123381,149.436018 C290.123381,148.644554 290.123381,148.564518 290.559714,148.366652 C291.7485,147.653 292.503179,146.821518 293.654119,144.600527 C293.734262,144.482696 293.972464,143.889098 294.090452,143.809062 C294.210667,143.651214 294.647,143.531161 294.764988,143.531161 C294.885202,143.531161 294.885202,143.651214 294.885202,143.809062 L294.885202,148.446687 Z" id="Fill-303" fill="#FFFFFF"></path>
            <path d="M7.26584524,240.939071 C5.53609524,240.020884 4.52763095,239.084911 4.52763095,237.212964 C4.52763095,235.625589 5.69415476,233.949286 7.74447619,233.949286 C8.61046429,233.949286 9.22934524,234.284991 9.6345119,234.549554 C9.74136905,234.638482 9.7747619,234.656268 9.846,234.656268 C9.97066667,234.656268 10.0240952,234.585125 10.1821548,234.302777 C10.2712024,234.144929 10.3068214,234.144929 10.5895476,234.144929 C10.7119881,234.160491 10.7119881,234.213848 10.7297976,234.567339 L10.8010357,236.930616 C10.8010357,237.03733 10.7654167,237.03733 10.6585595,237.055116 C10.2712024,237.055116 10.2177738,237.055116 10.1821548,236.861696 L10.1287262,236.437062 C9.95285714,235.289884 9.1224881,234.549554 7.95596429,234.549554 C6.36646429,234.549554 5.85221429,235.732304 5.85221429,236.561562 C5.85221429,236.983973 5.92345238,237.584241 6.57795238,238.184509 C6.93191667,238.520214 7.19683333,238.678062 8.69728571,239.453964 C10.2890119,240.283223 11.7026429,241.025777 11.7026429,243.037786 C11.7026429,244.856375 10.2355833,246.901732 8.00939286,246.901732 C6.86067857,246.901732 6.03030952,246.408179 5.50047619,246.036902 C5.358,245.932411 5.27117857,245.879054 5.18213095,245.879054 C5.02184524,245.879054 4.89940476,246.090259 4.7747381,246.372607 C4.73911905,246.514893 4.70572619,246.532679 4.58105952,246.532679 C4.17366667,246.532679 4.14027381,246.532679 4.14027381,246.390393 C4.14027381,246.036902 4.17366667,244.256107 4.17366667,243.849259 L4.15808333,243.02 C4.15808333,242.897723 4.20928571,242.897723 4.28052381,242.897723 C4.44080952,242.897723 4.72353571,242.897723 4.75692857,242.913286 C4.7747381,242.931071 4.82816667,243.248991 4.84597619,243.426848 C5.12870238,245.525562 6.54233333,246.108045 7.69104762,246.108045 C9.1224881,246.108045 10.0752976,245.032009 10.0752976,243.920402 C10.0752976,242.544232 9.19372619,241.943964 8.1852619,241.412616 L7.26584524,240.939071 Z" id="Fill-304" fill="#FFFFFF"></path>
            <path d="M27.8692381,239.009321 C27.8692381,239.133821 27.8402976,239.133821 27.5330833,239.133821 C27.435131,239.133821 27.435131,239.107143 27.3638929,238.84258 C27.0433214,237.753205 26.9320119,237.36192 23.4814167,237.304116 L23.4814167,244.282786 C23.4814167,245.901286 23.7730476,245.999107 24.863881,246.110268 C25.1020833,246.12583 25.1287976,246.12583 25.144381,246.25033 C25.144381,246.612714 25.144381,246.654955 25.004131,246.654955 C24.3474048,246.641616 23.6906786,246.628277 23.0339524,246.612714 C22.223619,246.612714 21.3999286,246.628277 20.587369,246.654955 C20.4916429,246.654955 20.4760595,246.599375 20.4627024,246.543795 C20.4627024,246.179188 20.4627024,246.13917 20.6029524,246.110268 C21.7895119,245.985768 22.083369,245.901286 22.1123095,244.52067 C22.1390238,243.166732 22.1256667,238.995982 22.1256667,237.333018 C21.5936071,237.319679 20.0441786,237.304116 19.1781905,237.599804 C18.4925238,237.835464 18.3945714,238.184509 18.156369,239.036 C18.1296548,239.133821 18.1007143,239.133821 17.8224405,239.133821 C17.7244881,239.133821 17.7244881,239.107143 17.711131,239.036 L17.711131,238.449071 C17.711131,238.04667 17.711131,237.570902 17.7244881,237.166277 C17.7244881,237.012875 17.7244881,236.78833 18.0317024,236.78833 C18.1853095,236.78833 18.4791667,236.872813 23.2721548,236.872813 C27.2815238,236.872813 27.3638929,236.78833 27.5464405,236.78833 C27.8536548,236.78833 27.8536548,236.888375 27.8692381,237.655384 L27.8692381,239.009321 Z" id="Fill-305" fill="#FFFFFF"></path>
            <path d="M34.9663333,238.758098 L33.4859167,242.441964 C33.933381,242.495321 34.8394405,242.495321 34.9240357,242.495321 C35.4004405,242.495321 35.8879762,242.468643 36.364381,242.441964 L34.9663333,238.758098 Z M36.3354405,246.25033 C36.3487976,246.152509 36.364381,246.12583 36.4890476,246.12583 C37.1880714,246.12583 37.4685714,246.025786 37.4685714,245.607821 C37.4685714,245.45442 37.4262738,245.31658 37.3839762,245.176518 C37.1747143,244.57625 36.8118452,243.655839 36.6003571,243.068911 C36.0282262,243.055571 35.4560952,243.02667 34.8817381,243.02667 C34.3385476,243.02667 33.8621429,243.042232 33.2343571,243.068911 C33.0518095,243.544679 32.8714881,244.004884 32.7022976,244.462866 C32.5909881,244.75633 32.3950833,245.287679 32.3950833,245.525562 C32.3950833,245.845705 32.5486905,246.041348 33.1920595,246.110268 C33.4146786,246.13917 33.443619,246.152509 33.443619,246.26367 C33.443619,246.628277 33.4302619,246.654955 33.3167262,246.654955 C32.8425476,246.641616 32.3394286,246.641616 31.8496667,246.628277 C31.362131,246.628277 30.8590119,246.628277 30.36925,246.654955 C30.229,246.654955 30.229,246.628277 30.229,246.26367 C30.229,246.152509 30.2445833,246.13917 30.3558929,246.12583 C31.3754881,245.972429 31.3888452,245.972429 32.4084405,243.515777 L35.0642857,236.930616 C35.1755952,236.650491 35.1755952,236.634929 35.4137976,236.634929 C35.594119,236.634929 35.6097024,236.692732 35.6920714,236.930616 L38.6128333,244.560687 C38.9200476,245.372161 38.9623452,245.496661 39.0736548,245.692304 C39.2139048,245.943527 39.2851429,246.068027 40.0375952,246.13917 C40.1355476,246.13917 40.1644881,246.152509 40.1644881,246.279232 C40.1644881,246.628277 40.1644881,246.654955 40.0375952,246.654955 C39.6190714,246.641616 39.2005476,246.628277 38.7797976,246.628277 C37.9984048,246.628277 37.230369,246.641616 36.44675,246.654955 C36.3354405,246.654955 36.3354405,246.599375 36.3354405,246.543795 L36.3354405,246.25033 Z" id="Fill-306" fill="#FFFFFF"></path>
            <path d="M52.9361429,239.009321 C52.9361429,239.133821 52.9072024,239.133821 52.5999881,239.133821 C52.5020357,239.133821 52.5020357,239.107143 52.4307976,238.84258 C52.1102262,237.753205 51.9989167,237.36192 48.5483214,237.304116 L48.5483214,244.282786 C48.5483214,245.901286 48.8421786,245.999107 49.9307857,246.110268 C50.1689881,246.12583 50.1957024,246.12583 50.2112857,246.25033 C50.2112857,246.612714 50.2112857,246.654955 50.0710357,246.654955 C49.4143095,246.641616 48.7575833,246.628277 48.1008571,246.612714 C47.2905238,246.612714 46.4668333,246.628277 45.6542738,246.654955 C45.5585476,246.654955 45.5429643,246.599375 45.5296071,246.543795 C45.5296071,246.179188 45.5296071,246.13917 45.6698571,246.110268 C46.8564167,245.985768 47.1502738,245.901286 47.1792143,244.52067 C47.2059286,243.166732 47.1925714,238.995982 47.1925714,237.333018 C46.6605119,237.319679 45.1110833,237.304116 44.2450952,237.599804 C43.5594286,237.835464 43.4614762,238.184509 43.2232738,239.036 C43.1965595,239.133821 43.167619,239.133821 42.8893452,239.133821 C42.7913929,239.133821 42.7913929,239.107143 42.7758095,239.036 L42.7758095,238.449071 C42.7758095,238.04667 42.7758095,237.570902 42.7913929,237.166277 C42.7913929,237.012875 42.7913929,236.78833 43.0986071,236.78833 C43.2522143,236.78833 43.5460714,236.872813 48.3368333,236.872813 C52.3484286,236.872813 52.4307976,236.78833 52.6133452,236.78833 C52.9205595,236.78833 52.9205595,236.888375 52.9361429,237.655384 L52.9361429,239.009321 Z" id="Fill-307" fill="#FFFFFF"></path>
            <path d="M60.10225,241.172509 C61.2776786,241.183625 61.5693095,241.183625 61.9188214,240.947964 C62.101369,240.823464 62.5198929,240.389938 62.5621905,239.551786 C62.5621905,239.427286 62.5755476,239.411723 62.6890833,239.411723 C63.0230119,239.411723 63.0653095,239.411723 63.0653095,239.551786 C63.0653095,240.180955 63.0519524,240.794563 63.036369,241.423732 C63.036369,242.050679 63.036369,242.664286 63.0653095,243.291232 C63.0653095,243.391277 63.0519524,243.404616 62.9673571,243.431295 C62.6044881,243.431295 62.5621905,243.431295 62.5621905,243.277893 C62.5198929,242.831027 62.4085833,242.34192 62.101369,241.995098 C61.7807976,241.630491 61.6271905,241.630491 60.10225,241.603813 L60.10225,244.449527 C60.1178333,245.790125 60.4384048,246.168071 62.5198929,246.168071 C63.9179405,246.168071 64.5190119,245.790125 64.881881,244.060464 C64.9108214,243.96042 64.9241786,243.933741 65.0354881,243.933741 C65.3983571,243.933741 65.4406548,243.933741 65.4406548,244.073804 C65.4406548,244.142723 65.3293452,246.068027 65.2581071,246.37483 C65.1890952,246.654955 65.1200833,246.654955 64.5613095,246.654955 C63.8199881,246.654955 60.1868452,246.612714 59.3631548,246.612714 C59.0826548,246.612714 57.6868333,246.654955 57.3773929,246.654955 C57.2660833,246.654955 57.2660833,246.612714 57.2660833,246.543795 C57.2660833,246.179188 57.2660833,246.13917 57.4063333,246.13917 C58.383631,246.083589 58.664131,245.845705 58.7064286,244.64517 C58.7487262,243.515777 58.7487262,241.672732 58.7487262,240.361036 C58.7487262,237.501982 58.7197857,237.430839 57.3773929,237.319679 C57.2950238,237.304116 57.2660833,237.304116 57.2660833,237.208518 C57.2660833,236.846134 57.2660833,236.803893 57.3929762,236.803893 C58.092,236.817232 58.804381,236.817232 59.5011786,236.817232 C59.9486429,236.817232 62.1570238,236.803893 62.6601429,236.803893 L64.2674524,236.803893 C64.392119,236.803893 64.532369,236.817232 64.601381,236.943955 C64.6859762,237.110696 64.7839286,238.520214 64.7839286,238.729196 C64.7839286,238.853696 64.7572143,238.869259 64.6592619,238.882598 C64.3520476,238.882598 64.3231071,238.882598 64.2808095,238.758098 C63.9446548,237.737643 63.7776905,237.264098 61.3600476,237.264098 C60.9148095,237.264098 60.5920119,237.293 60.10225,237.319679 L60.10225,241.172509 Z" id="Fill-308" fill="#FFFFFF"></path>
            <path d="M79.8062619,238.626929 C79.8062619,235.414384 79.8062619,234.938616 78.3035833,234.849688 C77.9852381,234.814116 77.949619,234.814116 77.949619,234.656268 C77.949619,234.231634 77.949619,234.196063 78.1099048,234.196063 C78.1455238,234.196063 80.3539048,234.24942 80.776881,234.24942 C81.1308452,234.24942 82.880631,234.196063 83.2857976,234.196063 C83.4104643,234.196063 83.4282738,234.213848 83.4460833,234.320563 C83.4460833,234.778545 83.4460833,234.814116 83.2702143,234.831902 C82.2795595,234.92083 81.6962976,234.974188 81.5894405,236.508205 C81.5560476,237.16183 81.5382381,239.578464 81.5382381,239.931955 C81.5382381,240.954634 81.5382381,242.755438 81.7675357,243.673625 C82.2083214,245.421071 83.9224881,246.161402 85.4251667,246.161402 C86.4670238,246.161402 87.40425,245.825696 87.8806548,245.507777 C88.0921429,245.367714 88.6420119,244.94308 88.99375,244.042679 C89.4367619,242.913286 89.4367619,242.57758 89.4367619,237.813232 C89.4367619,236.121366 89.4367619,235.732304 89.1362262,235.30767 C88.8713095,234.92083 88.4817262,234.885259 88.0765595,234.849688 C87.7225952,234.831902 87.6869762,234.814116 87.6691667,234.689616 C87.6691667,234.231634 87.6691667,234.196063 87.8450357,234.196063 C88.4104881,234.196063 88.99375,234.196063 89.5592024,234.213848 C90.3539524,234.196063 91.1509286,234.196063 91.9456786,234.196063 C92.1037381,234.196063 92.1037381,234.231634 92.1215476,234.320563 C92.1215476,234.760759 92.1215476,234.814116 91.9456786,234.831902 C91.1865476,234.867473 90.5854762,234.92083 90.3717619,235.85458 C90.1780833,236.719411 90.2493214,241.114705 90.1958929,242.101813 C90.1068452,243.531339 89.9131667,247.044018 84.8419048,247.044018 C83.5529405,247.044018 81.8031548,246.815027 80.776881,245.685634 C79.8062619,244.660732 79.8062619,244.113821 79.8062619,240.232089 L79.8062619,238.626929 Z" id="Fill-309" fill="#FFFFFF"></path>
            <path d="M99.6126786,238.200071 L99.6126786,244.073804 C99.6126786,245.301018 99.5993214,246.054688 100.955071,246.152509 C101.066381,246.152509 101.079738,246.168071 101.079738,246.279232 C101.079738,246.612714 101.079738,246.654955 100.955071,246.654955 L100.939488,246.654955 C100.269405,246.628277 99.8931786,246.612714 98.9848929,246.612714 C98.4127619,246.612714 97.865119,246.641616 97.6847976,246.654955 C97.5734881,246.654955 97.5579048,246.641616 97.5445476,246.543795 C97.5445476,246.19475 97.5445476,246.152509 97.6847976,246.13917 C98.9425952,245.956866 98.9693095,245.607821 98.99825,243.753661 L98.99825,237.822125 C98.8157024,237.613143 98.5507857,237.304116 97.6981548,237.304116 C97.5734881,237.304116 97.5579048,237.277438 97.5579048,237.166277 C97.5579048,236.846134 97.5579048,236.803893 97.6714405,236.803893 L99.1518571,236.803893 L100.033429,236.803893 C100.256048,236.803893 100.298345,236.846134 100.674571,237.304116 C101.346881,238.15783 101.40031,238.213411 101.905655,238.895938 C102.295238,239.411723 104.25206,241.926179 104.699524,242.495321 C105.07575,242.997768 105.676821,243.809241 106.055274,244.296125 L106.03969,243.391277 C106.03969,242.762107 106.110929,239.718527 106.110929,239.022661 C106.110929,237.835464 105.915024,237.34858 104.810833,237.293 C104.670583,237.293 104.643869,237.277438 104.643869,237.166277 C104.643869,236.830571 104.643869,236.803893 104.768536,236.803893 C105.313952,236.817232 105.859369,236.817232 106.404786,236.830571 C106.96356,236.817232 107.508976,236.803893 108.052167,236.803893 C108.17906,236.803893 108.17906,236.859473 108.17906,236.957295 C108.17906,237.264098 108.17906,237.304116 108.009869,237.319679 C107.39544,237.377482 106.947976,237.4175 106.794369,238.15783 C106.627405,238.96708 106.627405,242.984429 106.627405,244.113821 C106.627405,244.785232 106.640762,245.343259 106.669702,245.901286 C106.68306,246.096929 106.712,246.403732 106.712,246.586036 C106.712,246.795018 106.598464,246.906179 106.444857,246.906179 C106.222238,246.906179 106.17994,246.821696 106.068631,246.668295 C105.60781,245.914625 105.062393,245.203196 104.503619,244.50733 L101.108679,240.165393 C100.772524,239.747429 99.9889048,238.700295 99.8798214,238.562455 L99.6126786,238.200071 Z" id="Fill-310" fill="#FFFFFF"></path>
            <path d="M113.58425,237.333018 C113.292619,237.319679 113.263679,237.319679 113.263679,237.179616 C113.263679,236.846134 113.263679,236.803893 113.374988,236.803893 C113.58425,236.803893 115.374107,236.859473 115.681321,236.859473 C116.197798,236.859473 117.301988,236.803893 117.497893,236.803893 C117.609202,236.803893 117.609202,236.846134 117.609202,237.221857 C117.595845,237.319679 117.582488,237.333018 117.428881,237.333018 C116.867881,237.377482 116.743214,237.4175 116.589607,237.530884 C116.128786,237.893268 116.128786,238.22675 116.128786,240.318795 C116.128786,243.878161 116.142143,244.282786 116.171083,244.702973 C116.226738,245.985768 116.674202,246.068027 117.484536,246.13917 C117.595845,246.152509 117.609202,246.168071 117.62256,246.26367 C117.62256,246.628277 117.62256,246.654955 117.484536,246.654955 C117.204036,246.654955 115.808214,246.612714 115.498774,246.612714 C114.786393,246.628277 114.060655,246.641616 113.348274,246.654955 C113.234738,246.654955 113.234738,246.612714 113.234738,246.26367 C113.250321,246.168071 113.250321,246.13917 113.390571,246.12583 C114.298857,246.083589 114.661726,245.874607 114.717381,244.856375 C114.744095,244.436188 114.759679,242.315241 114.759679,241.659393 C114.759679,241.059125 114.759679,238.337911 114.619429,237.946625 C114.452464,237.430839 114.060655,237.377482 113.58425,237.333018" id="Fill-311" fill="#FFFFFF"></path>
            <path d="M125.61681,239.734089 C126.313607,241.46375 127.028214,243.208973 127.642643,244.925295 C127.934274,244.338366 128.368381,243.375714 128.648881,242.791009 C129.221012,241.603812 129.724131,240.403277 130.22725,239.147161 C130.394214,238.758098 130.590119,238.253429 130.590119,237.877705 C130.590119,237.36192 130.142655,237.333018 129.83544,237.304116 C129.69519,237.304116 129.681833,237.293 129.668476,237.166277 C129.668476,236.830571 129.668476,236.803893 129.808726,236.803893 C130.017988,236.817232 130.939631,236.817232 131.008643,236.817232 C131.456107,236.817232 132.168488,236.78833 132.602595,236.803893 C132.727262,236.803893 132.727262,236.846134 132.727262,237.179616 C132.727262,237.208518 132.727262,237.250759 132.700548,237.277437 C132.68719,237.293 132.433405,237.319679 132.433405,237.319679 C131.567417,237.430839 131.122179,238.464634 130.952988,238.84258 C129.877738,241.365929 129.753071,241.646054 128.998393,243.248991 C128.829202,243.613598 127.978798,245.398839 127.780667,245.803464 C127.558048,246.305911 127.51575,246.390393 127.362143,246.697196 C127.26419,246.877277 127.250833,246.906179 127.12394,246.906179 C126.914679,246.906179 126.901321,246.850598 126.734357,246.417071 C125.937381,244.184964 124.163107,239.929732 123.800238,239.107143 C123.254821,237.919946 122.989905,237.333018 122.039321,237.304116 C121.928012,237.304116 121.912429,237.293 121.912429,237.195179 C121.912429,236.846134 121.912429,236.803893 122.023738,236.803893 C122.93425,236.846134 123.855893,236.830571 124.764179,236.830571 C125.238357,236.830571 125.714762,236.817232 126.18894,236.803893 C126.313607,236.803893 126.313607,236.859473 126.313607,237.179616 C126.313607,237.293 126.257952,237.293 126.175583,237.293 C125.741476,237.319679 125.127048,237.34858 125.127048,238.184509 C125.127048,238.506875 125.225,238.758098 125.61681,239.734089" id="Fill-312" fill="#FFFFFF"></path>
            <path d="M139.768702,241.172509 C140.944131,241.183625 141.235762,241.183625 141.585274,240.947964 C141.767821,240.823464 142.186345,240.389938 142.228643,239.551786 C142.228643,239.427286 142.244226,239.411723 142.355536,239.411723 C142.689464,239.411723 142.731762,239.411723 142.731762,239.551786 C142.731762,240.180955 142.718405,240.794563 142.702821,241.423732 C142.702821,242.050679 142.702821,242.664286 142.731762,243.291232 C142.731762,243.391277 142.718405,243.404616 142.63381,243.431295 C142.27094,243.431295 142.228643,243.431295 142.228643,243.277893 C142.186345,242.831027 142.075036,242.34192 141.767821,241.995098 C141.44725,241.630491 141.293643,241.630491 139.768702,241.603813 L139.768702,244.449527 C139.784286,245.790125 140.104857,246.168071 142.186345,246.168071 C143.584393,246.168071 144.185464,245.790125 144.548333,244.060464 C144.577274,243.96042 144.590631,243.933741 144.70194,243.933741 C145.06481,243.933741 145.107107,243.933741 145.107107,244.073804 C145.107107,244.142723 144.995798,246.068027 144.926786,246.37483 C144.855548,246.654955 144.786536,246.654955 144.227762,246.654955 C143.48644,246.654955 139.853298,246.612714 139.029607,246.612714 C138.749107,246.612714 137.353286,246.654955 137.046071,246.654955 C136.932536,246.654955 136.932536,246.612714 136.932536,246.543795 C136.932536,246.179188 136.932536,246.13917 137.072786,246.13917 C138.05231,246.083589 138.330583,245.845705 138.372881,244.64517 C138.415179,243.515777 138.415179,241.672732 138.415179,240.361036 C138.415179,237.501982 138.386238,237.430839 137.046071,237.319679 C136.961476,237.304116 136.932536,237.304116 136.932536,237.208518 C136.932536,236.846134 136.932536,236.803893 137.059429,236.803893 C137.758452,236.817232 138.470833,236.817232 139.169857,236.817232 C139.615095,236.817232 141.823476,236.803893 142.326595,236.803893 L143.933905,236.803893 C144.060798,236.803893 144.198821,236.817232 144.27006,236.943955 C144.352429,237.110696 144.450381,238.520214 144.450381,238.729196 C144.450381,238.853696 144.423667,238.869259 144.325714,238.882598 C144.0185,238.882598 143.98956,238.882598 143.947262,238.758098 C143.611107,237.737643 143.444143,237.264098 141.0265,237.264098 C140.581262,237.264098 140.258464,237.293 139.768702,237.319679 L139.768702,241.172509 Z" id="Fill-313" fill="#FFFFFF"></path>
            <path d="M153.546595,241.714973 C153.85381,241.757214 154.161024,241.772777 154.470464,241.772777 C156.215798,241.772777 156.99719,240.781223 156.99719,239.496205 C156.99719,238.895938 156.761214,238.213411 156.356048,237.793223 C155.866286,237.304116 155.140548,237.221857 154.454881,237.221857 C154.147667,237.221857 153.909464,237.235196 153.546595,237.264098 L153.546595,241.714973 Z M150.710429,246.292571 C150.710429,246.179188 150.739369,246.168071 150.837321,246.168071 C151.997167,246.110268 152.177488,245.790125 152.177488,244.64517 C152.193071,243.640277 152.193071,242.021777 152.193071,238.924839 C152.193071,237.530884 151.758964,237.319679 151.073298,237.304116 C150.781667,237.293 150.752726,237.293 150.739369,237.166277 C150.739369,236.817232 150.739369,236.803893 150.879619,236.803893 C151.186833,236.803893 152.680607,236.830571 153.016762,236.830571 L154.833333,236.803893 C155.754976,236.803893 156.523012,236.901714 157.150798,237.293 C157.653917,237.613143 158.479833,238.311232 158.479833,239.551786 C158.479833,240.180955 158.241631,240.572241 158.157036,240.696741 C157.653917,241.450411 156.970476,241.672732 155.908583,241.966196 C156.244738,242.386384 157.92106,244.353929 158.130321,244.602929 C159.401476,246.168071 159.443774,246.168071 160.283048,246.168071 C160.407714,246.168071 160.421071,246.208089 160.421071,246.543795 C160.394357,246.654955 160.378774,246.654955 160.21181,246.654955 C159.806643,246.654955 159.401476,246.641616 158.99631,246.641616 C158.689095,246.641616 158.381881,246.654955 158.074667,246.654955 C158.005655,246.654955 157.976714,246.641616 157.92106,246.570473 C157.64056,246.26367 155.643667,243.598036 155.196202,243.042232 C154.510536,242.190741 154.470464,242.119598 153.546595,242.132938 C153.546595,242.859929 153.519881,244.018223 153.533238,244.742991 C153.559952,245.803464 153.938405,246.13917 154.873405,246.168071 C154.973583,246.168071 154.98694,246.179188 155.000298,246.279232 C155.000298,246.612714 155.000298,246.654955 154.888988,246.654955 C154.203321,246.612714 153.519881,246.612714 152.834214,246.599375 C152.164131,246.599375 151.507405,246.641616 150.837321,246.654955 C150.726012,246.654955 150.710429,246.641616 150.710429,246.543795 L150.710429,246.292571 Z" id="Fill-314" fill="#FFFFFF"></path>
            <path d="M167.560464,242.132937 C166.193583,241.40817 165.396607,240.667839 165.396607,239.189402 C165.396607,237.933286 166.31825,236.60825 167.938917,236.60825 C168.624583,236.60825 169.112119,236.872813 169.434917,237.081795 C169.517286,237.152938 169.546226,237.166277 169.601881,237.166277 C169.699833,237.166277 169.742131,237.110696 169.866798,236.888375 C169.938036,236.761652 169.96475,236.761652 170.189595,236.761652 C170.285321,236.777214 170.285321,236.817232 170.300905,237.097357 L170.35656,238.96708 C170.35656,239.049339 170.327619,239.049339 170.24525,239.064902 C169.938036,239.064902 169.895738,239.064902 169.866798,238.9115 L169.8245,238.575795 C169.686476,237.668723 169.027524,237.081795 168.105881,237.081795 C166.848083,237.081795 166.445143,238.017768 166.445143,238.673616 C166.445143,239.009321 166.500798,239.482866 167.017274,239.958634 C167.295548,240.223196 167.50481,240.347696 168.693595,240.961304 C169.951393,241.617152 171.06894,242.20408 171.06894,243.793679 C171.06894,245.232098 169.909095,246.850598 168.148179,246.850598 C167.239893,246.850598 166.583167,246.459313 166.164643,246.168071 C166.053333,246.083589 165.984321,246.041348 165.913083,246.041348 C165.78619,246.041348 165.688238,246.208089 165.592512,246.432634 C165.563571,246.543795 165.536857,246.557134 165.436679,246.557134 C165.116107,246.557134 165.087167,246.557134 165.087167,246.445973 C165.087167,246.168071 165.116107,244.75633 165.116107,244.436188 L165.10275,243.780339 C165.10275,243.682518 165.145048,243.682518 165.200702,243.682518 C165.327595,243.682518 165.550214,243.682518 165.576929,243.695857 C165.592512,243.71142 165.63481,243.96042 165.648167,244.102705 C165.870786,245.761223 166.988333,246.221429 167.896619,246.221429 C169.027524,246.221429 169.782202,245.372161 169.782202,244.491768 C169.782202,243.404616 169.085405,242.928848 168.288429,242.510884 L167.560464,242.132937 Z" id="Fill-315" fill="#FFFFFF"></path>
            <path d="M177.300048,237.333018 C177.008417,237.319679 176.979476,237.319679 176.979476,237.179616 C176.979476,236.846134 176.979476,236.803893 177.090786,236.803893 C177.300048,236.803893 179.087679,236.859473 179.397119,236.859473 C179.913595,236.859473 181.017786,236.803893 181.21369,236.803893 C181.325,236.803893 181.325,236.846134 181.325,237.221857 C181.309417,237.319679 181.29606,237.333018 181.142452,237.333018 C180.583679,237.377482 180.459012,237.4175 180.305405,237.530884 C179.842357,237.893268 179.842357,238.22675 179.842357,240.318795 C179.842357,243.878161 179.85794,244.282786 179.884655,244.702973 C179.942536,245.985768 180.387774,246.068027 181.198107,246.13917 C181.309417,246.152509 181.325,246.168071 181.338357,246.26367 C181.338357,246.628277 181.338357,246.654955 181.198107,246.654955 C180.919833,246.654955 179.521786,246.612714 179.214571,246.612714 C178.50219,246.628277 177.774226,246.641616 177.064071,246.654955 C176.950536,246.654955 176.950536,246.612714 176.950536,246.26367 C176.963893,246.168071 176.963893,246.13917 177.104143,246.12583 C178.014655,246.083589 178.375298,245.874607 178.430952,244.856375 C178.459893,244.436188 178.475476,242.315241 178.475476,241.659393 C178.475476,241.059125 178.475476,238.337911 178.335226,237.946625 C178.166036,237.430839 177.774226,237.377482 177.300048,237.333018" id="Fill-316" fill="#FFFFFF"></path>
            <path d="M195.675024,239.009321 C195.675024,239.133821 195.64831,239.133821 195.338869,239.133821 C195.240917,239.133821 195.240917,239.107143 195.171905,238.84258 C194.849107,237.753205 194.740024,237.36192 191.287202,237.304116 L191.287202,244.282786 C191.287202,245.901286 191.58106,245.999107 192.669667,246.110268 C192.907869,246.12583 192.93681,246.12583 192.950167,246.25033 C192.950167,246.612714 192.950167,246.654955 192.809917,246.654955 C192.15319,246.641616 191.496464,246.628277 190.839738,246.612714 C190.029405,246.612714 189.205714,246.628277 188.395381,246.654955 C188.297429,246.654955 188.284071,246.599375 188.268488,246.543795 C188.268488,246.179188 188.268488,246.13917 188.408738,246.110268 C189.595298,245.985768 189.891381,245.901286 189.918095,244.52067 C189.94481,243.166732 189.931452,238.995982 189.931452,237.333018 C189.401619,237.319679 187.849964,237.304116 186.983976,237.599804 C186.29831,237.835464 186.200357,238.184509 185.964381,239.036 C185.93544,239.133821 185.9065,239.133821 185.628226,239.133821 C185.530274,239.133821 185.530274,239.107143 185.516917,239.036 L185.516917,238.449071 C185.516917,238.04667 185.516917,237.570902 185.530274,237.166277 C185.530274,237.012875 185.530274,236.78833 185.837488,236.78833 C185.991095,236.78833 186.284952,236.872813 191.07794,236.872813 C195.08731,236.872813 195.171905,236.78833 195.352226,236.78833 C195.65944,236.78833 195.65944,236.888375 195.675024,237.655384 L195.675024,239.009321 Z" id="Fill-317" fill="#FFFFFF"></path>
            <path d="M204.938202,241.952857 C205.441321,241.072464 206.238298,239.636268 206.754774,238.742536 C207.048631,238.213411 207.173298,238.004429 207.173298,237.808786 C207.173298,237.333018 206.418619,237.319679 206.30731,237.319679 C206.196,237.319679 206.196,237.277438 206.196,236.915054 C206.196,236.830571 206.209357,236.803893 206.30731,236.803893 C207.006333,236.803893 207.692,236.817232 208.391024,236.817232 C208.629226,236.817232 208.865202,236.803893 209.103405,236.803893 C209.228071,236.803893 209.228071,236.846134 209.241429,236.930616 C209.241429,237.264098 209.241429,237.304116 209.103405,237.319679 C208.446679,237.377482 208.137238,237.668723 207.747655,238.242313 C207.58069,238.449071 205.370083,242.386384 205.245417,242.622045 L205.245417,244.52067 C205.245417,245.914625 205.470262,246.012446 206.881667,246.12583 C207.006333,246.12583 207.006333,246.168071 207.006333,246.543795 C207.006333,246.599375 207.006333,246.654955 206.895024,246.654955 C206.169286,246.628277 205.427964,246.628277 204.7,246.628277 C203.891893,246.628277 203.08156,246.641616 202.269,246.654955 C202.15769,246.654955 202.15769,246.612714 202.15769,246.514893 C202.15769,246.152509 202.15769,246.110268 202.29794,246.110268 C203.862952,246.054688 203.87631,245.705643 203.87631,244.282786 L203.87631,242.748768 L203.457786,241.995098 C202.968024,241.130268 202.215571,239.734089 201.739167,238.853696 C201.040143,237.584241 200.761869,237.404161 200.076202,237.319679 C199.938179,237.304116 199.938179,237.264098 199.938179,236.915054 C199.938179,236.817232 199.938179,236.803893 200.033905,236.803893 C200.663917,236.817232 201.291702,236.817232 201.919488,236.817232 C202.605155,236.817232 203.288595,236.817232 203.974262,236.803893 C204.085571,236.803893 204.085571,236.859473 204.085571,236.901714 L204.085571,237.179616 C204.085571,237.304116 204.058857,237.304116 203.974262,237.319679 C203.402131,237.36192 202.899012,237.4175 202.899012,237.877705 C202.899012,238.115589 203.08156,238.435732 203.248524,238.742536 L204.938202,241.952857 Z" id="Fill-318" fill="#FFFFFF"></path>
            <path d="M222.754405,241.688295 C222.754405,244.994214 224.68006,246.37483 226.218357,246.37483 C228.273131,246.37483 229.724607,244.325027 229.724607,241.826134 C229.724607,240.125375 229.194774,238.938179 228.511333,238.142268 C228.146238,237.724304 227.364845,236.970634 226.078107,237.055116 C224.179167,237.152938 222.754405,239.022661 222.754405,241.688295 M231.445452,241.783893 C231.445452,244.798571 229.165833,246.890616 226.205,246.890616 C223.702762,246.890616 221.006845,245.163179 221.006845,241.672732 C221.006845,238.546893 223.480143,236.581571 226.247298,236.566009 C228.874202,236.566009 231.445452,238.422393 231.445452,241.783893" id="Fill-319" fill="#FFFFFF"></path>
            <path d="M243.460202,236.803893 C243.571512,236.803893 243.698405,236.803893 243.783,236.930616 C243.907667,237.124036 243.990036,238.700295 243.990036,238.869259 C243.990036,238.96708 243.949964,238.98042 243.865369,238.995982 C243.571512,238.995982 243.544798,238.995982 243.515857,238.869259 C243.208643,237.642045 242.747821,237.277437 240.330179,237.277437 C239.982893,237.277437 239.729107,237.304116 239.32394,237.333018 L239.32394,241.505991 C240.189929,241.51933 240.693048,241.505991 241.002488,241.365929 C241.434369,241.156946 241.741583,240.696741 241.799464,239.90083 C241.812821,239.78967 241.826179,239.77633 241.921905,239.760768 C242.25806,239.760768 242.300357,239.760768 242.300357,239.860813 C242.300357,240.138714 242.244702,241.450411 242.244702,241.757214 C242.25806,242.32858 242.25806,242.90217 242.273643,243.473536 C242.273643,243.598036 242.244702,243.598036 242.162333,243.613598 C241.839536,243.613598 241.799464,243.613598 241.783881,243.486875 C241.770524,243.333473 241.75494,243.195634 241.685929,242.971089 C241.352,241.952857 240.67969,241.939518 239.310583,241.939518 L239.310583,244.491768 C239.366238,245.650063 239.437476,246.054688 240.595095,246.110268 C240.917893,246.13917 240.96019,246.13917 240.989131,246.236991 C240.989131,246.612714 240.973548,246.654955 240.848881,246.654955 C240.10756,246.628277 239.381821,246.612714 238.638274,246.612714 C238.346643,246.612714 236.89294,246.654955 236.572369,246.654955 C236.49,246.654955 236.474417,246.641616 236.46106,246.543795 C236.46106,246.179188 236.46106,246.13917 236.614667,246.13917 C237.494012,246.13917 237.689917,245.819027 237.772286,245.607821 C237.925893,245.245438 237.954833,244.827473 237.954833,240.58558 C237.954833,237.459741 237.941476,237.459741 236.614667,237.304116 C236.474417,237.304116 236.474417,237.264098 236.474417,236.901714 C236.474417,236.78833 236.530071,236.78833 236.585726,236.78833 L236.60131,236.78833 C237.075488,236.830571 239.519845,236.830571 240.24781,236.830571 L242.551917,236.803893 L243.460202,236.803893 Z" id="Fill-320" fill="#FFFFFF"></path>
            <path d="M258.673988,235.961295 L258.673988,243.391277 C258.673988,244.94308 258.658405,245.896839 260.370345,246.019116 C260.512821,246.019116 260.530631,246.036902 260.530631,246.176964 C260.530631,246.601598 260.530631,246.654955 260.370345,246.654955 L260.352536,246.654955 C259.506583,246.619384 259.027952,246.601598 257.879238,246.601598 C257.155726,246.601598 256.465607,246.63717 256.23631,246.654955 C256.09606,246.654955 256.07825,246.63717 256.06044,246.514893 C256.06044,246.072473 256.06044,246.019116 256.23631,246.00133 C257.82581,245.772339 257.861429,245.332143 257.897048,242.984429 L257.897048,235.485527 C257.66775,235.220964 257.331595,234.831902 256.254119,234.831902 C256.09606,234.831902 256.07825,234.79633 256.07825,234.656268 C256.07825,234.24942 256.07825,234.196063 256.2185,234.196063 L258.092952,234.196063 L259.206048,234.196063 C259.488774,234.196063 259.539976,234.24942 260.016381,234.831902 C260.866786,235.907938 260.935798,235.97908 261.572488,236.843911 C262.066702,237.495313 264.542226,240.672286 265.105452,241.397054 C265.584083,242.03067 266.343214,243.055571 266.821845,243.673625 L266.804036,242.526446 C266.804036,241.732759 266.890857,237.884375 266.890857,237.003982 C266.890857,235.501089 266.64375,234.885259 265.250155,234.814116 C265.069833,234.814116 265.03644,234.79633 265.03644,234.656268 C265.03644,234.231634 265.03644,234.196063 265.1945,234.196063 C265.884619,234.213848 266.574738,234.213848 267.262631,234.231634 C267.97056,234.213848 268.658452,234.196063 269.348571,234.196063 C269.506631,234.196063 269.506631,234.267205 269.506631,234.391705 C269.506631,234.778545 269.506631,234.831902 269.295143,234.849688 C268.515976,234.92083 267.95275,234.974188 267.759071,235.907938 C267.545357,236.930616 267.545357,242.012884 267.545357,243.444634 C267.545357,244.291679 267.563167,244.996438 267.59656,245.701196 C267.614369,245.950196 267.652214,246.337036 267.652214,246.566027 C267.652214,246.830589 267.509738,246.972875 267.31606,246.972875 C267.033333,246.972875 266.979905,246.866161 266.837429,246.672741 C266.254167,245.718982 265.566274,244.820804 264.858345,243.935964 L260.56625,238.449071 C260.141048,237.919946 259.150393,236.594911 259.010143,236.419277 L258.673988,235.961295 Z" id="Fill-321" fill="#FFFFFF"></path>
            <path d="M277.759119,241.172509 C278.932321,241.183625 279.223952,241.183625 279.573464,240.947964 C279.756012,240.823464 280.176762,240.389938 280.21906,239.551786 C280.21906,239.427286 280.232417,239.411723 280.343726,239.411723 C280.679881,239.411723 280.719952,239.411723 280.719952,239.551786 C280.719952,240.180955 280.706595,240.794563 280.693238,241.423732 C280.693238,242.050679 280.693238,242.664286 280.719952,243.291232 C280.719952,243.391277 280.706595,243.404616 280.622,243.431295 C280.259131,243.431295 280.21906,243.431295 280.21906,243.277893 C280.176762,242.831027 280.063226,242.34192 279.756012,241.995098 C279.43544,241.630491 279.281833,241.630491 277.759119,241.603813 L277.759119,244.449527 C277.772476,245.790125 278.093048,246.168071 280.176762,246.168071 C281.572583,246.168071 282.173655,245.790125 282.536524,244.060464 C282.565464,243.96042 282.578821,243.933741 282.690131,243.933741 C283.053,243.933741 283.095298,243.933741 283.095298,244.073804 C283.095298,244.142723 282.983988,246.068027 282.914976,246.37483 C282.843738,246.654955 282.774726,246.654955 282.215952,246.654955 C281.474631,246.654955 277.841488,246.612714 277.017798,246.612714 C276.739524,246.612714 275.341476,246.654955 275.034262,246.654955 C274.922952,246.654955 274.922952,246.612714 274.922952,246.543795 C274.922952,246.179188 274.922952,246.13917 275.060976,246.13917 C276.0405,246.083589 276.318774,245.845705 276.361071,244.64517 C276.403369,243.515777 276.403369,241.672732 276.403369,240.361036 C276.403369,237.501982 276.374429,237.430839 275.034262,237.319679 C274.949667,237.304116 274.922952,237.304116 274.922952,237.208518 C274.922952,236.846134 274.922952,236.803893 275.047619,236.803893 C275.746643,236.817232 276.459024,236.817232 277.158048,236.817232 C277.605512,236.817232 279.813893,236.803893 280.314786,236.803893 L281.924321,236.803893 C282.048988,236.803893 282.187012,236.817232 282.25825,236.943955 C282.340619,237.110696 282.440798,238.520214 282.440798,238.729196 C282.440798,238.853696 282.411857,238.869259 282.311679,238.882598 C282.004464,238.882598 281.97775,238.882598 281.937679,238.758098 C281.601524,237.737643 281.43456,237.264098 279.016917,237.264098 C278.569452,237.264098 278.246655,237.293 277.759119,237.319679 L277.759119,241.172509 Z" id="Fill-322" fill="#FFFFFF"></path>
            <path d="M298.046393,244.814134 C298.2,244.353929 298.353607,243.907062 298.520571,243.444634 C298.745417,242.804348 298.996976,242.175179 299.219595,241.53267 C299.359845,241.172509 300.183536,238.9115 300.183536,238.15783 C300.183536,237.333018 299.219595,237.304116 298.899024,237.293 C298.774357,237.293 298.774357,237.250759 298.774357,236.915054 C298.774357,236.830571 298.774357,236.803893 298.899024,236.803893 C299.150583,236.803893 300.323786,236.830571 300.590929,236.830571 C301.147476,236.830571 301.692893,236.817232 302.251667,236.803893 C302.37856,236.803893 302.37856,236.846134 302.37856,236.943955 C302.37856,237.264098 302.37856,237.293 302.251667,237.304116 C301.147476,237.404161 301.007226,237.851027 300.715595,238.715857 C300.114524,240.58558 299.486738,242.426402 298.774357,244.256107 C298.520571,244.938634 298.45156,245.092036 297.935083,246.543795 C297.80819,246.919518 297.794833,246.961759 297.654583,246.961759 C297.389667,246.961759 297.249417,246.739437 297.193762,246.501554 C296.957786,245.483321 296.719583,244.75633 296.341131,243.626937 C295.279238,240.501098 295.138988,240.054232 294.834,239.049339 C294.66481,239.636268 294.497845,240.223196 294.315298,240.794562 C294.034798,241.701634 292.527667,245.927964 292.387417,246.459312 C292.276107,246.890616 292.26275,246.93508 292.109143,246.93508 C292.051262,246.93508 291.995607,246.919518 291.926595,246.877277 C291.73069,246.795018 291.646095,246.723875 291.550369,246.321473 C291.45019,245.956866 291.354464,245.538902 290.976012,244.338366 C290.530774,242.928848 290.054369,241.53267 289.593548,240.125375 C289.453298,239.66517 289.29969,239.202741 289.146083,238.758098 C288.796571,237.737643 288.558369,237.34858 287.776976,237.319679 C287.525417,237.304116 287.496476,237.304116 287.496476,237.208518 C287.496476,236.846134 287.496476,236.803893 287.623369,236.803893 C288.309036,236.830571 288.992476,236.846134 289.678143,236.846134 C289.956417,236.846134 291.367821,236.803893 291.688393,236.803893 C291.815286,236.803893 291.815286,236.846134 291.815286,237.179616 C291.799702,237.304116 291.772988,237.304116 291.646095,237.304116 C291.312167,237.304116 290.6265,237.319679 290.6265,238.128929 C290.6265,238.449071 290.740036,238.827018 290.793464,239.049339 C291.01831,239.860812 292.191512,243.809241 292.429714,244.702973 C293.0575,242.915509 293.547262,241.505991 294.023667,240.027554 C294.38431,238.869259 294.733821,237.753205 294.958667,237.124036 C295.125631,236.67717 295.138988,236.634929 295.265881,236.634929 C295.406131,236.634929 295.419488,236.66383 295.446202,236.777214 C295.924833,238.449071 296.886548,241.045786 297.418607,242.693187 C297.543274,243.068911 297.654583,243.460196 297.768119,243.851482 L298.046393,244.814134 Z" id="Fill-323" fill="#FFFFFF"></path>
            <path d="M320.688976,240.707857 C321.325667,239.59625 322.331905,237.777661 322.986405,236.648268 C323.358179,235.97908 323.516238,235.714518 323.516238,235.465518 C323.516238,234.867473 322.563429,234.849688 322.420952,234.849688 C322.278476,234.849688 322.278476,234.79633 322.278476,234.338348 C322.278476,234.231634 322.296286,234.196063 322.420952,234.196063 C323.30475,234.196063 324.170738,234.213848 325.054536,234.213848 C325.355071,234.213848 325.653381,234.196063 325.953917,234.196063 C326.114202,234.196063 326.114202,234.24942 326.129786,234.356134 C326.129786,234.778545 326.129786,234.831902 325.953917,234.849688 C325.125774,234.92083 324.733964,235.289884 324.23975,236.014652 C324.028262,236.279214 321.236619,241.254768 321.076333,241.554902 L321.076333,243.955973 C321.076333,245.718982 321.361286,245.843482 323.144464,245.985768 C323.30475,245.985768 323.30475,246.036902 323.30475,246.514893 C323.30475,246.586036 323.30475,246.654955 323.162274,246.654955 C322.242857,246.619384 321.305631,246.619384 320.38844,246.619384 C319.364393,246.619384 318.338119,246.63717 317.314071,246.654955 C317.171595,246.654955 317.171595,246.601598 317.171595,246.479321 C317.171595,246.019116 317.171595,245.967982 317.34969,245.967982 C319.328774,245.896839 319.346583,245.45442 319.346583,243.655839 L319.346583,241.714973 L318.814524,240.761214 C318.197869,239.667393 317.242833,237.902161 316.643988,236.790554 C315.76019,235.185393 315.406226,234.956402 314.540238,234.849688 C314.364369,234.831902 314.364369,234.778545 314.364369,234.338348 C314.364369,234.213848 314.364369,234.196063 314.48681,234.196063 C315.28156,234.213848 316.07631,234.213848 316.873286,234.213848 C317.739274,234.213848 318.603036,234.213848 319.469024,234.196063 C319.6115,234.196063 319.6115,234.267205 319.6115,234.320563 L319.6115,234.674054 C319.6115,234.831902 319.575881,234.831902 319.469024,234.849688 C318.745512,234.900821 318.108821,234.974188 318.108821,235.55667 C318.108821,235.85458 318.338119,236.261429 318.549607,236.648268 L320.688976,240.707857 Z" id="Fill-324" fill="#FFFFFF"></path>
            <path d="M333.643179,241.688295 C333.643179,244.994214 335.57106,246.37483 337.109357,246.37483 C339.161905,246.37483 340.615607,244.325027 340.615607,241.826134 C340.615607,240.125375 340.085774,238.938179 339.402333,238.142268 C339.037238,237.724304 338.253619,236.970634 336.969107,237.055116 C335.070167,237.152938 333.643179,239.022661 333.643179,241.688295 M342.336452,241.783893 C342.336452,244.798571 340.056833,246.890616 337.096,246.890616 C334.593762,246.890616 331.897845,245.163179 331.897845,241.672732 C331.897845,238.546893 334.371143,236.581571 337.138298,236.566009 C339.765202,236.566009 342.336452,238.422393 342.336452,241.783893" id="Fill-325" fill="#FFFFFF"></path>
            <path d="M350.145929,241.714973 C350.453143,241.757214 350.760357,241.772777 351.069798,241.772777 C352.812905,241.772777 353.596524,240.781223 353.596524,239.496205 C353.596524,238.895938 353.360548,238.213411 352.955381,237.793223 C352.463393,237.304116 351.739881,237.221857 351.054214,237.221857 C350.747,237.221857 350.508798,237.235196 350.145929,237.264098 L350.145929,241.714973 Z M347.309762,246.292571 C347.309762,246.179188 347.336476,246.168071 347.436655,246.168071 C348.594274,246.110268 348.776821,245.790125 348.776821,244.64517 C348.790179,243.640277 348.790179,242.021777 348.790179,238.924839 C348.790179,237.530884 348.358298,237.319679 347.672631,237.304116 C347.381,237.293 347.35206,237.293 347.336476,237.166277 C347.336476,236.817232 347.336476,236.803893 347.476726,236.803893 C347.786167,236.803893 349.27994,236.830571 349.616095,236.830571 L351.43044,236.803893 C352.352083,236.803893 353.122345,236.901714 353.750131,237.293 C354.25325,237.613143 355.07694,238.311232 355.07694,239.551786 C355.07694,240.180955 354.840964,240.572241 354.756369,240.696741 C354.25325,241.450411 353.56981,241.672732 352.50569,241.966196 C352.841845,242.386384 354.520393,244.353929 354.727429,244.602929 C356.00081,246.168071 356.043107,246.168071 356.880155,246.168071 C357.007048,246.168071 357.020405,246.208089 357.020405,246.543795 C356.991464,246.654955 356.978107,246.654955 356.811143,246.654955 C356.405976,246.654955 356.00081,246.641616 355.595643,246.641616 C355.288429,246.641616 354.981214,246.654955 354.674,246.654955 C354.602762,246.654955 354.573821,246.641616 354.520393,246.570473 C354.239893,246.26367 352.243,243.598036 351.79331,243.042232 C351.109869,242.190741 351.069798,242.119598 350.145929,242.132938 C350.145929,242.859929 350.119214,244.018223 350.132571,244.742991 C350.161512,245.803464 350.537738,246.13917 351.472738,246.168071 C351.57069,246.168071 351.586274,246.179188 351.599631,246.279232 C351.599631,246.612714 351.599631,246.654955 351.486095,246.654955 C350.802655,246.612714 350.119214,246.612714 349.433548,246.599375 C348.763464,246.599375 348.106738,246.641616 347.436655,246.654955 C347.323119,246.654955 347.309762,246.641616 347.309762,246.543795 L347.309762,246.292571 Z" id="Fill-326" fill="#FFFFFF"></path>
            <path d="M363.084548,239.691848 C363.084548,237.933286 363.084548,237.333018 361.784452,237.319679 C361.659786,237.304116 361.646429,237.304116 361.617488,237.179616 C361.617488,236.846134 361.617488,236.803893 361.771095,236.803893 C362.427821,236.830571 363.097905,236.830571 363.756857,236.830571 C364.440298,236.830571 365.110381,236.817232 365.793821,236.803893 C365.934071,236.803893 365.934071,236.846134 365.934071,237.179616 C365.934071,237.293 365.891774,237.293 365.780464,237.304116 C365.208333,237.333018 364.607262,237.388598 364.453655,238.366813 C364.398,238.758098 364.411357,241.561571 364.411357,242.230759 C365.626857,240.836804 366.143333,240.249875 367.136214,238.853696 C367.570321,238.253429 367.766226,237.988866 367.766226,237.710964 C367.766226,237.304116 367.374417,237.304116 367.107274,237.304116 C366.982607,237.304116 366.96925,237.293 366.953667,237.179616 C366.953667,236.846134 366.96925,236.803893 367.038262,236.803893 C367.639333,236.803893 368.589917,236.817232 369.188762,236.817232 C369.413607,236.817232 369.638452,236.803893 369.858845,236.803893 C369.972381,236.803893 369.972381,236.846134 369.972381,237.152938 C369.972381,237.277438 369.930083,237.277438 369.707464,237.304116 C368.992857,237.388598 368.756881,237.642045 368.002202,238.673616 C367.345476,239.580688 366.675393,240.46108 365.989726,241.325911 C366.423833,241.757214 366.85794,242.20408 367.289821,242.648723 L368.72794,244.184964 C370.321893,245.859045 370.602393,246.12583 371.399369,246.13917 C371.510679,246.13917 371.524036,246.168071 371.537393,246.279232 C371.537393,246.612714 371.537393,246.654955 371.4105,246.654955 C370.560095,246.612714 369.707464,246.599375 368.854833,246.599375 C368.322774,246.612714 367.79294,246.628277 367.263107,246.654955 C367.136214,246.641616 367.136214,246.599375 367.136214,246.25033 C367.136214,246.168071 367.165155,246.152509 367.24975,246.13917 C367.570321,246.13917 368.142452,246.13917 368.142452,245.705643 C368.142452,245.45442 367.946548,245.245438 367.583679,244.840813 C367.120631,244.338366 366.94031,244.142723 366.479488,243.669179 C365.446536,242.595366 365.335226,242.481982 365.097024,242.481982 C364.985714,242.481982 364.927833,242.481982 364.411357,243.111152 L364.411357,244.367268 C364.411357,245.650063 364.580548,246.012446 365.600143,246.13917 C365.891774,246.168071 365.920714,246.168071 365.920714,246.292571 C365.920714,246.628277 365.920714,246.654955 365.793821,246.654955 C364.956774,246.654955 364.119726,246.612714 363.267095,246.612714 C362.763976,246.612714 362.258631,246.628277 361.755512,246.654955 C361.617488,246.654955 361.617488,246.612714 361.617488,246.279232 C361.617488,246.152509 361.630845,246.152509 361.784452,246.152509 C362.07831,246.152509 362.496833,246.025786 362.65044,245.927964 C363.084548,245.663402 363.084548,245.036455 363.084548,244.256107 L363.084548,239.691848 Z" id="Fill-327" fill="#FFFFFF"></path>
            <path d="M231.630226,41.8613482 C229.248202,73.1575357 218.769524,91.4612589 208.413286,102.146027 C202.52056,108.217625 196.64119,111.834795 192.251143,113.931286 C190.058345,114.97842 188.237321,115.647607 186.977298,116.050009 C186.347286,116.252321 185.857524,116.385714 185.530274,116.470196 C185.470167,116.485759 185.414512,116.501321 185.365536,116.510214 C183.390905,116.03 172.106345,112.857473 161.120095,101.032196 C151.108917,90.2496071 141.251345,72.2460179 138.936107,42.2281786 C172.709643,23.3330804 213.455607,29.9293571 231.630226,41.8613482" id="Fill-328" fill="#F7BF35"></path>
            <path d="M225.552726,74.0735 C225.902238,73.046375 226.23394,72.0125804 226.547833,70.9721161 L196.596667,71.4567768 L228.88756,61.3945089 C229.012226,60.7564464 229.130214,60.1183839 229.241524,59.475875 L196.663452,67.9263125 L230.730845,46.8524643 C230.797631,45.843125 230.85106,44.8337857 230.895583,43.8222232 L193.678131,64.2335536 L192.148738,70.0650446 L192.148738,72.2882589 L196.320619,75.7631429 L225.552726,74.0735 Z" id="Fill-329" fill="#FFFFFF"></path>
            <path d="M139.882238,49.2135179 L171.843655,65.1873125 L141.598631,61.0410179 C141.843512,62.2637857 142.108429,63.4754375 142.393381,64.6826429 L174.279107,70.3251607 L144.717524,72.9507768 C145.300786,74.727125 145.939702,76.4767946 146.625369,78.1975625 L173.646869,77.0748393 L149.808821,85.2318125 C150.12494,85.8476429 150.447738,86.4590268 150.777214,87.0637411 L175.645988,79.9650179 L175.521321,80.0361607 L175.525774,80.0472768 L154.900119,93.7511696 C155.44331,94.5315179 156.002083,95.3029732 156.57644,96.0588661 L176.04225,84.6715625 L178.007976,113.933509 C179.3615,114.60492 180.757321,115.231866 182.190988,115.812125 L185.356631,116.78367 L186.632238,116.294562 C188.74044,115.423062 190.761821,114.48042 192.696381,113.47108 L194.644298,84.7938393 L213.602536,96.3367679 C214.018833,95.8143125 214.430679,95.2874107 214.829167,94.7516161 L194.904762,80.9587946 L194.933702,80.5408304 L219.368369,87.8485357 C219.700071,87.2727232 220.025095,86.6902411 220.341214,86.1033125 L194.650976,76.8725268 L192.326833,78.4198839 L184.695452,74.5225893 L183.816107,75.2584732 L179.345917,77.8351786 L177.199869,60.4318571 L139.494881,43.8444554 C139.583929,45.6385893 139.715274,47.4282768 139.882238,49.2135179" id="Fill-330" fill="#FFFFFF"></path>
            <path d="M153.24606,59.5292321 L153.24606,59.5336786 L153.24606,59.5292321 Z" id="Fill-331" fill="#1B1A19"></path>
            <path d="M137.983298,17.8595268 L232.611976,17.8595268 C232.578583,17.4593482 232.542964,17.0324911 232.505119,16.5745089 L232.400488,15.24725 L232.39381,15.24725 L231.75044,7.5749375 L138.744655,7.5749375 L138.185881,15.4139911 L138.185881,15.4139911 L138.090155,16.5700625 C138.05231,17.0302679 138.01669,17.457125 137.983298,17.8595268" id="Fill-332" fill="#004D37"></path>
            <path d="M207.538393,101.343446 C201.868286,107.288321 196.211536,110.827679 191.988452,112.881929 C191.612226,113.064232 191.251583,113.230973 190.899845,113.388821 C191.131369,107.07267 191.897179,86.0744107 191.901631,86.08775 C197.20219,83.6555536 200.879857,78.3442946 200.879857,72.1815446 C200.879857,68.9223125 199.849131,65.9009643 198.097119,63.4176339 C194.499595,64.6248393 190.134036,65.3340446 185.425643,65.3340446 C180.69944,65.3340446 176.32275,64.6203929 172.716321,63.4042946 C170.957631,65.8898482 169.922452,68.9156429 169.922452,72.1815446 C169.922452,78.2953839 173.540012,83.5710714 178.77156,86.0299464 L179.690976,113.34658 C175.122833,111.274545 168.526631,107.361688 162.032833,100.254071 C152.578202,89.8916696 143.2705,72.7084464 140.823917,44.286875 C155.812857,36.1654732 168.061357,32.2681786 184.987083,32.2681786 C201.293929,32.2681786 215.710738,36.4478214 229.700119,44.4069286 C227.117738,73.7733661 217.27575,91.1233304 207.538393,101.343446 L207.538393,101.343446 Z M137.885345,18.9666875 C137.495762,23.2952857 137.313214,24.4491339 137.313214,29.3602143 C137.302083,68.6621964 149.083083,90.9832679 161.019917,103.38658 C172.947845,115.796562 184.893583,118.259884 185.076131,118.297679 L185.365536,118.355482 L185.652714,118.297679 C185.835262,118.259884 197.743155,115.78767 209.628786,103.328777 C221.521095,90.8743304 233.257571,68.4687768 233.24644,29.0089464 C233.24644,24.2045804 233.072798,23.1418839 232.707702,18.9666875 L137.885345,18.9666875 Z" id="Fill-333" fill="#004D37"></path>
            <polygon id="Fill-334" fill="#FFFFFF" points="143.838179 11.0653839 142.558119 11.0653839 142.558119 10.2650268 145.104881 9.88041071 145.104881 15.9208839 143.838179 15.9208839"></polygon>
            <path d="M167.60944,10.9497768 C167.37569,10.9497768 167.226536,10.9853482 167.144167,11.0542679 C167.061798,11.1365268 167.028405,11.2743661 167.028405,11.4966875 L167.028405,11.7968214 C167.028405,12.0191429 167.061798,12.1569821 167.144167,12.228125 C167.226536,12.3081607 167.37569,12.3437321 167.60944,12.3437321 L170.412214,12.3437321 C170.632607,12.3437321 170.783988,12.3081607 170.864131,12.2392411 C170.9465,12.1569821 170.979893,12.0191429 170.979893,11.7968214 L170.979893,11.4966875 C170.979893,11.2743661 170.9465,11.1254107 170.864131,11.0542679 C170.783988,10.9853482 170.632607,10.9497768 170.412214,10.9497768 L167.60944,10.9497768 Z M167.46919,13.3197232 C167.23544,13.3197232 167.086286,13.3530714 167.015048,13.4242143 C166.934905,13.4931339 166.899286,13.6443125 166.899286,13.8644107 L166.899286,14.3068304 C166.899286,14.5269286 166.934905,14.6669911 167.003917,14.7359107 C167.086286,14.8048304 167.23544,14.8404018 167.46919,14.8404018 L170.539107,14.8404018 C170.770631,14.8404018 170.922012,14.8048304 170.99325,14.7359107 C171.073393,14.6669911 171.109012,14.5269286 171.109012,14.3068304 L171.109012,13.8644107 C171.109012,13.6443125 171.073393,13.4931339 170.99325,13.4242143 C170.922012,13.3530714 170.770631,13.3197232 170.539107,13.3197232 L167.46919,13.3197232 Z M171.970548,10.1716518 C172.155321,10.3450625 172.248821,10.6496429 172.248821,11.1009554 L172.248821,11.6478661 C172.248821,11.9946875 172.166452,12.2503571 171.99281,12.4259911 C171.819167,12.5994018 171.527536,12.726125 171.097881,12.8083839 C171.540893,12.8550714 171.865917,12.9817946 172.072952,13.1685446 C172.28444,13.3664107 172.389071,13.6443125 172.389071,14.0044732 L172.389071,14.6314196 C172.389071,15.1183036 172.28444,15.4562321 172.064048,15.6407589 C171.85256,15.8275089 171.469655,15.9208839 170.922012,15.9208839 L167.086286,15.9208839 C166.538643,15.9208839 166.166869,15.8275089 165.957607,15.6407589 C165.737214,15.4673482 165.632583,15.1183036 165.632583,14.6314196 L165.632583,14.0044732 C165.632583,13.6443125 165.737214,13.3664107 165.946476,13.1685446 C166.155738,12.9817946 166.480762,12.8550714 166.910417,12.8083839 C166.491893,12.726125 166.189131,12.5994018 166.015488,12.4259911 C165.841845,12.2503571 165.759476,11.9835714 165.759476,11.6478661 L165.759476,11.1009554 C165.759476,10.6496429 165.852976,10.3450625 166.03775,10.1716518 C166.22475,10.0093571 166.596524,9.92932143 167.13081,9.92932143 L170.877488,9.92932143 C171.411774,9.92932143 171.783548,10.0093571 171.970548,10.1716518 L171.970548,10.1716518 Z" id="Fill-335" fill="#FFFFFF"></path>
            <path d="M196.681262,15.6763304 C196.494262,15.5029196 196.402988,15.2005625 196.402988,14.7470268 L196.402988,14.2601429 L197.636298,14.0044732 L197.636298,14.8404018 L200.868726,14.8404018 C201.10025,14.8404018 201.251631,14.8048304 201.334,14.7359107 C201.414143,14.6669911 201.447536,14.5158125 201.447536,14.3068304 L201.447536,13.8644107 C201.447536,13.6443125 201.414143,13.50425 201.334,13.4242143 C201.251631,13.3530714 201.10025,13.3197232 200.868726,13.3197232 L198.845119,13.3197232 L198.845119,12.3437321 L200.646107,12.3437321 C200.879857,12.3437321 201.031238,12.3081607 201.10025,12.2392411 C201.182619,12.1569821 201.218238,12.0191429 201.218238,11.7968214 L201.218238,11.4966875 C201.218238,11.2743661 201.182619,11.1254107 201.10025,11.0542679 C201.031238,10.9853482 200.879857,10.9497768 200.646107,10.9497768 L197.680821,10.9497768 L197.680821,11.6945536 L196.494262,11.4722321 L196.494262,11.1009554 C196.494262,10.6496429 196.589988,10.3450625 196.774762,10.1716518 C196.959536,10.0093571 197.320179,9.92932143 197.867821,9.92932143 L201.111381,9.92932143 C201.659024,9.92932143 202.01744,10.0093571 202.20444,10.1716518 C202.39144,10.3450625 202.48494,10.6496429 202.48494,11.1009554 L202.48494,11.6478661 C202.48494,11.9946875 202.39144,12.2636964 202.228929,12.4259911 C202.05306,12.5994018 201.750298,12.7150089 201.318417,12.7839286 C201.808179,12.8328393 202.15769,12.9484464 202.378083,13.1440893 C202.600702,13.3419554 202.716464,13.6331964 202.716464,14.0044732 L202.716464,14.6314196 C202.716464,15.1183036 202.611833,15.4673482 202.39144,15.6407589 C202.182179,15.8275089 201.808179,15.9208839 201.262762,15.9208839 L197.774321,15.9208839 C197.228905,15.9208839 196.868262,15.838625 196.681262,15.6763304" id="Fill-336" fill="#FFFFFF"></path>
            <path d="M221.768202,9.92932143 L226.953,9.92932143 L226.850595,10.9497768 L222.660905,10.9497768 L222.522881,12.1125179 C223.034905,12.0524911 223.489048,12.0191429 223.883083,11.9946875 C224.279345,11.9724554 224.628857,11.9613393 224.953881,11.9613393 C225.940083,11.9613393 226.685857,12.13475 227.18675,12.4726786 C227.685417,12.8083839 227.930298,13.3197232 227.930298,13.9933571 C227.930298,14.7003393 227.674286,15.2005625 227.151131,15.5251518 C226.627976,15.838625 225.790929,16.0009196 224.628857,16.0009196 C224.012202,16.0009196 223.46456,15.9786875 222.977024,15.932 C222.487262,15.8964286 222.068738,15.838625 221.732583,15.7585893 L221.429821,14.5958482 C222.010857,14.7003393 222.569631,14.7825982 223.092786,14.8292857 C223.60481,14.8870893 224.116833,14.9093214 224.593238,14.9093214 C225.350143,14.9093214 225.871071,14.8404018 226.184964,14.6892232 C226.487726,14.5380446 226.639107,14.282375 226.639107,13.9355536 C226.639107,13.597625 226.487726,13.3664107 226.198321,13.2263482 C225.89556,13.0751696 225.383536,13.00625 224.673381,13.00625 C224.221464,13.00625 223.720571,13.0284821 223.175155,13.0640536 C222.627512,13.1107411 222.046476,13.1685446 221.429821,13.2485804 L221.768202,9.92932143 Z" id="Fill-337" fill="#FFFFFF"></path>
            <path d="M172.849893,63.6755268 C170.343202,62.0948214 168.070262,57.8040179 167.65619,56.0810268 C167.389048,54.7493214 167.246571,53.4309554 167.246571,52.1281518 C167.246571,49.2535357 167.892167,46.4322768 169.185583,43.602125 C169.808917,42.2392946 172.141964,37.5705446 176.017762,34.7203839 C176.371726,34.4580446 177.910024,33.5776518 178.424274,33.3419911 C177.767548,35.16725 179.078774,34.4180268 179.497298,33.1596875 C179.842357,31.1921429 180.013774,29.0267321 180.013774,26.7279286 C180.013774,24.8582054 179.898012,22.8684286 179.673167,20.8119554 C179.557405,19.7670446 179.470583,18.6287589 179.470583,17.4437857 C179.470583,13.0596071 182.215476,6.49667857 189.054333,2.94175893 C187.462607,6.21433036 186.948357,11.6878839 188.885143,15.1360893 C189.653179,16.5011429 193.464417,22.5816339 193.931917,30.0694196 C193.960857,30.4851607 194.374929,30.8497679 195.165226,31.5145089 L195.904321,32.1525714 C198.161679,34.1845893 202.43819,41.9991875 202.43819,51.6056964 C202.43819,53.0218839 202.431512,54.4892054 202.137655,55.9520804 C201.610048,58.5865893 199.664357,62.2704554 197.509405,64.0957143 C187.814345,67.3215982 176.467452,65.7786875 172.849893,63.6755268" id="Fill-338" fill="#004D37"></path>
            <path d="M194.154536,33.8822321 C194.154536,33.8822321 196.1915,38.5665446 192.237786,42.1170179 C190.105095,44.0312054 187.885583,43.4665089 190.41231,37.3660089 C194.094429,28.4775982 187.273381,16.9102143 187.273381,16.9102143 C191.474202,30.6985893 180.450107,35.1227857 176.972798,43.4553929 C176.006631,45.7675357 176.276,48.5309911 177.208774,51.0232143 C178.573429,54.7004107 174.944738,52.9685268 173.89175,47.7017321 C173.339655,44.9471696 173.735917,41.6390268 176.080095,37.5794375 C169.65531,45.1450357 168.922893,51.3878214 170.405536,56.9169554 C170.955405,59.289125 172.736357,62.6261696 174.864595,64.0356875 C178.010202,64.8582768 181.601048,65.3340446 185.425643,65.3340446 C189.192357,65.3340446 192.729774,64.8738393 195.837536,64.0757054 C197.509405,62.4616518 198.896321,59.5959286 199.479583,56.7813393 C201.630083,45.1650446 196.385179,36.1143393 194.154536,33.8822321" id="Fill-339" fill="#F7BF35"></path>
            <path d="M182.159821,20.5562857 C181.516452,14.7047857 182.881107,8.76658036 186.091274,6.73011607 C186.091274,6.73011607 183.985298,10.8475089 185.565893,15.5384911 C188.016929,23.5776339 185.321012,28.8844464 181.963917,33.5643125 C182.487071,30.5563036 182.785381,26.2655 182.159821,20.5562857" id="Fill-340" fill="#F7BF35"></path>
            <path d="M188.938571,29.7892946 C188.025833,34.9093571 180.499083,39.6981607 178.751524,45.9943036 C177.487048,50.5541161 180.087238,58.9734286 188.938571,58.9734286 C195.89319,58.9734286 197.999167,53.4309554 197.999167,50.2050714 C197.999167,46.9769643 196.946179,42.6972768 195.89319,40.240625 C195.89319,42.4171518 192.49825,46.7746518 189.359321,45.5741161 C182.75644,43.0485446 191.959512,35.1894821 188.938571,29.7892946" id="Fill-341" fill="#FFFFFF"></path>
            <path d="M172.357905,50.1339286 C172.217655,51.1165893 171.231452,58.2397679 175.799595,60.0272321 C177.41581,60.658625 179.241286,58.4843214 177.27556,56.5879196 C175.48125,54.8604821 172.709643,53.9934286 172.357905,50.1339286" id="Fill-342" fill="#FFFFFF"></path>
            <path d="M180.082786,80.7876071 C180.234167,80.8120625 180.387774,80.8365179 180.536929,80.8609732 C180.024905,77.6928929 179.143333,71.614625 181.643345,67.1437411 C182.516012,67.2215536 183.39981,67.2815804 184.301417,67.3038125 C184.764464,72.1081786 184.826798,78.4576786 185.272036,81.6413214 C185.403381,81.6435446 185.534726,81.6435446 185.666071,81.6413214 C186.109083,78.4532321 186.173643,72.0926161 186.63669,67.28825 C187.458155,67.2526786 188.286298,67.1793125 189.11444,67.0859375 C191.118012,71.7924821 191.06681,77.6417589 190.521393,80.8031696 C190.675,80.7809375 190.830833,80.7542589 190.98444,80.7298036 C192.602881,77.7262411 192.787655,71.2255625 191.817036,66.6924286 C192.489345,66.572375 193.148298,66.4434286 193.78944,66.3011429 C196.741369,70.7097768 196.592214,75.8565179 195.218655,78.8534107 C195.35,78.8089464 195.483571,78.7622589 195.61269,78.7155714 C197.914571,76.0477143 198.166131,69.8160446 196.020083,65.7542321 L195.937714,65.7653482 C196.585536,65.5897143 197.208869,65.4074107 197.789905,65.2184375 C199.263643,67.2526786 199.7445,70.0050179 199.7445,72.4438839 C199.7445,77.1059643 196.59444,81.4590179 192.164321,83.7800536 C192.148738,83.7933929 192.133155,83.8089554 192.159869,83.7822768 C180.196321,89.7605 171.189155,76.19 176.647774,66.385625 C177.424714,66.5590357 178.228369,66.7013214 179.043155,66.8280446 C177.300048,71.7013304 178.488833,77.8018304 180.082786,80.7876071" id="Fill-343" fill="#F7BF35"></path>
        </g>
    </g>
</svg>