<?xml version="1.0" encoding="UTF-8"?>
<svg width="447px" height="297px" viewBox="0 0 447 297" version="1.1" xmlns="http://www.w3.org/2000/svg" xmlns:xlink="http://www.w3.org/1999/xlink">
    <!-- Generator: Sketch 46.2 (44496) - http://www.bohemiancoding.com/sketch -->
    <title>Group 210</title>
    <desc>Created with Sketch.</desc>
    <defs></defs>
    <g id="Page-1" stroke="none" stroke-width="1" fill="none" fill-rule="evenodd">
        <g id="Group-210">
            <path d="M227.503583,6.21716071 C228.123631,2.34617857 228.567286,0.573535714 228.567286,0.573535714 C228.567286,0.573535714 224.72406,0.851178571 219.07147,6.21182143 C218.360554,6.21182143 164.154494,6.18245536 164.154494,6.18245536 C163.665405,11.6338661 162.051143,25.7963214 162.04847,31.9818839 C162.03778,87.6305893 176.75322,109.310759 191.016988,125.632955 C205.307482,141.984518 222.099548,144.373848 222.099548,144.373848 C222.099548,144.373848 238.463994,141.915107 252.757161,125.558205 C267.020929,109.23067 281.939488,87.438375 281.939488,31.5387232 C281.939488,25.4893125 280.253065,11.3962679 279.796048,6.13707143 C279.796048,6.13707143 228.070179,6.21716071 227.503583,6.21716071" id="Fill-147" fill="#FFFFFE"></path>
            <path d="M17.7751488,237.253393 L17.7751488,249.958223 C17.7751488,255.372259 17.8740357,258.808089 18.0718095,260.265714 C18.2669107,261.726009 18.7960893,262.833911 19.654,263.592089 C20.5119107,264.347598 22.2063512,264.726688 24.739994,264.726688 C29.2406845,264.726688 32.618875,263.576071 34.8692202,261.274839 C37.1195655,258.976277 38.2474107,255.524429 38.2474107,250.924634 C38.2474107,246.215384 36.9725714,242.744848 34.4255655,240.513027 C31.8785595,238.283875 27.39925,237.167964 20.9822917,237.167964 C19.969369,237.167964 18.9003214,237.19733 17.7751488,237.253393 L17.7751488,237.253393 Z M17.7751488,235.093652 C18.4780476,235.123018 19.0686964,235.136366 19.5470952,235.136366 C25.624631,235.136366 29.7752083,234.177964 31.9961548,232.261161 C34.2197738,230.344357 35.3315833,227.239562 35.3315833,222.954786 C35.3315833,219.964786 34.8959464,217.652875 34.0246726,216.016384 C33.1507262,214.382563 31.8438155,213.119821 30.0985952,212.23083 C28.353375,211.341839 25.3707321,210.898679 21.1506667,210.898679 C20.0548929,210.898679 18.9297202,210.938723 17.7751488,211.024152 L17.7751488,235.093652 Z M28.1155119,235.93192 C34.617994,236.412455 39.4474167,238.030259 42.5984345,240.788 C45.752125,243.548411 47.3289702,246.99492 47.3289702,251.132866 C47.3289702,254.736884 46.25725,257.841679 44.1191548,260.44458 C41.9783869,263.050152 39.2389524,264.753384 35.9008512,265.554277 C32.56275,266.35517 28.094131,266.758286 22.4896488,266.758286 L0.0155952381,266.758286 L0.0155952381,264.793429 L2.21783333,264.793429 C4.67664286,264.793429 6.37642857,264.48375 7.32520833,263.864393 C8.26864286,263.245036 8.86998214,262.281295 9.12388095,260.97317 C9.37777976,259.665045 9.50606548,256.618982 9.50606548,251.834982 L9.50606548,223.974589 C9.50606548,219.33475 9.3697619,216.336741 9.1025,214.985902 C8.83256548,213.635063 8.26597024,212.706027 7.40271429,212.198795 C6.53678571,211.691563 4.64724405,211.437946 1.73141667,211.437946 L0.624952381,211.437946 L0.624952381,209.475759 L10.0512798,209.214134 L20.7845179,208.86708 C36.4460655,208.86708 44.2795119,213.376107 44.2795119,222.3995 C44.2795119,226.120982 42.9351845,229.108313 40.2492024,231.364161 C37.5605476,233.620009 33.516875,235.141705 28.1155119,235.93192 L28.1155119,235.93192 Z" id="Fill-149" fill="#1A1919"></path>
            <path d="M64.0515476,241.16442 C65.8849643,241.116366 67.7771786,241.041616 69.7308631,240.942839 C71.6845476,240.846732 73.3843333,240.579768 74.824875,240.141946 C76.2654167,239.706795 77.4333512,239.06875 78.3233333,238.227813 C79.2159881,237.389545 79.9188869,236.289652 80.4320298,234.928134 C80.9425,233.569286 81.201744,231.89008 81.201744,229.895857 C81.201744,226.422652 80.3277976,223.640884 78.5799048,221.547884 C76.8320119,219.457554 73.028875,218.413723 67.1651488,218.413723 C66.2618036,218.413723 65.2248274,218.461777 64.0515476,218.557884 L64.0515476,241.16442 Z M101.53503,266.758286 L88.1879702,266.758286 C85.8227024,265.095098 82.2039762,260.767607 77.3264464,253.775812 C75.7656369,251.543991 74.1433571,249.400268 72.4622798,247.349982 C70.7812024,245.297027 69.6212857,244.047634 68.987875,243.599134 C68.3544643,243.150634 67.3682679,242.923714 66.0266131,242.923714 L64.0515476,242.923714 L64.0515476,253.885268 C64.0515476,257.769598 64.1424167,260.311098 64.3268274,261.515107 C64.5085655,262.716446 64.9949821,263.608107 65.78875,264.190089 C66.5825179,264.774741 68.1032381,265.065732 70.3482381,265.065732 L72.726869,265.065732 L72.726869,266.758286 L48.9352143,266.758286 L48.9352143,265.065732 L50.5494762,265.065732 C52.6795536,265.065732 54.1548393,264.796098 54.9753333,264.26217 C55.7931548,263.725571 56.3143155,262.892643 56.5361429,261.758045 C56.7552976,260.626116 56.8675476,257.991179 56.8675476,253.850562 L56.8675476,229.554143 C56.8675476,225.608411 56.7552976,223.064241 56.5361429,221.918964 C56.3169881,220.773687 55.8305714,219.983473 55.0768929,219.545652 C54.3205417,219.10783 52.690244,218.88625 50.1833274,218.88625 L49.3414524,218.88625 L49.3414524,217.193696 L56.4426012,216.838634 C61.1758095,216.625062 64.9335119,216.518277 67.7157083,216.518277 C72.4489167,216.518277 76.2974881,216.956098 79.2614226,217.831741 C82.2280298,218.712723 84.6226964,220.148991 86.4534405,222.148554 C88.2841845,224.148116 89.1982202,226.534777 89.1982202,229.313875 C89.1982202,232.554821 88.0035595,235.320571 85.6088929,237.613795 C83.2142262,239.904348 79.6997321,241.329937 75.0600655,241.890562 C77.1527262,242.872991 80.4988452,246.474339 85.0984226,252.691938 C88.8454345,257.726884 91.7906607,261.021223 93.9341012,262.580295 C96.0775417,264.139366 98.6111845,264.966955 101.53503,265.065732 L101.53503,266.758286 Z" id="Fill-150" fill="#1A1919"></path>
            <path d="M104.151524,241.903911 C104.151524,249.90483 105.73906,255.911527 108.916804,259.924 C112.094548,263.939143 116.8625,265.944045 123.217988,265.944045 C128.793071,265.944045 133.20022,263.939143 136.439435,259.924 C139.678649,255.911527 141.295583,249.928857 141.295583,241.975991 C141.295583,234.244705 139.702702,228.315429 136.511595,224.1935 C133.323161,220.068902 128.694185,218.007938 122.632685,218.007938 C116.667399,218.007938 112.094548,220.020848 108.916804,224.04667 C105.73906,228.072491 104.151524,234.023125 104.151524,241.903911 M95.7461369,241.647625 C95.7461369,233.98575 98.3038333,227.837563 103.421899,223.200393 C108.539964,218.563223 114.924851,216.245973 122.57656,216.245973 C130.303101,216.245973 136.754804,218.539196 141.934339,223.128313 C147.111202,227.714759 149.70097,233.975071 149.70097,241.903911 C149.70097,249.589812 147.22078,255.81008 142.263071,260.567384 C137.30269,265.327357 130.778827,267.706009 122.686137,267.706009 C114.815274,267.706009 108.355554,265.327357 103.312321,260.567384 C98.2664167,255.81008 95.7461369,249.504384 95.7461369,241.647625" id="Fill-151" fill="#1A1919"></path>
            <path d="M197.137286,248.204268 L198.695423,248.204268 L198.695423,265.605 L197.137286,265.605 C196.693631,263.626795 195.891845,261.883518 194.731929,260.367161 C190.364869,265.260616 184.795131,267.706009 178.017369,267.706009 C170.846732,267.706009 164.988351,265.436812 160.442226,260.89842 C155.893429,256.360027 153.621702,250.35867 153.621702,242.891679 C153.621702,237.987545 154.669369,233.369062 156.764702,229.038902 C158.862708,224.706071 161.789226,221.491821 165.544256,219.393482 C169.299286,217.295143 173.420464,216.245973 177.905119,216.245973 C181.612042,216.245973 184.971524,217.01483 187.983565,218.544536 C190.992935,220.07958 193.24328,221.777473 194.731929,223.640884 C195.758214,221.563902 196.380935,219.414839 196.594744,217.193696 L198.289185,217.193696 L198.695423,236.017348 L197.137286,236.017348 C196.041512,229.297857 193.801857,224.642 190.426339,222.041768 C187.048149,219.444205 183.239667,218.144089 178.995548,218.144089 C173.802649,218.144089 169.676125,220.253107 166.615976,224.468473 C163.555827,228.686509 162.027089,234.719902 162.027089,242.568652 C162.027089,250.006277 163.694804,255.703295 167.035577,259.665045 C170.376351,263.626795 174.534946,265.605 179.50869,265.605 C182.165274,265.605 184.886,264.961616 187.665524,263.672179 C190.445048,262.385411 192.644613,260.201643 194.266893,257.123545 C195.889173,254.048116 196.84597,251.074134 197.137286,248.204268" id="Fill-152" fill="#1A1919"></path>
            <path d="M217.807321,242.413812 L232.961071,228.779946 C236.475565,225.640446 238.231476,223.403286 238.231476,222.063125 C238.231476,220.042205 236.483583,218.985027 232.99047,218.88625 L232.99047,217.193696 L251.698804,217.193696 L251.698804,218.88625 C250.159375,218.912946 248.614601,219.241312 247.06181,219.874018 C245.51169,220.509393 244.089857,221.339652 242.79631,222.362125 C241.500089,223.387268 239.094732,225.544339 235.577565,228.838679 L226.533423,237.154616 L245.140196,255.876821 C249.384315,260.196304 252.230655,262.807214 253.673869,263.709554 C255.117083,264.614562 256.987917,265.065732 259.289042,265.065732 L259.289042,266.758286 L233.463524,266.758286 L233.463524,265.065732 L234.452393,265.065732 C237.237262,265.065732 238.974464,264.833473 239.658655,264.371625 C240.345518,263.909777 240.68494,263.335804 240.68494,262.655045 C240.68494,261.632571 238.915667,259.358036 235.377119,255.828768 L221.359232,241.722375 L217.807321,244.82717 L217.807321,253.850562 C217.807321,257.748241 217.903536,260.29775 218.098637,261.504429 C218.293738,262.708437 218.7855,263.605437 219.573923,264.18742 C220.362345,264.772071 221.875048,265.065732 224.11203,265.065732 L225.058137,265.065732 L225.058137,266.758286 L202.757804,266.758286 L202.757804,265.065732 L204.29456,265.065732 C206.413946,265.065732 207.883887,264.796098 208.701708,264.26217 C209.516857,263.725571 210.04069,262.892643 210.273208,261.758045 C210.505726,260.626116 210.620649,257.991179 210.620649,253.850562 L210.620649,229.554143 C210.620649,225.46425 210.492363,222.858679 210.238464,221.737429 C209.981893,220.616179 209.476768,219.86067 208.723089,219.470902 C207.969411,219.083804 206.208155,218.88625 203.436649,218.88625 L203.436649,217.193696 L225.464375,217.193696 L225.464375,218.88625 L224.544994,218.88625 C222.09153,218.88625 220.47994,219.089143 219.720917,219.489589 C218.95922,219.892705 218.44875,220.640205 218.192179,221.737429 C217.935607,222.834652 217.807321,225.440223 217.807321,229.556812 L217.807321,242.413812 Z" id="Fill-153" fill="#1A1919"></path>
            <path d="M273.379089,241.636946 L276.912292,241.636946 C279.753286,241.636946 282.049065,241.348625 283.796958,240.774652 C285.544851,240.198009 287.004101,238.99133 288.169363,237.154616 C289.334625,235.317902 289.919929,233.051375 289.919929,230.357705 C289.919929,226.241116 288.917696,223.22175 286.913232,221.299607 C284.908768,219.374795 281.658863,218.413723 277.168863,218.413723 C275.514512,218.413723 274.253036,218.461777 273.379089,218.560554 L273.379089,241.636946 Z M273.379089,243.398911 L273.379089,253.829205 C273.379089,257.732223 273.469958,260.289741 273.654369,261.49642 C273.836107,262.703098 274.330542,263.600098 275.132327,264.18742 C275.936786,264.772071 277.446815,265.065732 279.665089,265.065732 L281.30875,265.065732 L281.30875,266.758286 L258.535363,266.758286 L258.535363,265.065732 L259.860982,265.065732 C261.996405,265.065732 263.474363,264.796098 264.29753,264.26217 C265.120696,263.725571 265.641857,262.892643 265.863685,261.758045 C266.082839,260.626116 266.195089,257.991179 266.195089,253.850563 L266.195089,229.554143 C266.195089,225.608411 266.082839,223.064241 265.863685,221.918964 C265.641857,220.773688 265.150095,219.983473 264.391071,219.545652 C263.629375,219.10783 261.983042,218.88625 259.454744,218.88625 L258.535363,218.88625 L258.535363,217.193696 L264.759893,216.94542 C269.738982,216.750536 273.619625,216.654429 276.404494,216.654429 C281.527905,216.654429 285.478036,217.057545 288.249542,217.861107 C291.018375,218.66467 293.287429,220.092929 295.059375,222.140545 C296.828649,224.19083 297.713286,226.775045 297.713286,229.895857 C297.713286,232.605545 297.111946,234.994875 295.903923,237.069188 C294.698571,239.1435 292.969387,240.71592 290.716369,241.789116 C288.463351,242.862313 284.497185,243.398911 278.823214,243.398911 L273.379089,243.398911 Z" id="Fill-154" fill="#1A1919"></path>
            <path d="M308.37169,241.903911 C308.37169,249.90483 309.959226,255.911527 313.13697,259.924 C316.314714,263.939143 321.082667,265.944045 327.435482,265.944045 C333.013238,265.944045 337.420387,263.939143 340.659601,259.924 C343.896143,255.911527 345.51575,249.928857 345.51575,241.975991 C345.51575,234.244705 343.922869,228.315429 340.731762,224.1935 C337.540655,220.068902 332.914351,218.007938 326.852851,218.007938 C320.884893,218.007938 316.314714,220.020848 313.13697,224.04667 C309.959226,228.072491 308.37169,234.023125 308.37169,241.903911 M299.966304,241.647625 C299.966304,233.98575 302.524,227.837563 307.642065,223.200393 C312.760131,218.563223 319.145018,216.245973 326.796726,216.245973 C334.523268,216.245973 340.97497,218.539196 346.151833,223.128313 C351.334042,227.714759 353.921137,233.975071 353.921137,241.903911 C353.921137,249.589812 351.440946,255.81008 346.483238,260.567384 C341.522857,265.327357 334.996321,267.706009 326.906304,267.706009 C319.03544,267.706009 312.57572,265.327357 307.532488,260.567384 C302.486583,255.81008 299.966304,249.504384 299.966304,241.647625" id="Fill-155" fill="#1A1919"></path>
            <path d="M369.641482,241.16442 C371.474899,241.116366 373.367113,241.041616 375.320798,240.942839 C377.277155,240.846732 378.974268,240.579768 380.41481,240.141946 C381.855351,239.706795 383.023286,239.06875 383.91594,238.227813 C384.805923,237.389545 385.508821,236.289652 386.021964,234.928134 C386.535107,233.569286 386.791679,231.89008 386.791679,229.895857 C386.791679,226.422652 385.917732,223.640884 384.169839,221.547884 C382.424619,219.457554 378.61881,218.413723 372.757756,218.413723 C371.851738,218.413723 370.814762,218.461777 369.641482,218.557884 L369.641482,241.16442 Z M407.124964,266.758286 L393.777905,266.758286 C391.412637,265.095098 387.793911,260.767607 382.916381,253.775812 C381.355571,251.543991 379.733292,249.400268 378.052214,247.349982 C376.371137,245.297027 375.21122,244.047634 374.57781,243.599134 C373.944399,243.150634 372.958202,242.923714 371.616548,242.923714 L369.641482,242.923714 L369.641482,253.885268 C369.641482,257.769598 369.732351,260.311098 369.914089,261.515107 C370.0985,262.716446 370.587589,263.608107 371.378685,264.190089 C372.172452,264.774741 373.693173,265.065732 375.938173,265.065732 L378.319476,265.065732 L378.319476,266.758286 L354.525149,266.758286 L354.525149,265.065732 L356.139411,265.065732 C358.269488,265.065732 359.744774,264.796098 360.565268,264.26217 C361.383089,263.725571 361.906923,262.892643 362.126077,261.758045 C362.345232,260.626116 362.457482,257.991179 362.457482,253.850562 L362.457482,229.554143 C362.457482,225.608411 362.345232,223.064241 362.126077,221.918964 C361.906923,220.773687 361.420506,219.983473 360.666827,219.545652 C359.910476,219.10783 358.280179,218.88625 355.770589,218.88625 L354.931387,218.88625 L354.931387,217.193696 L362.032536,216.838634 C366.765744,216.625062 370.523446,216.518277 373.305643,216.518277 C378.038851,216.518277 381.887423,216.956098 384.85403,217.831741 C387.817964,218.712723 390.212631,220.148991 392.043375,222.148554 C393.874119,224.148116 394.788155,226.534777 394.788155,229.313875 C394.788155,232.554821 393.593494,235.320571 391.198827,237.613795 C388.804161,239.904348 385.289667,241.329937 380.65,241.890562 C382.742661,242.872991 386.08878,246.474339 390.688357,252.691938 C394.435369,257.726884 397.380595,261.021223 399.524036,262.580295 C401.667476,264.139366 404.201119,264.966955 407.124964,265.065732 L407.124964,266.758286 Z" id="Fill-156" fill="#1A1919"></path>
            <path d="M399.264792,229.177723 L397.570351,229.177723 L397.829595,217.193696 L446.054333,217.193696 L446.308232,229.177723 L444.750095,229.177723 C444.186173,225.918089 443.419131,223.560795 442.443625,222.113848 C441.465446,220.666902 440.415107,219.775241 439.292607,219.449545 C438.170107,219.121179 436.253839,218.955661 433.546476,218.955661 L425.566036,218.955661 L425.566036,253.863911 C425.566036,257.732223 425.656905,260.273723 425.841315,261.488411 C426.025726,262.705768 426.520161,263.605437 427.329964,264.190089 C428.137095,264.774741 429.655143,265.065732 431.884107,265.065732 L434.310845,265.065732 L434.310845,266.758286 L409.500923,266.758286 L409.500923,265.065732 L412.058619,265.065732 C414.178006,265.065732 415.645274,264.798768 416.460423,264.26217 C417.275571,263.728241 417.802077,262.895312 418.034595,261.763384 C418.26444,260.631455 418.379363,257.999188 418.379363,253.863911 L418.379363,218.955661 L411.01897,218.955661 C407.822518,218.955661 405.673732,219.10783 404.575286,219.41217 C403.476839,219.716509 402.445208,220.634866 401.480393,222.167241 C400.515577,223.702286 399.777935,226.038223 399.264792,229.177723" id="Fill-157" fill="#1A1919"></path>
            <path d="M120.938244,171.532125 C120.938244,171.961938 120.84203,171.961938 119.794363,171.961938 C119.460286,171.961938 119.460286,171.86583 119.225095,170.963491 C118.126649,167.250018 117.747137,165.917866 105.979595,165.728321 L105.979595,189.522848 C105.979595,195.041 106.979155,195.377375 110.694095,195.756464 C111.506571,195.804518 111.600113,195.804518 111.64822,196.231661 C111.64822,197.470375 111.64822,197.611866 111.172494,197.611866 C108.932839,197.563813 106.693185,197.518429 104.45353,197.470375 C101.690042,197.470375 98.881119,197.518429 96.117631,197.611866 C95.7835536,197.611866 95.7354464,197.422321 95.6873393,197.232777 C95.6873393,195.994062 95.6873393,195.849902 96.1657381,195.756464 C100.214756,195.326652 101.214315,195.041 101.31053,190.33175 C101.404071,185.715938 101.358637,171.486741 101.358637,165.821759 C99.5466012,165.776375 94.2574881,165.728321 91.304244,166.726768 C88.9710476,167.53567 88.6369702,168.72633 87.8271667,171.628232 C87.7309524,171.961938 87.6374107,171.961938 86.6832857,171.961938 C86.3492083,171.961938 86.3492083,171.86583 86.3037738,171.628232 L86.3037738,169.62867 C86.3037738,168.248464 86.3037738,166.63333 86.3492083,165.253125 C86.3492083,164.727205 86.3492083,163.966357 87.3995476,163.966357 C87.923381,163.966357 88.9229405,164.252009 105.263333,164.252009 C118.936452,164.252009 119.225095,163.966357 119.84247,163.966357 C120.890137,163.966357 120.890137,164.300063 120.938244,166.916313 L120.938244,171.532125 Z" id="Fill-158" fill="#1A1919"></path>
            <path d="M128.798417,166.48917 C128.75031,167.773268 128.654095,173.531687 128.654095,179.671866 C129.942298,178.577313 132.275494,176.57775 136.375292,176.57775 C137.850577,176.57775 139.708048,176.911455 141.089792,178.1475 C142.85372,179.71992 142.85372,181.575321 142.85372,184.525277 L142.85372,192.093714 C142.85372,195.614973 143.13969,195.614973 146.092935,196.042116 C146.378905,196.042116 146.427012,196.09017 146.475119,196.375821 C146.475119,197.470375 146.475119,197.611866 146.092935,197.611866 C144.283571,197.422321 142.377994,197.374268 140.565958,197.374268 C138.994458,197.374268 137.422958,197.518429 135.851458,197.611866 C135.517381,197.611866 135.469274,197.563812 135.421167,197.232777 C135.421167,196.183607 135.421167,196.042116 135.851458,195.994062 C137.374851,195.804518 138.040333,195.660357 138.518732,195.233214 C139.090673,194.613857 139.090673,194.424312 139.090673,189.522848 C139.090673,183.00358 138.946351,181.335054 138.040333,180.099009 C136.899125,178.433152 135.228738,178.433152 134.704905,178.433152 C133.467482,178.433152 131.086179,178.766857 129.656327,181.004018 C128.654095,182.48033 128.654095,183.337286 128.654095,188.476348 C128.654095,195.326652 128.702202,195.614973 131.944089,196.042116 C132.23006,196.09017 132.275494,196.138223 132.275494,196.471929 C132.275494,197.470375 132.275494,197.611866 131.992196,197.611866 C130.610452,197.518429 129.32225,197.422321 126.892839,197.374268 C125.131583,197.374268 123.319548,197.470375 121.555619,197.611866 C121.272321,197.611866 121.272321,197.374268 121.272321,197.184723 C121.272321,196.231661 121.272321,196.09017 121.651833,195.994062 C123.177899,195.756464 124.129351,195.614973 124.55697,194.661911 C124.891048,193.99717 124.939155,193.949116 124.939155,186.239187 C124.939155,182.240062 124.939155,171.820446 124.797506,169.060036 C124.701292,166.441116 124.319107,166.441116 121.748048,166.441116 C121.41397,166.441116 121.365863,166.393063 121.365863,166.107411 C121.365863,165.157018 121.365863,165.060911 121.69994,165.012857 C122.891929,164.871366 123.226006,164.871366 126.940946,164.014411 L128.654095,163.680705 C128.75031,163.680705 128.894631,163.680705 128.894631,164.014411 L128.798417,166.48917 Z" id="Fill-159" fill="#1A1919"></path>
            <path d="M155.906792,182.763312 C158.766494,182.763312 159.480083,182.669875 160.623964,182.573768 C160.623964,181.28967 160.623964,179.575759 158.766494,178.625366 C157.95669,178.195554 157.192321,178.195554 156.764702,178.195554 C153.667137,178.195554 151.905881,180.907911 151.285833,182.715259 C152.809226,182.715259 154.380726,182.763312 155.906792,182.763312 L155.906792,182.763312 Z M164.149149,184.05008 C163.146917,184.239625 152.998982,184.095464 150.903649,184.143518 C150.810107,184.907036 150.762,185.523723 150.762,186.239187 C150.762,191.808062 154.19097,195.422759 158.050232,195.422759 C159.669839,195.422759 162.243571,194.52042 164.101042,192.758455 C164.149149,192.665018 164.576768,192.235205 164.672982,192.235205 C164.862738,192.235205 165.386571,192.806509 165.386571,192.899946 C165.386571,193.092161 162.481435,198.18317 156.430625,198.18317 C151.093405,198.18317 146.758417,194.328205 146.758417,187.950429 C146.758417,180.384661 151.713452,176.484312 156.764702,176.484312 C162.053815,176.484312 164.435119,180.002902 164.435119,182.384223 C164.435119,182.955527 164.338905,183.430723 164.149149,184.002027 L164.149149,184.05008 Z" id="Fill-160" fill="#1A1919"></path>
            <path d="M209.599708,195.804518 C209.599708,196.183607 209.359173,196.183607 208.645583,196.183607 C208.217964,196.183607 208.073643,196.042116 207.12219,195.091723 C206.83622,194.899509 206.691899,194.758018 206.405929,194.758018 C205.930202,194.758018 205.548018,194.995616 204.740887,195.56692 C202.78453,196.802964 199.783179,198.516875 194.828143,198.516875 C185.014286,198.516875 177.677946,190.903054 177.677946,181.28967 C177.677946,171.580179 184.966179,163.015964 194.87625,163.015964 C199.403667,163.015964 202.308804,164.727205 203.452685,165.44267 C203.738655,165.584161 205.024185,166.63333 205.358262,166.63333 C205.548018,166.63333 205.740446,166.48917 205.882095,166.345009 L206.929762,165.346562 C207.215732,165.060911 207.311946,165.060911 208.217964,165.060911 C208.597476,165.060911 208.597476,165.205071 208.597476,165.44267 L208.549369,169.060036 C208.549369,171.153036 208.597476,172.009991 208.789905,173.95883 L208.883446,174.770402 C208.883446,175.149491 208.741798,175.149491 208.12175,175.149491 C207.456268,175.149491 207.408161,174.959946 207.311946,174.532804 C207.074083,173.865393 206.26428,171.486741 204.976077,169.583286 C202.501232,166.011304 198.021923,164.775259 195.258435,164.775259 C192.591161,164.775259 189.493595,165.917866 187.350155,168.05892 C185.348363,169.962375 183.349244,173.723902 183.349244,179.479652 C183.349244,188.332188 187.205833,196.423875 196.068238,196.423875 C198.07003,196.423875 201.023274,196.042116 203.738655,193.615411 C205.644232,191.9015 206.929762,189.381357 208.025536,184.621384 C208.073643,184.191571 208.169857,184.191571 208.838012,184.191571 C209.40728,184.191571 209.551601,184.191571 209.551601,184.669437 L209.503494,187.333741 L209.455387,191.757339 C209.455387,192.758455 209.455387,193.47125 209.551601,194.661911 L209.599708,195.804518 Z" id="Fill-161" fill="#1A1919"></path>
            <path d="M215.981923,187.237634 C215.981923,194.042554 219.507107,196.802964 222.556565,196.802964 C226.033643,196.802964 229.227423,193.663464 229.227423,187.237634 C229.227423,181.28967 226.322286,177.482759 222.414917,177.672304 C218.935167,177.816464 215.981923,181.100125 215.981923,187.237634 M228.273298,177.768411 C231.560619,179.623813 233.468869,183.52683 233.468869,187.144196 C233.468869,197.707973 223.844768,198.18317 222.65278,198.18317 C215.458089,198.18317 211.695042,192.899946 211.695042,187.18958 C211.695042,180.907911 216.222458,176.671187 222.032732,176.340152 C224.178845,176.195991 226.36772,176.671187 228.273298,177.768411" id="Fill-162" fill="#1A1919"></path>
            <path d="M241.47069,166.822875 C241.329042,171.913884 241.329042,183.241179 241.329042,188.807384 C241.329042,189.998045 241.329042,193.804955 241.663119,194.565804 C241.994524,195.422759 242.328601,195.518866 244.520149,196.09017 C244.854226,196.183607 244.902333,196.279714 244.95044,196.517312 C244.95044,197.518429 244.95044,197.611866 244.616363,197.611866 C243.234619,197.518429 241.804768,197.422321 239.851083,197.422321 C237.993613,197.422321 236.181577,197.518429 234.324107,197.611866 C233.944595,197.611866 233.944595,197.518429 233.944595,196.471929 C233.944595,196.183607 234.038137,196.138223 234.84794,195.994062 C237.611429,195.326652 237.611429,195.281268 237.611429,188.332188 L237.611429,175.149491 C237.611429,173.246036 237.517887,169.820884 237.517887,169.060036 C237.328131,166.441116 237.231917,166.441116 234.372214,166.441116 C234.038137,166.441116 234.038137,166.299625 234.038137,166.107411 L234.038137,165.346563 C234.086244,165.012857 234.182458,165.012857 234.564643,164.964804 C235.943714,164.871366 237.087595,164.585714 238.851524,164.158571 C239.231036,164.110518 241.040399,163.632652 241.232827,163.632652 C241.566905,163.632652 241.566905,163.776812 241.566905,164.062464 L241.47069,166.822875 Z" id="Fill-163" fill="#1A1919"></path>
            <path d="M252.142458,166.822875 C252.00081,171.913884 252.00081,183.241179 252.00081,188.807384 C252.00081,189.998045 252.00081,193.804955 252.332214,194.565804 C252.666292,195.422759 253.000369,195.518866 255.191917,196.09017 C255.525994,196.183607 255.574101,196.279714 255.622208,196.517312 C255.622208,197.518429 255.622208,197.611866 255.288131,197.611866 C253.906387,197.518429 252.476536,197.422321 250.522851,197.422321 C248.665381,197.422321 246.856018,197.518429 244.995875,197.611866 C244.616363,197.611866 244.616363,197.518429 244.616363,196.471929 C244.616363,196.183607 244.709905,196.138223 245.519708,195.994062 C248.283196,195.326652 248.283196,195.281268 248.283196,188.332188 L248.283196,175.149491 C248.283196,173.246036 248.189655,169.820884 248.189655,169.060036 C247.997226,166.441116 247.903685,166.441116 245.043982,166.441116 C244.709905,166.441116 244.709905,166.299625 244.709905,166.107411 L244.709905,165.346563 C244.758012,165.012857 244.854226,165.012857 245.236411,164.964804 C246.615482,164.871366 247.759363,164.585714 249.523292,164.158571 C249.902804,164.110518 251.714839,163.632652 251.904595,163.632652 C252.238673,163.632652 252.238673,163.776812 252.238673,164.062464 L252.142458,166.822875 Z" id="Fill-164" fill="#1A1919"></path>
            <path d="M265.150095,182.763312 C268.009798,182.763312 268.723387,182.669875 269.864595,182.573768 C269.864595,181.28967 269.864595,179.575759 268.009798,178.625366 C267.199994,178.195554 266.435625,178.195554 266.008006,178.195554 C262.91044,178.195554 261.149185,180.907911 260.529137,182.715259 C262.05253,182.715259 263.626702,182.763312 265.150095,182.763312 L265.150095,182.763312 Z M273.392452,184.05008 C272.392893,184.239625 262.242286,184.095464 260.146952,184.143518 C260.053411,184.907036 260.005304,185.523723 260.005304,186.239187 C260.005304,191.808062 263.434274,195.422759 267.293536,195.422759 C268.915815,195.422759 271.486875,194.52042 273.344345,192.758455 C273.392452,192.665018 273.820071,192.235205 273.916286,192.235205 C274.106042,192.235205 274.632548,192.806509 274.632548,192.899946 C274.632548,193.092161 271.724738,198.18317 265.673929,198.18317 C260.336708,198.18317 256.00172,194.328205 256.00172,187.950429 C256.00172,180.384661 260.959429,176.484312 266.008006,176.484312 C271.297119,176.484312 273.678423,180.002902 273.678423,182.384223 C273.678423,182.955527 273.582208,183.430723 273.392452,184.002027 L273.392452,184.05008 Z" id="Fill-165" fill="#1A1919"></path>
            <path d="M280.060637,184.05008 C280.060637,188.569786 282.348399,189.80583 284.157762,189.80583 C287.779161,189.80583 288.447315,185.61983 288.447315,183.337286 C288.447315,182.432277 288.302994,177.528143 284.253976,177.62425 C282.062429,177.672304 280.060637,179.575759 280.060637,184.05008 L280.060637,184.05008 Z M287.20722,195.041 C290.256679,195.041 291.876286,195.281268 293.068274,196.138223 C295.449577,197.80408 295.831762,200.561821 295.831762,202.038134 C295.831762,207.366741 291.494101,210.556964 284.967565,210.556964 C278.537244,210.556964 275.439679,207.366741 275.439679,204.227241 C275.439679,200.802089 278.203167,199.75292 279.061077,199.75292 C279.347048,199.75292 279.443262,199.849027 279.678452,199.945134 C279.109185,201.037018 278.727,201.800536 278.727,203.132688 C278.727,207.844607 282.824125,208.939161 285.539506,208.939161 C289.350661,208.939161 293.068274,207.366741 293.068274,203.180741 C293.068274,199.325777 289.82906,199.088179 289.06469,199.040125 C288.25756,198.992071 287.731054,198.992071 282.968446,198.992071 C281.252625,198.992071 276.773315,198.992071 276.773315,195.185161 C276.773315,192.328643 279.918988,190.996491 281.29806,190.427857 C280.301173,190.139536 278.916756,189.616286 277.72744,188.284134 C276.105161,186.428732 276.011619,184.714821 276.011619,183.860536 C276.011619,178.577313 280.822333,176.150607 284.491839,176.150607 C287.779161,176.150607 289.206339,177.434705 290.208571,178.339714 C291.494101,177.338598 293.209923,176.006446 295.1155,176.006446 C296.069625,176.006446 297.785446,176.436259 297.785446,177.816464 C297.785446,178.67075 296.641565,179.71992 295.879869,179.71992 C295.591226,179.71992 295.259821,179.575759 294.973851,179.386214 C293.82997,178.577313 293.592107,178.433152 292.827738,178.433152 C292.017935,178.433152 291.734637,178.625366 290.876726,179.19667 C291.780071,180.195116 292.400119,182.002464 292.400119,183.52683 C292.400119,185.286125 291.68653,186.951982 290.494542,188.23608 C288.874935,189.949991 286.873143,190.569348 284.588054,190.855 C283.871792,190.951107 283.20631,190.996491 282.490048,191.140652 C281.918107,191.236759 279.536804,191.853446 279.536804,193.377813 C279.536804,194.899509 281.252625,195.091723 283.110095,195.091723 L287.20722,195.041 Z" id="Fill-166" fill="#1A1919"></path>
            <path d="M305.739161,182.763312 C308.598863,182.763312 309.315125,182.669875 310.456333,182.573768 C310.456333,181.28967 310.456333,179.575759 308.598863,178.625366 C307.78906,178.195554 307.027363,178.195554 306.597071,178.195554 C303.499506,178.195554 301.73825,180.907911 301.118202,182.715259 C302.641595,182.715259 304.215768,182.763312 305.739161,182.763312 L305.739161,182.763312 Z M313.981518,184.05008 C312.981958,184.239625 302.834024,184.095464 300.73869,184.143518 C300.642476,184.907036 300.594369,185.523723 300.594369,186.239187 C300.594369,191.808062 304.026012,195.422759 307.882601,195.422759 C309.504881,195.422759 312.07594,194.52042 313.933411,192.758455 C313.981518,192.665018 314.41181,192.235205 314.508024,192.235205 C314.69778,192.235205 315.221613,192.806509 315.221613,192.899946 C315.221613,193.092161 312.313804,198.18317 306.262994,198.18317 C300.928446,198.18317 296.593458,194.328205 296.593458,187.950429 C296.593458,180.384661 301.548494,176.484312 306.597071,176.484312 C311.886185,176.484312 314.267488,180.002902 314.267488,182.384223 C314.267488,182.955527 314.173946,183.430723 313.981518,184.002027 L313.981518,184.05008 Z" id="Fill-167" fill="#1A1919"></path>
            <path d="M331.703655,191.997607 C331.703655,194.613857 333.561125,195.660357 335.039083,195.660357 C335.80078,195.660357 336.610583,195.422759 337.660923,194.947562 C339.611935,194.042554 339.611935,193.47125 339.660042,192.854562 C339.756256,189.570902 339.756256,189.189143 339.804363,185.905482 C334.80122,187.571339 331.703655,189.044982 331.703655,191.997607 L331.703655,191.997607 Z M347.378565,195.091723 C347.616429,195.091723 348.140262,195.804518 348.140262,195.994062 C348.140262,196.138223 348.092155,196.183607 347.47478,196.661473 C346.568762,197.326214 345.61731,197.897518 344.043137,197.897518 C341.565619,197.897518 340.183875,196.61342 339.756256,195.281268 C336.279179,197.184723 334.51525,198.089732 332.468024,198.089732 C330.084048,198.089732 327.702744,196.423875 327.702744,193.804955 C327.702744,188.380241 335.611024,185.809375 339.85247,184.477223 L339.900577,182.811366 C339.900577,180.76642 339.756256,178.195554 335.80078,178.195554 C334.133065,178.195554 332.419917,178.814911 331.896083,180.288554 C331.751762,180.811804 331.751762,181.335054 331.513899,181.81292 C331.131714,182.525714 330.559774,182.85942 329.798077,182.85942 C328.656869,182.85942 328.034149,181.95708 328.034149,181.100125 C328.034149,178.766857 331.08628,176.671187 336.468935,176.671187 C343.663625,176.671187 343.663625,180.384661 343.663625,182.621821 C343.663625,183.337286 343.473869,191.092598 343.473869,192.187152 C343.473869,193.519304 343.473869,195.756464 345.61731,195.756464 C346.141143,195.756464 346.520655,195.56692 346.806625,195.422759 L347.378565,195.091723 Z" id="Fill-168" fill="#1A1919"></path>
            <path d="M353.525589,177.816464 L359.004458,177.816464 C359.386643,177.816464 359.432077,177.861848 359.480185,178.195554 C359.480185,179.242054 359.480185,179.386214 359.052565,179.386214 L353.525589,179.386214 C353.381268,183.716375 353.285054,186.380679 353.285054,188.999598 C353.285054,191.853446 353.285054,195.233214 356.430726,195.233214 C357.622714,195.233214 358.338976,194.758018 359.242321,194.138661 C359.386643,193.99717 359.480185,193.901063 359.66994,193.901063 C359.955911,193.901063 360.386202,194.376259 360.386202,194.613857 C360.386202,194.947563 358.384411,197.945571 354.477042,197.945571 C349.428464,197.945571 349.428464,193.663464 349.428464,191.044545 C349.428464,188.569786 349.666327,182.098571 349.759869,179.386214 L348.33269,179.386214 C347.902399,179.386214 347.808857,179.338161 347.808857,179.004455 C347.808857,178.051393 347.808857,177.957955 348.33269,177.720357 C349.759869,176.863402 350.665887,175.864955 352.047631,173.200652 C352.143845,173.056491 352.429815,172.343696 352.571464,172.247589 C352.715786,172.058045 353.239619,171.913884 353.381268,171.913884 C353.525589,171.913884 353.525589,172.058045 353.525589,172.247589 L353.525589,177.816464 Z" id="Fill-169" fill="#1A1919"></path>
            <path d="M8.23122619,288.878946 C6.15192857,287.779054 4.94123214,286.655134 4.94123214,284.409964 C4.94123214,282.50117 6.34168452,280.488259 8.80316667,280.488259 C9.84281548,280.488259 10.5858036,280.888705 11.0722202,281.209062 C11.200506,281.315848 11.2432679,281.337205 11.326119,281.337205 C11.4757857,281.337205 11.5399286,281.251777 11.7296845,280.912732 C11.8365893,280.720518 11.8793512,280.720518 12.2187738,280.720518 C12.3657679,280.741875 12.3657679,280.805946 12.3871488,281.23042 L12.4726726,284.06825 C12.4726726,284.196393 12.4299107,284.196393 12.301625,284.21775 C11.8365893,284.21775 11.7724464,284.21775 11.7296845,283.985491 L11.6655417,283.475589 C11.4544048,282.098054 10.4575179,281.209062 9.05706548,281.209062 C7.14881548,281.209062 6.53144048,282.629312 6.53144048,283.625089 C6.53144048,284.132321 6.61696429,284.853125 7.40271429,285.573929 C7.82766071,285.977045 8.14570238,286.169259 9.94704762,287.100964 C11.8579702,288.094071 13.5550833,288.985732 13.5550833,291.401759 C13.5550833,293.582857 11.7938274,296.041598 9.12120833,296.041598 C7.7421369,296.041598 6.74525,295.448937 6.10916667,295.003107 C5.93811905,294.877634 5.8338869,294.813562 5.72698214,294.813562 C5.53722619,294.813562 5.38755952,295.067179 5.23789286,295.406223 C5.19780357,295.574411 5.15504167,295.598437 5.005375,295.598437 C4.51895833,295.598437 4.47619643,295.598437 4.47619643,295.42758 C4.47619643,295.003107 4.51895833,292.862054 4.51895833,292.376179 L4.49757738,291.380402 C4.49757738,291.230902 4.55904762,291.230902 4.64457143,291.230902 C4.837,291.230902 5.17642262,291.230902 5.2165119,291.252259 C5.23789286,291.273616 5.30203571,291.655375 5.32341667,291.866277 C5.66283929,294.389089 7.35995238,295.088536 8.73902381,295.088536 C10.4575179,295.088536 11.6013988,293.796429 11.6013988,292.458937 C11.6013988,290.809098 10.5430417,290.088295 9.33234524,289.45025 L8.23122619,288.878946 Z" id="Fill-170" fill="#1A1919"></path>
            <path d="M32.9636429,286.564366 C32.9636429,286.713866 32.9288988,286.713866 32.5600774,286.713866 C32.4424821,286.713866 32.4424821,286.679161 32.359631,286.361473 C31.9721012,285.053348 31.8384702,284.586161 27.6959107,284.51675 L27.6959107,292.896759 C27.6959107,294.840259 28.0460238,294.957723 29.3556071,295.091205 C29.6415774,295.107223 29.6736488,295.107223 29.6923571,295.259393 C29.6923571,295.694545 29.6923571,295.745268 29.5239821,295.745268 C28.7355595,295.72925 27.9471369,295.710562 27.1587143,295.694545 C26.185881,295.694545 25.1970119,295.710562 24.221506,295.745268 C24.1065833,295.745268 24.087875,295.678527 24.0718393,295.609116 C24.0718393,295.173964 24.0718393,295.125911 24.2402143,295.091205 C25.6647202,294.941705 26.017506,294.840259 26.05225,293.182411 C26.0843214,291.556598 26.0682857,286.545679 26.0682857,284.551455 C25.4295298,284.535438 23.5693869,284.51675 22.5297381,284.869143 C21.7065714,285.154795 21.5889762,285.573929 21.3056786,286.596402 C21.2709345,286.713866 21.2361905,286.713866 20.9021131,286.713866 C20.7845179,286.713866 20.7845179,286.679161 20.7684821,286.596402 L20.7684821,285.891616 C20.7684821,285.405741 20.7684821,284.837107 20.7845179,284.351232 C20.7845179,284.167027 20.7845179,283.897393 21.1533393,283.897393 C21.33775,283.897393 21.6905357,283.998839 27.4446845,283.998839 C32.2580714,283.998839 32.359631,283.897393 32.5761131,283.897393 C32.9449345,283.897393 32.9449345,284.014857 32.9636429,284.938554 L32.9636429,286.564366 Z" id="Fill-171" fill="#1A1919"></path>
            <path d="M41.4839524,286.260027 L39.7066607,290.683625 C40.2438571,290.750366 41.3342857,290.750366 41.4331726,290.750366 C42.0051131,290.750366 42.5904167,290.71833 43.1623571,290.683625 L41.4839524,286.260027 Z M43.1276131,295.259393 C43.1463214,295.141929 43.1623571,295.107223 43.3120238,295.107223 C44.1512262,295.107223 44.4879762,294.989759 44.4879762,294.487866 C44.4879762,294.303661 44.4371964,294.138143 44.3864167,293.969955 C44.1351905,293.249152 43.6995536,292.14392 43.4483274,291.439134 C42.7587917,291.423116 42.0719286,291.388411 41.3850655,291.388411 C40.7302738,291.388411 40.1583333,291.407098 39.4046548,291.439134 C39.1855,292.007768 38.9690179,292.563054 38.7658988,293.11567 C38.6322679,293.465393 38.3970774,294.103438 38.3970774,294.38642 C38.3970774,294.773518 38.5814881,295.008446 39.353875,295.091205 C39.6211369,295.125911 39.655881,295.141929 39.655881,295.275411 C39.655881,295.710563 39.6398452,295.745268 39.5062143,295.745268 C38.9342738,295.72925 38.3302619,295.72925 37.7422857,295.710563 C37.1569821,295.710563 36.5529702,295.710563 35.964994,295.745268 C35.796619,295.745268 35.796619,295.710563 35.796619,295.275411 C35.796619,295.141929 35.8153274,295.125911 35.9489583,295.107223 C37.1730179,294.925688 37.1890536,294.925688 38.4157857,291.975732 L41.6015476,284.06558 C41.7351786,283.731875 41.7351786,283.713188 42.0211488,283.713188 C42.2403036,283.713188 42.2563393,283.782598 42.3578988,284.06558 L45.8617024,293.230464 C46.2305238,294.204884 46.2813036,294.354384 46.4149345,294.589313 C46.5833095,294.890982 46.6688333,295.040482 47.5721786,295.125911 C47.6897738,295.125911 47.7245179,295.141929 47.7245179,295.291429 C47.7245179,295.710563 47.7245179,295.745268 47.5721786,295.745268 C47.0697262,295.72925 46.5672738,295.710563 46.0648214,295.710563 C45.1240595,295.710563 44.202006,295.72925 43.261244,295.745268 C43.1276131,295.745268 43.1276131,295.678527 43.1276131,295.609116 L43.1276131,295.259393 Z" id="Fill-172" fill="#1A1919"></path>
            <path d="M63.0573333,286.564366 C63.0573333,286.713866 63.0225893,286.713866 62.6537679,286.713866 C62.5361726,286.713866 62.5361726,286.679161 62.4533214,286.361473 C62.0657917,285.053348 61.9321607,284.586161 57.7896012,284.51675 L57.7896012,292.896759 C57.7896012,294.840259 58.1423869,294.957723 59.4492976,295.091205 C59.7352679,295.107223 59.7673393,295.107223 59.7860476,295.259393 C59.7860476,295.694545 59.7860476,295.745268 59.6176726,295.745268 C58.82925,295.72925 58.0408274,295.710562 57.2524048,295.694545 C56.2795714,295.694545 55.2907024,295.710562 54.3151964,295.745268 C54.2002738,295.745268 54.1815655,295.678527 54.1655298,295.609116 C54.1655298,295.173964 54.1655298,295.125911 54.3339048,295.091205 C55.7584107,294.941705 56.1111964,294.840259 56.1459405,293.182411 C56.1780119,291.556598 56.1619762,286.545679 56.1619762,284.551455 C55.5232202,284.535438 53.6630774,284.51675 52.6234286,284.869143 C51.8002619,285.154795 51.6826667,285.573929 51.3966964,286.596402 C51.364625,286.713866 51.329881,286.713866 50.9958036,286.713866 C50.8782083,286.713866 50.8782083,286.679161 50.8621726,286.596402 L50.8621726,285.891616 C50.8621726,285.405741 50.8621726,284.837107 50.8782083,284.351232 C50.8782083,284.167027 50.8782083,283.897393 51.2470298,283.897393 C51.4314405,283.897393 51.7842262,283.998839 57.538375,283.998839 C62.3517619,283.998839 62.4533214,283.897393 62.6698036,283.897393 C63.038625,283.897393 63.038625,284.014857 63.0573333,284.938554 L63.0573333,286.564366 Z" id="Fill-173" fill="#1A1919"></path>
            <path d="M71.660494,289.159259 C73.0716369,289.175277 73.42175,289.175277 73.8413512,288.892295 C74.060506,288.742795 74.5629583,288.222214 74.6137381,287.215759 C74.6137381,287.066259 74.6297738,287.047571 74.7660774,287.047571 C75.1669702,287.047571 75.21775,287.047571 75.21775,287.215759 C75.21775,287.971268 75.2017143,288.708089 75.1856786,289.463598 C75.1856786,290.216438 75.1856786,290.953259 75.21775,291.706098 C75.21775,291.823563 75.2017143,291.84225 75.1001548,291.874286 C74.6645179,291.874286 74.6137381,291.874286 74.6137381,291.69008 C74.5629583,291.153482 74.4293274,290.566161 74.060506,290.147027 C73.6756488,289.711875 73.4912381,289.711875 71.660494,289.679839 L71.660494,293.096982 C71.6792024,294.706777 72.0640595,295.157946 74.5629583,295.157946 C76.2413631,295.157946 76.9629702,294.706777 77.3986071,292.627125 C77.4333512,292.509661 77.4493869,292.477625 77.5830179,292.477625 C78.0186548,292.477625 78.0694345,292.477625 78.0694345,292.645813 C78.0694345,292.728571 77.9358036,295.040482 77.8529524,295.408893 C77.7674286,295.745268 77.6845774,295.745268 77.01375,295.745268 C76.1237679,295.745268 71.7620536,295.694545 70.7731845,295.694545 C70.4364345,295.694545 68.7607024,295.745268 68.391881,295.745268 C68.2555774,295.745268 68.2555774,295.694545 68.2555774,295.609116 C68.2555774,295.173964 68.2555774,295.125911 68.4239524,295.125911 C69.5972321,295.05917 69.9339821,294.773518 69.9847619,293.331911 C70.0355417,291.975732 70.0355417,289.762598 70.0355417,288.187509 C70.0355417,284.754348 70.0007976,284.66892 68.391881,284.535438 C68.2903214,284.51675 68.2555774,284.51675 68.2555774,284.401955 C68.2555774,283.966804 68.2555774,283.913411 68.4079167,283.913411 C69.247119,283.932098 70.1023571,283.932098 70.9415595,283.932098 C71.4760833,283.932098 74.1273214,283.913411 74.7313333,283.913411 L76.6609643,283.913411 C76.810631,283.913411 76.979006,283.932098 77.0645298,284.084268 C77.1634167,284.284491 77.2810119,285.977045 77.2810119,286.227991 C77.2810119,286.377491 77.2489405,286.396179 77.1313452,286.412196 C76.7625238,286.412196 76.7277798,286.412196 76.677,286.260027 C76.2761071,285.03733 76.0729881,284.468696 73.1705238,284.468696 C72.636,284.468696 72.2484702,284.500732 71.660494,284.535438 L71.660494,289.159259 Z" id="Fill-174" fill="#1A1919"></path>
            <path d="M95.3158452,286.105187 C95.3158452,282.247554 95.3158452,281.67625 93.5118274,281.569464 C93.1296429,281.52675 93.086881,281.52675 93.086881,281.337205 C93.086881,280.827304 93.086881,280.784589 93.2793095,280.784589 C93.3220714,280.784589 95.9733095,280.848661 96.4811071,280.848661 C96.9060536,280.848661 99.0067321,280.784589 99.4958214,280.784589 C99.6428155,280.784589 99.6641964,280.805946 99.6855774,280.934089 C99.6855774,281.484036 99.6855774,281.52675 99.4744405,281.548107 C98.285125,281.654893 97.5848988,281.718964 97.4566131,283.561018 C97.4165238,284.345893 97.3951429,287.247795 97.3951429,287.672268 C97.3951429,288.900304 97.3951429,291.062714 97.6704226,292.165277 C98.1996012,294.260946 100.257518,295.152607 102.061536,295.152607 C103.312321,295.152607 104.437494,294.749491 105.009435,294.367732 C105.263333,294.199545 105.92347,293.689643 106.345744,292.608437 C106.877595,291.252259 106.877595,290.849143 106.877595,285.128098 C106.877595,283.0965 106.877595,282.629312 106.516792,282.119411 C106.19875,281.654893 105.731042,281.612179 105.244625,281.569464 C104.819679,281.548107 104.776917,281.52675 104.755536,281.37725 C104.755536,280.827304 104.755536,280.784589 104.966673,280.784589 C105.645518,280.784589 106.345744,280.784589 107.024589,280.805946 C107.978714,280.784589 108.935512,280.784589 109.889637,280.784589 C110.079393,280.784589 110.079393,280.827304 110.100774,280.934089 C110.100774,281.462679 110.100774,281.52675 109.889637,281.548107 C108.978274,281.590821 108.256667,281.654893 108.000095,282.776143 C107.767577,283.814634 107.853101,289.092518 107.788958,290.277839 C107.682054,291.99442 107.449536,296.212455 101.36131,296.212455 C99.8138631,296.212455 97.7131845,295.934812 96.4811071,294.578634 C95.3158452,293.350598 95.3158452,292.693866 95.3158452,288.03267 L95.3158452,286.105187 Z" id="Fill-175" fill="#1A1919"></path>
            <path d="M119.094137,285.589946 L119.094137,292.645812 C119.094137,294.119455 119.078101,295.024464 120.705726,295.141929 C120.839357,295.141929 120.855393,295.157946 120.855393,295.291429 C120.855393,295.694545 120.855393,295.745268 120.705726,295.745268 L120.687018,295.745268 C119.88256,295.710563 119.430887,295.694545 118.340458,295.694545 C117.653595,295.694545 116.996131,295.72925 116.779649,295.745268 C116.646018,295.745268 116.629982,295.72925 116.611274,295.609116 C116.611274,295.192652 116.611274,295.141929 116.779649,295.125911 C118.289679,294.907 118.32175,294.487866 118.356494,292.261384 L118.356494,285.138777 C118.137339,284.88783 117.819298,284.51675 116.795685,284.51675 C116.646018,284.51675 116.629982,284.484714 116.629982,284.351232 C116.629982,283.966804 116.629982,283.913411 116.763613,283.913411 L118.540905,283.913411 L119.599262,283.913411 C119.866524,283.913411 119.917304,283.966804 120.368976,284.51675 C121.176107,285.541893 121.24025,285.608634 121.846935,286.428214 C122.317315,287.047571 124.663875,290.064268 125.201071,290.750366 C125.652744,291.353705 126.374351,292.328125 126.828696,292.912777 L126.812661,291.823563 C126.812661,291.070723 126.895512,287.415982 126.895512,286.580384 C126.895512,285.154795 126.660321,284.570143 125.334702,284.500732 C125.166327,284.500732 125.134256,284.484714 125.134256,284.351232 C125.134256,283.948116 125.134256,283.913411 125.283923,283.913411 C125.938714,283.932098 126.593506,283.932098 127.248298,283.948116 C127.919125,283.932098 128.573917,283.913411 129.226036,283.913411 C129.378375,283.913411 129.378375,283.982821 129.378375,284.097616 C129.378375,284.468696 129.378375,284.51675 129.175256,284.535438 C128.437613,284.602179 127.900417,284.652902 127.716006,285.541893 C127.51556,286.513643 127.51556,291.337688 127.51556,292.693866 C127.51556,293.500098 127.531595,294.170179 127.566339,294.840259 C127.582375,295.075188 127.617119,295.443598 127.617119,295.662509 C127.617119,295.913455 127.480815,296.046937 127.296405,296.046937 C127.029143,296.046937 126.978363,295.945491 126.844732,295.761286 C126.2915,294.856277 125.636708,294.001991 124.965881,293.166393 L120.890137,287.95258 C120.486571,287.450688 119.548482,286.193286 119.414851,286.027768 L119.094137,285.589946 Z" id="Fill-176" fill="#1A1919"></path>
            <path d="M135.867494,284.551455 C135.517381,284.535438 135.482637,284.535438 135.482637,284.36725 C135.482637,283.966804 135.482637,283.913411 135.616268,283.913411 C135.867494,283.913411 138.01628,283.982821 138.385101,283.982821 C139.005149,283.982821 140.330768,283.913411 140.565958,283.913411 C140.699589,283.913411 140.699589,283.966804 140.699589,284.417973 C140.683554,284.535438 140.667518,284.551455 140.483107,284.551455 C139.809607,284.602179 139.65994,284.652902 139.47553,284.786384 C138.922298,285.221536 138.922298,285.624652 138.922298,288.136786 C138.922298,292.410884 138.938333,292.896759 138.973077,293.398652 C139.039893,294.941705 139.577089,295.040482 140.549923,295.125911 C140.683554,295.141929 140.699589,295.157946 140.715625,295.275411 C140.715625,295.710563 140.715625,295.745268 140.549923,295.745268 C140.213173,295.745268 138.53744,295.694545 138.165946,295.694545 C137.310708,295.710563 136.439435,295.72925 135.584196,295.745268 C135.447893,295.745268 135.447893,295.694545 135.447893,295.275411 C135.466601,295.157946 135.466601,295.125911 135.634976,295.107223 C136.725405,295.05917 137.161042,294.805554 137.227857,293.582857 C137.259929,293.080964 137.278637,290.534125 137.278637,289.74658 C137.278637,289.025777 137.278637,285.758134 137.110262,285.288277 C136.909815,284.66892 136.439435,284.602179 135.867494,284.551455" id="Fill-177" fill="#1A1919"></path>
            <path d="M150.313,287.43467 C151.152202,289.511652 152.00744,291.607321 152.745083,293.665616 C153.097869,292.9635 153.616357,291.807545 153.953107,291.102759 C154.63997,289.679839 155.243982,288.238232 155.847994,286.729884 C156.04844,286.260027 156.283631,285.656687 156.283631,285.205518 C156.283631,284.586161 155.746435,284.551455 155.377613,284.51675 C155.209238,284.51675 155.193202,284.500732 155.177167,284.351232 C155.177167,283.948116 155.177167,283.913411 155.345542,283.913411 C155.596768,283.932098 156.703232,283.932098 156.786083,283.932098 C157.32328,283.932098 158.178518,283.897393 158.699679,283.913411 C158.849345,283.913411 158.849345,283.966804 158.849345,284.36725 C158.849345,284.401955 158.849345,284.452679 158.817274,284.484714 C158.801238,284.500732 158.49656,284.535438 158.49656,284.535438 C157.456911,284.66892 156.922387,285.910304 156.719268,286.361473 C155.428393,289.394188 155.278726,289.730563 154.372708,291.655375 C154.169589,292.090527 153.148649,294.23692 152.913458,294.722795 C152.643524,295.326134 152.592744,295.424911 152.408333,295.793321 C152.290738,296.012232 152.274702,296.046938 152.125036,296.046938 C151.871137,296.046938 151.855101,295.980196 151.654655,295.459616 C150.697857,292.779295 148.56778,287.669598 148.132143,286.679161 C147.477351,285.256241 147.15931,284.551455 146.018101,284.51675 C145.88447,284.51675 145.865762,284.500732 145.865762,284.385937 C145.865762,283.966804 145.865762,283.913411 145.999393,283.913411 C147.092494,283.966804 148.198958,283.948116 149.289387,283.948116 C149.858655,283.948116 150.430595,283.932098 150.999863,283.913411 C151.152202,283.913411 151.152202,283.982821 151.152202,284.36725 C151.152202,284.500732 151.082714,284.500732 150.983827,284.500732 C150.462667,284.535438 149.725024,284.570143 149.725024,285.573929 C149.725024,285.961027 149.842619,286.260027 150.313,287.43467" id="Fill-178" fill="#1A1919"></path>
            <path d="M167.305512,289.159259 C168.713982,289.175277 169.066768,289.175277 169.486369,288.892295 C169.702851,288.742795 170.205304,288.222214 170.256083,287.215759 C170.256083,287.066259 170.274792,287.047571 170.408423,287.047571 C170.809315,287.047571 170.860095,287.047571 170.860095,287.215759 C170.860095,287.971268 170.84406,288.708089 170.828024,289.463598 C170.828024,290.216438 170.828024,290.953259 170.860095,291.706098 C170.860095,291.823563 170.84406,291.84225 170.7425,291.874286 C170.306863,291.874286 170.256083,291.874286 170.256083,291.69008 C170.205304,291.153482 170.071673,290.566161 169.702851,290.147027 C169.317994,289.711875 169.133583,289.711875 167.305512,289.679839 L167.305512,293.096982 C167.321548,294.706777 167.706405,295.157946 170.205304,295.157946 C171.883708,295.157946 172.605315,294.706777 173.040952,292.627125 C173.075696,292.509661 173.091732,292.477625 173.225363,292.477625 C173.661,292.477625 173.71178,292.477625 173.71178,292.645813 C173.71178,292.728571 173.578149,295.040482 173.495298,295.408893 C173.409774,295.745268 173.326923,295.745268 172.656095,295.745268 C171.766113,295.745268 167.404399,295.694545 166.41553,295.694545 C166.07878,295.694545 164.403048,295.745268 164.034226,295.745268 C163.897923,295.745268 163.897923,295.694545 163.897923,295.609116 C163.897923,295.173964 163.897923,295.125911 164.066298,295.125911 C165.24225,295.05917 165.576327,294.773518 165.627107,293.331911 C165.677887,291.975732 165.677887,289.762598 165.677887,288.187509 C165.677887,284.754348 165.643143,284.66892 164.034226,284.535438 C163.932667,284.51675 163.897923,284.51675 163.897923,284.401955 C163.897923,283.966804 163.897923,283.913411 164.050262,283.913411 C164.889464,283.932098 165.744702,283.932098 166.583905,283.932098 C167.121101,283.932098 169.769667,283.913411 170.373679,283.913411 L172.30331,283.913411 C172.455649,283.913411 172.621351,283.932098 172.706875,284.084268 C172.805762,284.284491 172.923357,285.977045 172.923357,286.227991 C172.923357,286.377491 172.891286,286.396179 172.77369,286.412196 C172.404869,286.412196 172.370125,286.412196 172.319345,286.260027 C171.91578,285.03733 171.715333,284.468696 168.812869,284.468696 C168.278345,284.468696 167.890815,284.500732 167.305512,284.535438 L167.305512,289.159259 Z" id="Fill-179" fill="#1A1919"></path>
            <path d="M183.843679,289.813321 C184.2125,289.864045 184.581321,289.880063 184.952815,289.880063 C187.048149,289.880063 187.988911,288.692071 187.988911,287.149018 C187.988911,286.428214 187.70294,285.608634 187.216524,285.104071 C186.628548,284.51675 185.757274,284.417973 184.934107,284.417973 C184.565286,284.417973 184.281988,284.433991 183.843679,284.468696 L183.843679,289.813321 Z M180.438762,295.310116 C180.438762,295.173964 180.473506,295.157946 180.591101,295.157946 C181.983536,295.091205 182.200018,294.706777 182.200018,293.331911 C182.218726,292.125232 182.218726,290.181732 182.218726,286.46292 C182.218726,284.786384 181.697565,284.535438 180.874399,284.51675 C180.524286,284.500732 180.489542,284.500732 180.473506,284.351232 C180.473506,283.932098 180.473506,283.913411 180.641881,283.913411 C181.010702,283.913411 182.80403,283.948116 183.207595,283.948116 L185.388452,283.913411 C186.494917,283.913411 187.41697,284.033545 188.173321,284.500732 C188.777333,284.88783 189.766202,285.726098 189.766202,287.215759 C189.766202,287.971268 189.480232,288.438455 189.381345,288.590625 C188.777333,289.495634 187.954167,289.762598 186.679327,290.114991 C187.082893,290.619554 189.095375,292.982188 189.346601,293.281188 C190.872667,295.157946 190.923446,295.157946 191.931024,295.157946 C192.08069,295.157946 192.096726,295.20867 192.096726,295.609116 C192.064655,295.745268 192.045946,295.745268 191.8455,295.745268 C191.359083,295.745268 190.872667,295.72925 190.38625,295.72925 C190.017429,295.72925 189.648607,295.745268 189.279786,295.745268 C189.196935,295.745268 189.16219,295.72925 189.095375,295.643821 C188.758625,295.275411 186.361286,292.074509 185.824089,291.407098 C185.000923,290.381955 184.952815,290.299196 183.843679,290.315214 C183.843679,291.188188 183.811607,292.579071 183.827643,293.449375 C183.859714,294.722795 184.31406,295.125911 185.43656,295.157946 C185.556827,295.157946 185.572863,295.173964 185.588899,295.291429 C185.588899,295.694545 185.588899,295.745268 185.455268,295.745268 C184.632101,295.694545 183.811607,295.694545 182.98844,295.678527 C182.183982,295.678527 181.39556,295.72925 180.591101,295.745268 C180.45747,295.745268 180.438762,295.72925 180.438762,295.609116 L180.438762,295.310116 Z" id="Fill-180" fill="#1A1919"></path>
            <path d="M200.670488,290.315214 C199.026827,289.444911 198.07003,288.55592 198.07003,286.780607 C198.07003,285.272259 199.176494,283.681152 201.122161,283.681152 C201.945327,283.681152 202.530631,283.998839 202.918161,284.249786 C203.01972,284.332545 203.051792,284.351232 203.118607,284.351232 C203.236202,284.351232 203.286982,284.284491 203.436649,284.014857 C203.522173,283.865357 203.554244,283.865357 203.824179,283.865357 C203.939101,283.881375 203.939101,283.932098 203.95781,284.268473 L204.024625,286.513643 C204.024625,286.61242 203.992554,286.61242 203.890994,286.628438 C203.522173,286.628438 203.471393,286.628438 203.436649,286.444232 L203.385869,286.043786 C203.220167,284.954571 202.431744,284.249786 201.322607,284.249786 C199.812577,284.249786 199.328833,285.373705 199.328833,286.16125 C199.328833,286.564366 199.395649,287.133 200.015696,287.704304 C200.349774,288.019321 200.601,288.171491 202.028179,288.908313 C203.538208,289.695857 204.879863,290.400643 204.879863,292.309438 C204.879863,294.036696 203.487429,295.980196 201.373387,295.980196 C200.282958,295.980196 199.494536,295.510339 198.992083,295.157946 C198.858452,295.05917 198.775601,295.008446 198.690077,295.008446 C198.540411,295.008446 198.420143,295.20867 198.30522,295.478304 C198.270476,295.609116 198.238405,295.627804 198.12081,295.627804 C197.73328,295.627804 197.698536,295.627804 197.698536,295.494321 C197.698536,295.157946 197.73328,293.465393 197.73328,293.080964 L197.717244,292.29342 C197.717244,292.175955 197.768024,292.175955 197.834839,292.175955 C197.987179,292.175955 198.25444,292.175955 198.286512,292.191973 C198.30522,292.210661 198.356,292.509661 198.372036,292.677848 C198.639298,294.672071 199.980952,295.224688 201.071381,295.224688 C202.431744,295.224688 203.335089,294.204884 203.335089,293.147705 C203.335089,291.84225 202.49856,291.270946 201.541762,290.769054 L200.670488,290.315214 Z" id="Fill-181" fill="#1A1919"></path>
            <path d="M212.360524,284.551455 C212.010411,284.535438 211.975667,284.535438 211.975667,284.36725 C211.975667,283.966804 211.975667,283.913411 212.109298,283.913411 C212.360524,283.913411 214.50931,283.982821 214.878131,283.982821 C215.498179,283.982821 216.823798,283.913411 217.058988,283.913411 C217.192619,283.913411 217.192619,283.966804 217.192619,284.417973 C217.173911,284.535438 217.157875,284.551455 216.973464,284.551455 C216.302637,284.602179 216.15297,284.652902 215.96856,284.786384 C215.412655,285.221536 215.412655,285.624652 215.412655,288.136786 C215.412655,292.410884 215.431363,292.896759 215.463435,293.398652 C215.532923,294.941705 216.070119,295.040482 217.04028,295.125911 C217.173911,295.141929 217.192619,295.157946 217.208655,295.275411 C217.208655,295.710563 217.208655,295.745268 217.04028,295.745268 C216.706202,295.745268 215.027798,295.694545 214.658976,295.694545 C213.803738,295.710563 212.932464,295.72925 212.077226,295.745268 C211.940923,295.745268 211.940923,295.694545 211.940923,295.275411 C211.959631,295.157946 211.959631,295.125911 212.125333,295.107223 C213.218435,295.05917 213.651399,294.805554 213.720887,293.582857 C213.752958,293.080964 213.771667,290.534125 213.771667,289.74658 C213.771667,289.025777 213.771667,285.758134 213.603292,285.288277 C213.400173,284.66892 212.932464,284.602179 212.360524,284.551455" id="Fill-182" fill="#1A1919"></path>
            <path d="M234.420321,286.564366 C234.420321,286.713866 234.38825,286.713866 234.016756,286.713866 C233.899161,286.713866 233.899161,286.679161 233.81631,286.361473 C233.431452,285.053348 233.297821,284.586161 229.152589,284.51675 L229.152589,292.896759 C229.152589,294.840259 229.505375,294.957723 230.812286,295.091205 C231.098256,295.107223 231.133,295.107223 231.149036,295.259393 C231.149036,295.694545 231.149036,295.745268 230.980661,295.745268 C230.192238,295.72925 229.403815,295.710562 228.615393,295.694545 C227.64256,295.694545 226.65369,295.710562 225.680857,295.745268 C225.563262,295.745268 225.547226,295.678527 225.528518,295.609116 C225.528518,295.173964 225.528518,295.125911 225.696893,295.091205 C227.121399,294.941705 227.476857,294.840259 227.508929,293.182411 C227.541,291.556598 227.524964,286.545679 227.524964,284.551455 C226.888881,284.535438 225.026065,284.51675 223.986417,284.869143 C223.16325,285.154795 223.045655,285.573929 222.762357,286.596402 C222.727613,286.713866 222.695542,286.713866 222.358792,286.713866 C222.241196,286.713866 222.241196,286.679161 222.225161,286.596402 L222.225161,285.891616 C222.225161,285.405741 222.225161,284.837107 222.241196,284.351232 C222.241196,284.167027 222.241196,283.897393 222.610018,283.897393 C222.794429,283.897393 223.147214,283.998839 228.901363,283.998839 C233.71475,283.998839 233.81631,283.897393 234.032792,283.897393 C234.401613,283.897393 234.401613,284.014857 234.420321,284.938554 L234.420321,286.564366 Z" id="Fill-183" fill="#1A1919"></path>
            <path d="M245.543762,290.098973 C246.145101,289.044464 247.101899,287.317205 247.721946,286.244009 C248.074732,285.608634 248.224399,285.357688 248.224399,285.122759 C248.224399,284.551455 247.318381,284.535438 247.18475,284.535438 C247.051119,284.535438 247.051119,284.484714 247.051119,284.049563 C247.051119,283.948116 247.067155,283.913411 247.18475,283.913411 C248.023952,283.913411 248.847119,283.932098 249.686321,283.932098 C249.972292,283.932098 250.255589,283.913411 250.54156,283.913411 C250.691226,283.913411 250.691226,283.966804 250.707262,284.06558 C250.707262,284.468696 250.707262,284.51675 250.54156,284.535438 C249.753137,284.602179 249.381643,284.954571 248.913935,285.64067 C248.713488,285.891616 246.059577,290.619554 245.909911,290.902536 L245.909911,293.182411 C245.909911,294.856277 246.179845,294.973741 247.874286,295.107223 C248.023952,295.107223 248.023952,295.157946 248.023952,295.609116 C248.023952,295.678527 248.023952,295.745268 247.890321,295.745268 C247.019048,295.710563 246.129065,295.710563 245.255119,295.710563 C244.284958,295.710563 243.312125,295.72925 242.336619,295.745268 C242.202988,295.745268 242.202988,295.694545 242.202988,295.57708 C242.202988,295.141929 242.202988,295.091205 242.371363,295.091205 C244.250214,295.024464 244.26625,294.60533 244.26625,292.896759 L244.26625,291.052036 L243.763798,290.147027 C243.175821,289.108536 242.272476,287.43467 241.700536,286.377491 C240.861333,284.853125 240.527256,284.634214 239.704089,284.535438 C239.538387,284.51675 239.538387,284.468696 239.538387,284.049563 C239.538387,283.932098 239.538387,283.913411 239.65331,283.913411 C240.409661,283.932098 241.163339,283.932098 241.917018,283.932098 C242.740185,283.932098 243.563351,283.932098 244.383845,283.913411 C244.517476,283.913411 244.517476,283.982821 244.517476,284.033545 L244.517476,284.36725 C244.517476,284.51675 244.485405,284.51675 244.383845,284.535438 C243.696982,284.586161 243.09297,284.652902 243.09297,285.205518 C243.09297,285.49117 243.312125,285.875598 243.512571,286.244009 L245.543762,290.098973 Z" id="Fill-184" fill="#1A1919"></path>
            <path d="M266.93006,289.781286 C266.93006,293.751045 269.241875,295.408893 271.088655,295.408893 C273.555482,295.408893 275.29803,292.947482 275.29803,289.946804 C275.29803,287.904527 274.661946,286.478937 273.841452,285.523205 C273.403143,285.021312 272.465054,284.116304 270.92028,284.21775 C268.640536,284.332545 266.93006,286.580384 266.93006,289.781286 M277.363964,289.89608 C277.363964,293.516116 274.627202,296.03092 271.072619,296.03092 C268.068595,296.03092 264.834726,293.951268 264.834726,289.762598 C264.834726,286.00908 267.801333,283.646446 271.123399,283.630429 C274.277089,283.630429 277.363964,285.856911 277.363964,289.89608" id="Fill-185" fill="#1A1919"></path>
            <path d="M291.788089,283.913411 C291.924393,283.913411 292.07406,283.913411 292.175619,284.06558 C292.325286,284.300509 292.424173,286.193286 292.424173,286.396179 C292.424173,286.513643 292.376065,286.529661 292.274506,286.545679 C291.924393,286.545679 291.889649,286.545679 291.854905,286.396179 C291.486083,284.919866 290.932851,284.484714 288.03306,284.484714 C287.613458,284.484714 287.30878,284.51675 286.822363,284.551455 L286.822363,289.562375 C287.862012,289.578393 288.466024,289.562375 288.837518,289.394187 C289.356006,289.143241 289.724827,288.590625 289.794315,287.634893 C289.810351,287.501411 289.826387,287.485393 289.943982,287.466705 C290.344875,287.466705 290.395655,287.466705 290.395655,287.58417 C290.395655,287.920545 290.328839,289.495634 290.328839,289.864045 C290.344875,290.550143 290.344875,291.238911 290.363583,291.925009 C290.363583,292.074509 290.328839,292.074509 290.229952,292.090527 C289.842423,292.090527 289.794315,292.090527 289.775607,291.941027 C289.759571,291.756821 289.743536,291.588634 289.658012,291.32167 C289.257119,290.098973 288.449988,290.082955 286.806327,290.082955 L286.806327,293.147705 C286.873143,294.538589 286.958667,295.024464 288.348429,295.091205 C288.735958,295.125911 288.786738,295.125911 288.821482,295.243375 C288.821482,295.694545 288.802774,295.745268 288.653107,295.745268 C287.763125,295.710562 286.891851,295.694545 285.999196,295.694545 C285.649083,295.694545 283.903863,295.745268 283.519006,295.745268 C283.420119,295.745268 283.401411,295.72925 283.385375,295.609116 C283.385375,295.173964 283.385375,295.125911 283.569786,295.125911 C284.62547,295.125911 284.860661,294.741482 284.959548,294.487866 C285.143958,294.052714 285.178702,293.550821 285.178702,288.457143 C285.178702,284.703625 285.162667,284.703625 283.569786,284.51675 C283.401411,284.51675 283.401411,284.468696 283.401411,284.033545 C283.401411,283.897393 283.468226,283.897393 283.535042,283.897393 L283.55375,283.897393 C284.123018,283.948116 287.057554,283.948116 287.9315,283.948116 L290.697661,283.913411 L291.788089,283.913411 Z" id="Fill-186" fill="#1A1919"></path>
            <path d="M310.052768,282.904286 L310.052768,291.826232 C310.052768,293.689643 310.03406,294.83492 312.089304,294.98175 C312.260351,294.98175 312.281732,295.003107 312.281732,295.173964 C312.281732,295.681196 312.281732,295.745268 312.089304,295.745268 L312.067923,295.745268 C311.052327,295.702554 310.477714,295.681196 309.098643,295.681196 C308.230042,295.681196 307.40153,295.723911 307.12625,295.745268 C306.957875,295.745268 306.936494,295.723911 306.915113,295.574411 C306.915113,295.045821 306.915113,294.98175 307.12625,294.960393 C309.0345,294.68542 309.077262,294.15683 309.120024,291.337687 L309.120024,282.332982 C308.844744,282.015295 308.441179,281.548107 307.147631,281.548107 C306.957875,281.548107 306.936494,281.505393 306.936494,281.337205 C306.936494,280.848661 306.936494,280.784589 307.104869,280.784589 L309.355214,280.784589 L310.691524,280.784589 C311.030946,280.784589 311.095089,280.848661 311.664357,281.548107 C312.685298,282.840214 312.768149,282.925643 313.532518,283.964134 C314.128512,284.749009 317.097792,288.561259 317.773964,289.428893 C318.348577,290.192411 319.25994,291.423116 319.834554,292.165277 L319.813173,290.785071 C319.813173,289.832009 319.917405,285.213527 319.917405,284.153679 C319.917405,282.35167 319.620744,281.612179 317.947685,281.52675 C317.731202,281.52675 317.691113,281.505393 317.691113,281.337205 C317.691113,280.827304 317.691113,280.784589 317.880869,280.784589 C318.709381,280.805946 319.537893,280.805946 320.363732,280.827304 C321.213625,280.805946 322.039464,280.784589 322.867976,280.784589 C323.057732,280.784589 323.057732,280.870018 323.057732,281.019518 C323.057732,281.484036 323.057732,281.548107 322.803833,281.569464 C321.871089,281.654893 321.192244,281.718964 320.959726,282.840214 C320.703155,284.06825 320.703155,290.171054 320.703155,291.890304 C320.703155,292.904768 320.724536,293.753714 320.764625,294.599991 C320.788679,294.896321 320.83144,295.363509 320.83144,295.638482 C320.83144,295.95617 320.660393,296.127027 320.427875,296.127027 C320.088452,296.127027 320.02431,295.998884 319.855935,295.766625 C319.153036,294.621348 318.327196,293.540143 317.477304,292.482964 L312.324494,285.891616 C311.814024,285.256241 310.627381,283.667804 310.456333,283.454232 L310.052768,282.904286 Z" id="Fill-187" fill="#1A1919"></path>
            <path d="M332.965131,289.159259 C334.373601,289.175277 334.723714,289.175277 335.143315,288.892295 C335.36247,288.742795 335.867595,288.222214 335.918375,287.215759 C335.918375,287.066259 335.934411,287.047571 336.068042,287.047571 C336.471607,287.047571 336.519714,287.047571 336.519714,287.215759 C336.519714,287.971268 336.503679,288.708089 336.487643,289.463598 C336.487643,290.216438 336.487643,290.953259 336.519714,291.706098 C336.519714,291.823563 336.503679,291.84225 336.402119,291.874286 C335.966482,291.874286 335.918375,291.874286 335.918375,291.69008 C335.867595,291.153482 335.731292,290.566161 335.36247,290.147027 C334.977613,289.711875 334.793202,289.711875 332.965131,289.679839 L332.965131,293.096982 C332.981167,294.706777 333.366024,295.157946 335.867595,295.157946 C337.546,295.157946 338.264935,294.706777 338.700571,292.627125 C338.735315,292.509661 338.751351,292.477625 338.884982,292.477625 C339.320619,292.477625 339.371399,292.477625 339.371399,292.645813 C339.371399,292.728571 339.237768,295.040482 339.154917,295.408893 C339.069393,295.745268 338.986542,295.745268 338.315714,295.745268 C337.425732,295.745268 333.064018,295.694545 332.075149,295.694545 C331.741071,295.694545 330.062667,295.745268 329.693845,295.745268 C329.560214,295.745268 329.560214,295.694545 329.560214,295.609116 C329.560214,295.173964 329.560214,295.125911 329.725917,295.125911 C330.901869,295.05917 331.235946,294.773518 331.286726,293.331911 C331.337506,291.975732 331.337506,289.762598 331.337506,288.187509 C331.337506,284.754348 331.305435,284.66892 329.693845,284.535438 C329.592286,284.51675 329.560214,284.51675 329.560214,284.401955 C329.560214,283.966804 329.560214,283.913411 329.709881,283.913411 C330.551756,283.932098 331.404321,283.932098 332.243524,283.932098 C332.78072,283.932098 335.431958,283.913411 336.033298,283.913411 L337.965601,283.913411 C338.115268,283.913411 338.283643,283.932098 338.366494,284.084268 C338.465381,284.284491 338.585649,285.977045 338.585649,286.227991 C338.585649,286.377491 338.550905,286.396179 338.430637,286.412196 C338.064488,286.412196 338.029744,286.412196 337.981637,286.260027 C337.578071,285.03733 337.377625,284.468696 334.475161,284.468696 C333.937964,284.468696 333.550435,284.500732 332.965131,284.535438 L332.965131,289.159259 Z" id="Fill-188" fill="#1A1919"></path>
            <path d="M357.320708,293.532134 C357.505119,292.982187 357.68953,292.445589 357.889976,291.890304 C358.159911,291.121446 358.461917,290.365937 358.729179,289.594411 C358.897554,289.159259 359.886423,286.444232 359.886423,285.541893 C359.886423,284.551455 358.729179,284.51675 358.344321,284.500732 C358.194655,284.500732 358.194655,284.452679 358.194655,284.049563 C358.194655,283.948116 358.194655,283.913411 358.344321,283.913411 C358.646327,283.913411 360.054798,283.948116 360.375512,283.948116 C361.043667,283.948116 361.698458,283.932098 362.369286,283.913411 C362.521625,283.913411 362.521625,283.966804 362.521625,284.084268 C362.521625,284.468696 362.521625,284.500732 362.369286,284.51675 C361.043667,284.634214 360.877964,285.173482 360.525179,286.211973 C359.803571,288.457143 359.049893,290.667607 358.194655,292.862054 C357.889976,293.684304 357.807125,293.868509 357.187077,295.609116 C357.037411,296.062955 357.018702,296.113679 356.850327,296.113679 C356.532286,296.113679 356.363911,295.846714 356.297095,295.561062 C356.013798,294.338366 355.727827,293.465393 355.273482,292.109214 C353.998643,288.355696 353.830268,287.819098 353.464119,286.61242 C353.261,287.317205 353.060554,288.019321 352.841399,288.708089 C352.507321,289.797304 350.695286,294.874964 350.526911,295.510339 C350.39328,296.03092 350.377244,296.081643 350.192833,296.081643 C350.123345,296.081643 350.05653,296.062955 349.973679,296.012232 C349.738488,295.913455 349.636929,295.828027 349.522006,295.342152 C349.401738,294.907 349.286815,294.405107 348.83247,292.9635 C348.297946,291.270946 347.726006,289.594411 347.172774,287.904527 C347.004399,287.349241 346.819988,286.796625 346.635577,286.260027 C346.215976,285.03733 345.930006,284.570143 344.991917,284.535438 C344.689911,284.51675 344.655167,284.51675 344.655167,284.401955 C344.655167,283.966804 344.655167,283.913411 344.807506,283.913411 C345.630673,283.948116 346.451167,283.966804 347.274333,283.966804 C347.608411,283.966804 349.302851,283.913411 349.687708,283.913411 C349.840048,283.913411 349.840048,283.966804 349.840048,284.36725 C349.821339,284.51675 349.789268,284.51675 349.636929,284.51675 C349.236036,284.51675 348.412869,284.535438 348.412869,285.507188 C348.412869,285.891616 348.549173,286.345455 348.615988,286.61242 C348.88325,287.58417 350.29172,292.328125 350.57769,293.398652 C351.334042,291.254929 351.919345,289.562375 352.491286,287.787062 C352.92425,286.396179 353.343851,285.053348 353.613786,284.300509 C353.814232,283.763911 353.830268,283.713188 353.982607,283.713188 C354.150982,283.713188 354.167018,283.747893 354.199089,283.881375 C354.773702,285.891616 355.928274,289.009759 356.56703,290.987964 C356.716696,291.439134 356.850327,291.906321 356.986631,292.378848 L357.320708,293.532134 Z" id="Fill-189" fill="#1A1919"></path>
            <path d="M384.503917,288.603973 C385.268286,287.269152 386.47631,285.088054 387.26206,283.729205 C387.708387,282.925643 387.898143,282.607955 387.898143,282.308955 C387.898143,281.590821 386.754262,281.569464 386.583214,281.569464 C386.412167,281.569464 386.412167,281.505393 386.412167,280.955446 C386.412167,280.827304 386.433548,280.784589 386.583214,280.784589 C387.644244,280.784589 388.683893,280.805946 389.744923,280.805946 C390.105726,280.805946 390.46653,280.784589 390.824661,280.784589 C391.017089,280.784589 391.017089,280.848661 391.035798,280.976804 C391.035798,281.484036 391.035798,281.548107 390.824661,281.569464 C389.830446,281.654893 389.360065,282.098054 388.766744,282.965687 C388.515518,283.286045 385.161381,289.260705 384.968952,289.621107 L384.968952,292.504321 C384.968952,294.621348 385.311048,294.770848 387.451815,294.939036 C387.644244,294.939036 387.644244,295.003107 387.644244,295.574411 C387.644244,295.659839 387.644244,295.745268 387.473196,295.745268 C386.369405,295.702554 385.244232,295.702554 384.145786,295.702554 C382.913708,295.702554 381.681631,295.723911 380.452226,295.745268 C380.283851,295.745268 380.283851,295.681196 380.283851,295.534366 C380.283851,294.98175 380.283851,294.920348 380.494988,294.920348 C382.870946,294.83492 382.892327,294.303661 382.892327,292.14392 L382.892327,289.813321 L382.253571,288.668045 C381.513256,287.351911 380.366702,285.234884 379.647768,283.900062 C378.586738,281.97258 378.161792,281.697607 377.122143,281.569464 C376.911006,281.548107 376.911006,281.484036 376.911006,280.955446 C376.911006,280.805946 376.911006,280.784589 377.058,280.784589 C378.012125,280.805946 378.96625,280.805946 379.923048,280.805946 C380.962696,280.805946 381.999673,280.805946 383.039321,280.784589 C383.210369,280.784589 383.210369,280.870018 383.210369,280.934089 L383.210369,281.355893 C383.210369,281.548107 383.167607,281.548107 383.039321,281.569464 C382.17072,281.630866 381.406351,281.718964 381.406351,282.418411 C381.406351,282.776143 381.681631,283.264687 381.93553,283.729205 L384.503917,288.603973 Z" id="Fill-190" fill="#1A1919"></path>
            <path d="M400.055887,289.781286 C400.055887,293.751045 402.370375,295.408893 404.217155,295.408893 C406.68131,295.408893 408.42653,292.947482 408.42653,289.946804 C408.42653,287.904527 407.790446,286.478937 406.969952,285.523205 C406.531643,285.021312 405.590881,284.116304 404.04878,284.21775 C401.769036,284.332545 400.055887,286.580384 400.055887,289.781286 M410.492464,289.89608 C410.492464,293.516116 407.755702,296.03092 404.201119,296.03092 C401.197095,296.03092 397.960554,293.951268 397.960554,289.762598 C397.960554,286.00908 400.929833,283.646446 404.251899,283.630429 C407.405589,283.630429 410.492464,285.856911 410.492464,289.89608" id="Fill-191" fill="#1A1919"></path>
            <path d="M419.868012,289.813321 C420.236833,289.864045 420.605655,289.880063 420.977149,289.880063 C423.072482,289.880063 424.010571,288.692071 424.010571,287.149018 C424.010571,286.428214 423.727274,285.608634 423.240857,285.104071 C422.650208,284.51675 421.781607,284.417973 420.95844,284.417973 C420.589619,284.417973 420.303649,284.433991 419.868012,284.468696 L419.868012,289.813321 Z M416.463095,295.310116 C416.463095,295.173964 416.497839,295.157946 416.615435,295.157946 C418.005196,295.091205 418.224351,294.706777 418.224351,293.331911 C418.24306,292.125232 418.24306,290.181732 418.24306,286.46292 C418.24306,284.786384 417.721899,284.535438 416.898732,284.51675 C416.548619,284.500732 416.513875,284.500732 416.497839,284.351232 C416.497839,283.932098 416.497839,283.913411 416.663542,283.913411 C417.035036,283.913411 418.828363,283.948116 419.231929,283.948116 L421.410113,283.913411 C422.51925,283.913411 423.441304,284.033545 424.194982,284.500732 C424.798994,284.88783 425.787863,285.726098 425.787863,287.215759 C425.787863,287.971268 425.504565,288.438455 425.403006,288.590625 C424.798994,289.495634 423.9785,289.762598 422.703661,290.114991 C423.104554,290.619554 425.119708,292.982188 425.368262,293.281188 C426.897,295.157946 426.94778,295.157946 427.952685,295.157946 C428.105024,295.157946 428.12106,295.20867 428.12106,295.609116 C428.086315,295.745268 428.07028,295.745268 427.869833,295.745268 C427.383417,295.745268 426.897,295.72925 426.410583,295.72925 C426.041762,295.72925 425.67294,295.745268 425.304119,295.745268 C425.218595,295.745268 425.183851,295.72925 425.119708,295.643821 C424.782958,295.275411 422.385619,292.074509 421.84575,291.407098 C421.025256,290.381955 420.977149,290.299196 419.868012,290.315214 C419.868012,291.188188 419.83594,292.579071 419.851976,293.449375 C419.88672,294.722795 420.338393,295.125911 421.460893,295.157946 C421.581161,295.157946 421.597196,295.173964 421.613232,295.291429 C421.613232,295.694545 421.613232,295.745268 421.476929,295.745268 C420.656435,295.694545 419.83594,295.694545 419.012774,295.678527 C418.208315,295.678527 417.419893,295.72925 416.615435,295.745268 C416.479131,295.745268 416.463095,295.72925 416.463095,295.609116 L416.463095,295.310116 Z" id="Fill-192" fill="#1A1919"></path>
            <path d="M435.401274,287.383946 C435.401274,285.272259 435.401274,284.551455 433.840464,284.535438 C433.690798,284.51675 433.674762,284.51675 433.640018,284.36725 C433.640018,283.966804 433.640018,283.913411 433.824429,283.913411 C434.612851,283.948116 435.419982,283.948116 436.208405,283.948116 C437.028899,283.948116 437.833357,283.932098 438.653851,283.913411 C438.822226,283.913411 438.822226,283.966804 438.822226,284.36725 C438.822226,284.500732 438.771446,284.500732 438.637815,284.51675 C437.950952,284.551455 437.229345,284.618196 437.044935,285.792839 C436.978119,286.260027 436.994155,289.629116 436.994155,290.432679 C438.453405,288.756143 439.076125,288.054027 440.26544,286.377491 C440.786601,285.656688 441.021792,285.34167 441.021792,285.005295 C441.021792,284.51675 440.551411,284.51675 440.230696,284.51675 C440.08103,284.51675 440.064994,284.500732 440.048958,284.36725 C440.048958,283.966804 440.064994,283.913411 440.147845,283.913411 C440.869452,283.913411 442.010661,283.932098 442.729595,283.932098 C442.99953,283.932098 443.269464,283.913411 443.536726,283.913411 C443.670357,283.913411 443.670357,283.966804 443.670357,284.332545 C443.670357,284.484714 443.619577,284.484714 443.352315,284.51675 C442.494405,284.618196 442.21378,284.919866 441.305089,286.16125 C440.516667,287.250464 439.712208,288.304973 438.891714,289.343464 C439.410202,289.864045 439.931363,290.400643 440.449851,290.934571 L442.179036,292.779295 C444.089958,294.789536 444.426708,295.107223 445.383506,295.125911 C445.517137,295.125911 445.533173,295.157946 445.551881,295.291429 C445.551881,295.694545 445.551881,295.745268 445.396869,295.745268 C444.375929,295.694545 443.352315,295.678527 442.328702,295.678527 C441.689946,295.694545 441.053863,295.710563 440.41778,295.745268 C440.26544,295.72925 440.26544,295.678527 440.26544,295.259393 C440.26544,295.157946 440.300185,295.141929 440.401744,295.125911 C440.786601,295.125911 441.473464,295.125911 441.473464,294.60533 C441.473464,294.303661 441.240946,294.052714 440.802637,293.566839 C440.249405,292.9635 440.03025,292.728571 439.477018,292.159938 C438.236923,290.86783 438.103292,290.734348 437.817321,290.734348 C437.68369,290.734348 437.614202,290.734348 436.994155,291.489857 L436.994155,292.998205 C436.994155,294.538589 437.197274,294.973741 438.421333,295.125911 C438.771446,295.157946 438.80619,295.157946 438.80619,295.310116 C438.80619,295.710563 438.80619,295.745268 438.653851,295.745268 C437.648946,295.745268 436.644042,295.694545 435.620429,295.694545 C435.016417,295.694545 434.409732,295.710563 433.808393,295.745268 C433.640018,295.745268 433.640018,295.694545 433.640018,295.291429 C433.640018,295.141929 433.656054,295.141929 433.840464,295.141929 C434.19325,295.141929 434.695702,294.989759 434.880113,294.874964 C435.401274,294.554607 435.401274,293.801768 435.401274,292.862054 L435.401274,287.383946 Z" id="Fill-193" fill="#1A1919"></path>
            <path d="M277.585792,49.8284464 C274.726089,87.4090089 262.146071,109.388179 249.713048,122.218482 C242.638625,129.509277 235.580238,133.852786 230.309833,136.370259 C227.677304,137.627661 225.491101,138.431223 223.978399,138.914429 C223.222048,139.154696 222.634071,139.317545 222.241196,139.418991 C222.169036,139.437679 222.10222,139.456366 222.043423,139.469714 C219.67281,138.887732 206.125304,135.080821 192.935929,120.880991 C180.919833,107.933223 169.082804,86.3144554 166.30328,50.2689375 C206.849583,27.5796429 255.76653,35.4978036 277.585792,49.8284464" id="Fill-194" fill="#F6BF35"></path>
            <path d="M270.289542,88.5089018 C270.709143,87.2755268 271.107363,86.0341429 271.484202,84.78475 L235.526786,85.3667321 L274.293125,73.2839286 C274.442792,72.5177411 274.58444,71.7515536 274.718071,70.9800268 L235.606964,81.1246696 L276.508726,55.8217946 C276.586232,54.6097768 276.653048,53.3977589 276.703827,52.1830714 L232.022982,76.6930625 L230.186893,83.6955357 L230.186893,86.3651786 L235.195381,90.5378304 L270.289542,88.5089018 Z" id="Fill-195" fill="#FFFFFE"></path>
            <path d="M167.439143,58.6569554 L205.809935,77.8383393 L169.499732,72.8594554 C169.79372,74.3250893 170.111762,75.7827143 170.453857,77.2323304 L208.73378,84.0078839 L173.244071,87.1607321 C173.944298,89.2937768 174.711339,91.3947857 175.534506,93.4610893 L207.974756,92.1129196 L179.356351,101.907839 C179.735863,102.64733 180.123393,103.381482 180.51894,104.107625 L210.374768,95.5834554 L210.225101,95.6688839 L210.230446,95.6822321 L185.468631,112.135241 C186.12075,113.074955 186.791577,114.001321 187.481113,114.909 L210.850494,101.235089 L213.210417,136.372929 C214.838042,137.176491 216.511101,137.932 218.232268,138.628777 L222.032732,139.795411 L223.564143,139.20542 C226.097786,138.161589 228.521851,137.029661 230.844357,135.817643 L233.182899,101.38192 L255.945595,115.242705 C256.442702,114.615339 256.937137,113.979964 257.415536,113.33925 L233.495595,96.7767857 L233.530339,96.2748929 L262.865006,105.050009 C263.263226,104.355902 263.653429,103.659125 264.03294,102.954339 L233.190917,91.8699821 L230.400702,93.7280536 L221.238964,89.0481696 L220.185952,89.9318214 L214.816661,93.0232679 L212.240256,72.1279732 L166.974107,52.2097679 C167.081012,54.3641696 167.238696,56.5132321 167.439143,58.6569554" id="Fill-196" fill="#FFFFFE"></path>
            <path d="M183.482875,71.0440982 L183.482875,71.0494375 L183.482875,71.0440982 Z" id="Fill-197" fill="#1C1B19"></path>
            <path d="M165.159399,21.0069821 L278.764417,21.0069821 C278.724327,20.5264464 278.681565,20.013875 278.638804,19.4639286 L278.510518,17.8701518 L278.5025,17.8701518 L277.730113,8.65721429 L166.073435,8.65721429 L165.402607,18.070375 L165.40528,18.070375 L165.290357,19.4585893 C165.244923,20.0112054 165.199488,20.5237768 165.159399,21.0069821" id="Fill-198" fill="#004D38"></path>
            <path d="M248.662708,121.254741 C241.855548,128.393366 235.064423,132.643438 229.994464,135.110187 C229.542792,135.329098 229.109827,135.529321 228.687554,135.718866 C228.965506,128.134411 229.884887,102.919634 229.890232,102.935652 C236.253738,100.015062 240.668905,93.6372857 240.668905,86.2370357 C240.668905,82.3233393 239.431482,78.6952946 237.328131,75.7133036 C233.009179,77.1629196 227.768173,78.0145357 222.115583,78.0145357 C216.441613,78.0145357 211.187244,77.1549107 206.857601,75.6972857 C204.746232,78.6819464 203.503464,82.3153304 203.503464,86.2370357 C203.503464,93.5758839 207.849143,99.9136161 214.129798,102.866241 L215.230917,135.668143 C209.746702,133.177366 201.827732,128.481464 194.031702,119.946616 C182.681089,107.503411 171.506869,86.8697411 168.572333,52.7410268 C186.564405,42.9888214 201.269155,38.3089375 221.589077,38.3089375 C241.166012,38.3089375 258.473893,43.3278661 275.271304,52.8825179 C272.168393,88.1485 260.352744,108.982393 248.662708,121.254741 L248.662708,121.254741 Z M165.041804,22.3364643 C164.574095,27.5342589 164.35494,28.9198036 164.35494,34.8170446 C164.341577,82.0083214 178.485077,108.811536 192.815661,123.708143 C207.135554,138.610089 221.476827,141.568054 221.695982,141.613437 L222.043423,141.682848 L222.390863,141.613437 C222.610018,141.568054 236.903185,138.599411 251.172298,123.638732 C265.449429,108.683393 279.542149,81.7787321 279.526113,34.3952411 C279.526113,28.6261429 279.317649,27.3500536 278.879339,22.3364643 L165.041804,22.3364643 Z" id="Fill-199" fill="#004D38"></path>
            <polygon id="Fill-200" fill="#FFFFFE" points="172.188387 12.8485536 170.651631 12.8485536 170.651631 11.8874821 173.709107 11.4256339 173.709107 18.6790536 172.188387 18.6790536"></polygon>
            <path d="M200.726613,12.7097321 C200.445988,12.7097321 200.266923,12.7524464 200.168036,12.8352054 C200.069149,12.9339821 200.02906,13.0995 200.02906,13.3637946 L200.02906,13.7268661 C200.02906,13.9911607 200.069149,14.1593482 200.168036,14.2447768 C200.266923,14.3408839 200.445988,14.3835982 200.726613,14.3835982 L204.09144,14.3835982 C204.35603,14.3835982 204.537768,14.3408839 204.636655,14.258125 C204.732869,14.1593482 204.775631,13.9911607 204.775631,13.7268661 L204.775631,13.3637946 C204.775631,13.0995 204.732869,12.9179643 204.636655,12.8352054 C204.537768,12.7524464 204.35603,12.7097321 204.09144,12.7097321 L200.726613,12.7097321 Z M200.560911,15.5555714 C200.277613,15.5555714 200.098548,15.5956161 200.013024,15.6810446 C199.91681,15.7638036 199.87672,15.9453393 199.87672,16.2096339 L199.87672,16.7408929 C199.87672,17.0051875 199.91681,17.173375 199.999661,17.2561339 C200.098548,17.3388929 200.277613,17.3816071 200.560911,17.3816071 L204.24378,17.3816071 C204.521732,17.3816071 204.706143,17.3388929 204.788994,17.2561339 C204.885208,17.173375 204.92797,17.0051875 204.92797,16.7408929 L204.92797,16.2096339 C204.92797,15.9453393 204.885208,15.7638036 204.788994,15.6810446 C204.706143,15.5956161 204.521732,15.5555714 204.24378,15.5555714 L200.560911,15.5555714 Z M205.962274,11.7753571 C206.184101,11.9835893 206.296351,12.3466607 206.296351,12.8912679 L206.296351,13.5453304 C206.296351,13.9644643 206.197464,14.2714732 205.989,14.482375 C205.780536,14.6906071 205.430423,14.8427768 204.914607,14.9415536 C205.446458,14.9976161 205.836661,15.1497857 206.087887,15.3740357 C206.339113,15.6116339 206.464726,15.9453393 206.464726,16.3778214 L206.464726,17.1306607 C206.464726,17.7153125 206.339113,18.1210982 206.074524,18.3426786 C205.820625,18.5669286 205.360935,18.6790536 204.706143,18.6790536 L200.098548,18.6790536 C199.441083,18.6790536 198.994756,18.5669286 198.74353,18.3426786 C198.47894,18.1344464 198.353327,17.7153125 198.353327,17.1306607 L198.353327,16.3778214 C198.353327,15.9453393 198.47894,15.6116339 198.730167,15.3740357 C198.981393,15.1497857 199.371595,14.9976161 199.887411,14.9415536 C199.387631,14.8427768 199.024155,14.6906071 198.813018,14.482375 C198.604554,14.2714732 198.505667,13.9511161 198.505667,13.5453304 L198.505667,12.8912679 C198.505667,12.3466607 198.617917,11.9835893 198.839744,11.7753571 C199.064244,11.5804732 199.510571,11.4816964 200.152,11.4816964 L204.650018,11.4816964 C205.291446,11.4816964 205.737774,11.5804732 205.962274,11.7753571 L205.962274,11.7753571 Z" id="Fill-201" fill="#FFFFFE"></path>
            <path d="M235.628345,18.3853929 C235.406518,18.1771607 235.294268,17.8140893 235.294268,17.2694821 L235.294268,16.6848304 L236.774899,16.3778214 L236.774899,17.3816071 L240.655542,17.3816071 C240.933494,17.3816071 241.115232,17.3388929 241.214119,17.2561339 C241.310333,17.173375 241.353095,16.9918393 241.353095,16.7408929 L241.353095,16.2096339 C241.353095,15.9453393 241.310333,15.7771518 241.214119,15.6810446 C241.115232,15.5956161 240.933494,15.5555714 240.655542,15.5555714 L238.226131,15.5555714 L238.226131,14.3835982 L240.390952,14.3835982 C240.668905,14.3835982 240.850643,14.3408839 240.933494,14.258125 C241.032381,14.1593482 241.075143,13.9911607 241.075143,13.7268661 L241.075143,13.3637946 C241.075143,13.0995 241.032381,12.9179643 240.933494,12.8352054 C240.850643,12.7524464 240.668905,12.7097321 240.390952,12.7097321 L236.828351,12.7097321 L236.828351,13.6013929 L235.406518,13.3370982 L235.406518,12.8912679 C235.406518,12.3466607 235.518768,11.9835893 235.740595,11.7753571 C235.965095,11.5804732 236.395387,11.4816964 237.052851,11.4816964 L240.94953,11.4816964 C241.604321,11.4816964 242.034613,11.5804732 242.259113,11.7753571 C242.483613,11.9835893 242.595863,12.3466607 242.595863,12.8912679 L242.595863,13.5453304 C242.595863,13.9644643 242.483613,14.2848214 242.288512,14.482375 C242.077375,14.6906071 241.713899,14.8294286 241.195411,14.9121875 C241.783387,14.96825 242.202988,15.1097411 242.47025,15.3446696 C242.734839,15.5822679 242.873815,15.9319911 242.873815,16.3778214 L242.873815,17.1306607 C242.873815,17.7153125 242.748202,18.1344464 242.483613,18.3426786 C242.232387,18.5669286 241.783387,18.6790536 241.128595,18.6790536 L236.943274,18.6790536 C236.28581,18.6790536 235.852845,18.5802768 235.628345,18.3853929" id="Fill-202" fill="#FFFFFE"></path>
            <path d="M265.746089,11.4816964 L271.970619,11.4816964 L271.847679,12.7097321 L266.81781,12.7097321 L266.652107,14.1032857 C267.26681,14.033875 267.812024,13.9911607 268.285077,13.9644643 C268.760804,13.9350982 269.180405,13.92175 269.570607,13.92175 C270.75725,13.92175 271.649905,14.1326518 272.251244,14.5384375 C272.849911,14.9415536 273.143899,15.5555714 273.143899,16.3644732 C273.143899,17.2134196 272.836548,17.8140893 272.208482,18.2038571 C271.580417,18.5802768 270.575512,18.7751607 269.180405,18.7751607 C268.440089,18.7751607 267.782625,18.7484643 267.197321,18.6924018 C266.609345,18.6496875 266.106893,18.5802768 265.703327,18.4841696 L265.339851,17.0879464 C266.037405,17.2134196 266.708232,17.3121964 267.336298,17.3682589 C267.951,17.4376696 268.565702,17.4643661 269.137643,17.4643661 C270.046333,17.4643661 270.671726,17.3816071 271.048565,17.2000714 C271.412042,17.0185357 271.59378,16.7115268 271.59378,16.2950625 C271.59378,15.8892768 271.412042,15.6116339 271.064601,15.4434464 C270.701125,15.2619107 270.086423,15.1791518 269.233857,15.1791518 C268.691315,15.1791518 268.089976,15.2058482 267.435185,15.2485625 C266.780393,15.3019554 266.080167,15.3740357 265.339851,15.4701429 L265.746089,11.4816964 Z" id="Fill-203" fill="#FFFFFE"></path>
            <path d="M207.020631,76.0203125 C204.008589,74.1248661 201.279845,68.9724554 200.782738,66.9034821 C200.462024,65.3016964 200.290976,63.7212679 200.290976,62.1568571 C200.290976,58.7050089 201.066036,55.3172321 202.618827,51.9187768 C203.367161,50.2822857 206.168065,44.6733661 210.821095,41.2535536 C211.246042,40.9385357 213.092821,39.8813571 213.710196,39.598375 C212.921774,41.7901518 214.495946,40.8904821 214.998399,39.3794643 C215.412655,37.0168304 215.621119,34.4165982 215.621119,31.6561875 C215.621119,29.4110179 215.482143,27.0216875 215.209536,24.5522679 C215.07056,23.2975357 214.966327,21.9306786 214.966327,20.5077589 C214.966327,15.2432232 218.261667,7.3624375 226.471952,3.09367857 C224.56103,7.02339286 223.943655,13.5960536 226.268833,17.7366696 C227.190887,19.3758304 231.766411,26.6773036 232.327661,35.6686607 C232.362405,36.1678839 232.859512,36.6057054 233.808292,37.4039286 L234.695601,38.1701161 C237.405637,40.6075 242.539738,49.9939643 242.539738,61.5294911 C242.539738,63.2300536 242.53172,64.9920179 242.181607,66.7486429 C241.548196,69.9121696 239.209655,74.3357679 236.62256,76.5275446 C224.983304,80.4011964 211.360964,78.5484643 207.020631,76.0203125" id="Fill-204" fill="#004D38"></path>
            <path d="M232.594923,40.2470982 C232.594923,40.2470982 235.040369,45.8720357 230.293798,50.1354554 C227.733429,52.4340179 225.068827,51.7559286 228.10225,44.4304286 C232.522762,33.7571964 224.333857,19.8670446 224.333857,19.8670446 C229.377089,36.4241696 216.14228,41.7367589 211.967649,51.7425804 C210.807732,54.5190089 211.131119,57.8347054 212.250946,60.8300446 C213.889262,65.2429643 209.535565,63.1633125 208.268744,56.8415982 C207.605935,53.5339107 208.081661,49.5614821 210.895929,44.6867143 C203.18275,53.7715089 202.303458,61.2678661 204.083423,67.9072679 C204.74356,70.7557768 206.881655,74.7629107 209.436679,76.4554643 C213.213089,77.4432321 217.524024,78.0145357 222.115583,78.0145357 C226.637655,78.0145357 230.884446,77.4619196 234.615423,76.5035179 C236.62256,74.5653571 238.287601,71.1241875 238.987827,67.7444196 C241.569577,53.7955357 235.272887,42.9274196 232.594923,40.2470982" id="Fill-205" fill="#F6BF35"></path>
            <path d="M218.194851,24.2452589 C217.422464,17.2187589 219.063452,10.0881429 222.914696,7.64275 C222.914696,7.64275 220.386399,12.5869286 222.283958,18.2172054 C225.226512,27.8733036 221.992643,34.2457411 217.959661,39.8653393 C218.587726,36.2533125 218.94853,31.1009018 218.194851,24.2452589" id="Fill-206" fill="#F6BF35"></path>
            <path d="M226.332976,35.3296161 C225.237202,41.4804732 216.201077,47.2282143 214.103071,54.7913125 C212.585024,60.26675 215.706643,70.3766875 226.332976,70.3766875 C234.682238,70.3766875 237.210536,63.7212679 237.210536,59.8449464 C237.210536,55.9712946 235.946387,50.8322321 234.682238,47.8822768 C234.682238,50.4958571 230.606494,55.7283571 226.838101,54.28675 C218.911113,51.2540357 229.95972,41.8168482 226.332976,35.3296161" id="Fill-207" fill="#FFFFFE"></path>
            <path d="M206.42731,59.7621875 C206.258935,60.9421696 205.074964,69.4957054 210.559179,71.6394286 C212.4995,72.4002768 214.69372,69.7893661 212.331125,67.5121607 C210.176994,65.4378482 206.849583,64.3940179 206.42731,59.7621875" id="Fill-208" fill="#FFFFFE"></path>
            <path d="M215.701298,96.5712232 C215.883036,96.5979196 216.067446,96.6299554 216.246512,96.6593214 C215.63181,92.8550804 214.573452,85.5562768 217.574804,80.1849554 C218.62247,80.2810625 219.6835,80.3531429 220.765911,80.3798393 C221.321815,86.1489375 221.396649,93.7734375 221.931173,97.5963661 C222.088857,97.5990357 222.246542,97.5963661 222.404226,97.5963661 C222.936077,93.7680982 223.013583,86.13025 223.569488,80.3611518 C224.555685,80.3184375 225.549899,80.2303393 226.544113,80.1182143 C228.94947,85.7698482 228.888,92.7936786 228.233208,96.5899107 C228.417619,96.5632143 228.604702,96.5311786 228.789113,96.5018125 C230.732107,92.895125 230.953935,85.0890893 229.788673,79.6456875 C230.595804,79.4988571 231.386899,79.3466875 232.159286,79.1731607 C235.700506,84.4670625 235.52144,90.6499554 233.872435,94.2486339 C234.030119,94.1952411 234.190476,94.1391786 234.345488,94.0831161 C237.108976,90.8795446 237.410982,83.3965357 234.834577,78.5190982 L234.73569,78.5324464 C235.513423,78.318875 236.261756,78.1026339 236.95931,77.8757143 C238.728583,80.3184375 239.308542,83.6234554 239.308542,86.5520536 C239.308542,92.1502946 235.524113,97.3774554 230.205601,100.164563 C230.186893,100.18058 230.168185,100.199268 230.202929,100.167232 C215.837601,107.345902 205.024185,91.0504018 211.577446,79.2772768 C212.51019,79.4855089 213.475006,79.6563661 214.453185,79.8085357 C212.360524,85.6603929 213.790375,92.9858929 215.701298,96.5712232" id="Fill-209" fill="#F6BF35"></path>
        </g>
    </g>
</svg>