<?xml version="1.0" encoding="UTF-8"?>
<svg width="120px" height="120px" viewBox="0 0 120 120" version="1.1" xmlns="http://www.w3.org/2000/svg" xmlns:xlink="http://www.w3.org/1999/xlink">
    <!-- Generator: Sketch 46.2 (44496) - http://www.bohemiancoding.com/sketch -->
    <title>Slice 1</title>
    <desc>Created with Sketch.</desc>
    <defs>
        <polygon id="path-1" points="0 119.94 119.124 119.94 119.124 0.875 0 0.875"></polygon>
    </defs>
    <g id="Page-1" stroke="none" stroke-width="1" fill="none" fill-rule="evenodd">
        <g id="CULogo-white120px">
            <path d="M34.269,55.453 L58.53,55.453 L58.53,60.776 C58.134,60.706 57.023,60.544 55.803,60.686 C55.081,60.751 54.409,60.822 53.78,60.889 C52.696,61.005 51.765,61.105 50.96,61.123 C49.938,61.147 49.124,61.148 48.451,61.147 C47.968,61.147 47.553,61.147 47.193,61.155 L46.216,61.177 L46.216,66.316 L43.82,66.316 L43.82,69.109 L46.216,69.109 L46.216,74.248 L43.82,74.248 L43.82,77.032 L46.216,77.032 L46.216,82.748 L47.16,82.798 C47.216,82.803 48.517,82.87 50.201,82.835 C51.9,82.798 53.094,82.686 54.15,82.593 C55.236,82.495 56.175,82.408 57.457,82.408 C57.96,82.402 58.128,82.559 58.399,82.901 C58.436,82.947 58.485,83 58.53,83.051 L58.53,97.106 C52.646,94.213 34.268,83.897 34.268,68.006 L34.269,55.453 L34.269,55.453 Z M34.271,33.715 L85.287,33.709 L85.288,52.782 L34.27,52.782 L34.271,33.715 L34.271,33.715 Z M60.813,80.669 L60.813,62.936 C60.943,62.875 61.097,62.814 61.308,62.766 C61.32,62.762 62.405,62.541 63.606,62.682 C64.322,62.743 64.985,62.81 65.605,62.883 C66.729,62.998 67.698,63.103 68.581,63.127 C69.472,63.146 70.21,63.146 70.833,63.146 L71.368,63.146 L71.37,80.834 C70.861,80.844 70.189,80.854 69.437,80.834 C67.806,80.799 66.693,80.697 65.619,80.601 C64.519,80.498 63.532,80.403 62.074,80.406 C61.557,80.406 61.156,80.519 60.813,80.669 L60.813,80.669 Z M85.291,68.656 C85.291,84.054 66.382,94.492 60.813,97.229 L60.813,83.22 C60.919,83.12 61.015,83.019 61.092,82.93 C61.371,82.605 61.546,82.411 62.08,82.408 C63.367,82.427 64.336,82.491 65.44,82.593 C66.496,82.686 67.688,82.798 69.389,82.835 C71.065,82.877 72.372,82.803 72.426,82.798 L73.374,82.748 L73.373,77.516 L75.59,77.516 L75.59,74.724 L73.372,74.724 L73.371,69.657 L75.59,69.657 L75.59,66.869 L73.37,66.869 L73.368,61.177 L72.394,61.155 C72.035,61.145 71.625,61.145 71.139,61.147 C70.459,61.138 69.652,61.147 68.629,61.123 C67.832,61.105 66.896,61.005 65.816,60.889 C65.188,60.822 64.511,60.751 63.808,60.688 C62.294,60.514 60.958,60.79 60.878,60.81 C60.854,60.815 60.837,60.823 60.813,60.829 L60.813,55.453 L85.289,55.453 L85.291,68.656 L85.291,68.656 Z M58.53,80.582 C58.24,80.481 57.92,80.406 57.521,80.406 L57.457,80.406 C56.085,80.406 55.06,80.501 53.971,80.598 C52.897,80.697 51.784,80.799 50.151,80.834 C49.402,80.85 48.728,80.844 48.218,80.834 L48.218,63.146 L48.451,63.146 C49.131,63.152 49.965,63.146 51.008,63.127 C51.894,63.103 52.864,62.998 53.989,62.878 C54.607,62.81 55.266,62.743 56.004,62.678 C57.174,62.55 58.252,62.76 58.252,62.76 C58.362,62.785 58.44,62.819 58.53,62.849 L58.53,80.582 L58.53,80.582 Z M45.544,92.112 C52.329,97.461 59.013,100.289 59.296,100.405 L59.813,100.624 L60.331,100.402 C60.614,100.278 67.275,97.411 74.039,92.12 C83.148,84.994 87.962,76.883 87.962,68.656 L87.954,31.042 L31.604,31.046 L31.602,68.006 C31.602,76.575 36.421,84.908 45.544,92.112 L45.544,92.112 Z" id="Fill-1" fill="#B31B1B"></path>
            <path d="M53.568,45.175 C53.555,45.672 52.917,46.199 52.387,46.551 C51.159,47.377 49.31,48.427 48.433,48.919 C47.598,48.418 45.865,47.377 44.637,46.55 C43.836,46.018 43.362,45.489 43.336,45.1 C43.333,44.954 43.331,43.767 43.331,42.218 L53.576,42.218 C53.576,43.777 53.574,44.986 53.568,45.175 L53.568,45.175 Z M43.335,37.623 L53.573,37.623 C53.574,38.455 53.575,39.348 53.575,40.216 L43.332,40.216 C43.333,39.348 43.334,38.456 43.335,37.623 L43.335,37.623 Z M55.57,35.624 L41.332,35.624 L41.332,36.622 C41.327,39.732 41.323,44.99 41.344,45.231 C41.411,46.309 42.125,47.285 43.52,48.214 C45.239,49.367 47.802,50.868 47.91,50.932 L48.398,51.218 L48.89,50.947 C49.007,50.883 51.772,49.376 53.5,48.214 C55.52,46.868 55.554,45.64 55.568,45.231 C55.585,45.009 55.58,40.427 55.57,36.622 L55.57,35.624 L55.57,35.624 Z" id="Fill-2" fill="#B31B1B"></path>
            <path d="M72.248,38.292 L67.241,41.91 C67.239,40.472 67.239,38.738 67.242,37.202 L77.799,37.202 C77.804,38.767 77.81,40.542 77.81,42.005 L72.248,38.292 L72.248,38.292 Z M77.799,44.987 C77.787,45.502 77.131,46.046 76.581,46.42 C75.312,47.266 73.395,48.349 72.501,48.849 C71.649,48.343 69.865,47.266 68.598,46.42 C68.208,46.157 67.294,45.485 67.251,44.9 C67.249,44.846 67.248,44.66 67.247,44.374 L72.292,40.731 L77.806,44.406 C77.804,44.711 77.802,44.916 77.799,44.987 L77.799,44.987 Z M79.8,35.201 L65.243,35.201 L65.243,36.2 C65.24,40.108 65.24,44.807 65.254,45.05 C65.335,46.135 66.062,47.132 67.483,48.078 C69.241,49.258 71.866,50.798 71.979,50.864 L72.466,51.15 L72.961,50.876 C73.079,50.816 75.918,49.273 77.692,48.078 C79.764,46.697 79.793,45.443 79.8,45.028 C79.815,44.807 79.811,40.104 79.802,36.199 L79.8,35.201 L79.8,35.201 Z" id="Fill-3" fill="#B31B1B"></path>
            <path d="M63.411,66.898 L64.363,66.994 C65.011,67.069 65.57,67.123 66.057,67.135 L69.001,67.22 L69.047,65.213 L66.106,65.133 C65.666,65.124 65.163,65.07 64.577,65.007 L63.604,64.909 C63.344,64.881 63.095,64.876 62.867,64.886 L62.954,66.882 C63.091,66.875 63.244,66.882 63.411,66.898" id="Fill-4" fill="#B31B1B"></path>
            <path d="M66.121,70.68 C65.702,70.667 65.22,70.613 64.671,70.556 C64.34,70.518 63.988,70.481 63.63,70.449 C63.375,70.422 63.135,70.418 62.91,70.422 L62.942,72.424 C63.084,72.419 63.244,72.424 63.43,72.442 C63.799,72.477 64.14,72.512 64.459,72.546 C65.072,72.611 65.607,72.666 66.075,72.68 C66.688,72.687 67.583,72.716 68.249,72.729 L69.018,72.75 L69.064,70.754 L68.298,70.729 C67.634,70.714 66.733,70.687 66.121,70.68" id="Fill-5" fill="#B31B1B"></path>
            <path d="M66.122,76.217 C65.694,76.202 65.208,76.151 64.646,76.088 C64.319,76.052 63.979,76.017 63.634,75.985 C63.368,75.957 63.124,75.948 62.898,75.957 L62.958,77.954 C63.095,77.954 63.248,77.954 63.43,77.976 C63.783,78.009 64.119,78.049 64.429,78.075 C65.054,78.146 65.597,78.201 66.072,78.216 L66.901,78.236 C67.749,78.259 68.691,78.281 69.02,78.289 L69.06,76.285 C68.729,76.278 67.791,76.26 66.956,76.234 L66.122,76.217" id="Fill-6" fill="#B31B1B"></path>
            <path d="M53.471,67.111 C53.959,67.103 54.518,67.042 55.165,66.97 C55.465,66.939 55.783,66.907 56.122,66.869 C56.278,66.859 56.437,66.848 56.576,66.854 L56.606,64.85 C56.4,64.85 56.17,64.859 55.936,64.881 C55.583,64.911 55.254,64.949 54.948,64.985 C54.369,65.043 53.871,65.104 53.426,65.108 L50.485,65.184 L50.532,67.188 L53.471,67.111" id="Fill-7" fill="#B31B1B"></path>
            <path d="M54.966,70.518 C54.386,70.581 53.882,70.637 53.442,70.648 L50.501,70.725 L50.547,72.728 L53.487,72.651 C53.98,72.639 54.536,72.576 55.183,72.508 L56.122,72.41 C56.273,72.398 56.422,72.391 56.56,72.397 L56.651,70.397 C56.443,70.387 56.204,70.397 55.949,70.418 L54.966,70.518" id="Fill-8" fill="#B31B1B"></path>
            <path d="M54.968,76.052 C54.386,76.117 53.884,76.176 53.345,76.184 C52.414,76.209 50.94,76.255 50.505,76.266 L50.542,78.265 C50.979,78.252 52.465,78.213 53.49,78.186 C53.978,78.173 54.536,78.111 55.185,78.042 L56.157,77.945 C56.305,77.928 56.453,77.925 56.588,77.928 L56.619,75.93 C56.407,75.924 56.172,75.93 55.952,75.95 L54.968,76.052" id="Fill-9" fill="#B31B1B"></path>
            <path d="M9.027,60.756 C11.529,60.756 13.063,59.155 13.249,56.375 C13.276,55.829 13.236,55.224 13.1,54.48 L13.053,54.236 L10.988,54.217 L11.181,54.641 C11.329,54.972 11.417,55.67 11.383,56.255 C11.29,57.702 10.202,58.586 8.669,58.481 C7.11,58.382 6.12,57.371 6.203,55.96 C6.234,55.502 6.312,54.995 6.692,54.429 L6.95,54.029 L4.912,53.73 L4.817,53.934 C4.558,54.485 4.382,55.188 4.345,55.809 C4.166,58.716 5.771,60.563 8.643,60.744 C8.772,60.751 8.901,60.756 9.027,60.756" id="Fill-10" fill="#B31B1B"></path>
            <path d="M8.032,46.199 C8.334,45.121 9.25,44.895 9.966,44.895 C10.304,44.895 10.672,44.949 11.033,45.05 C11.907,45.302 12.589,45.758 12.897,46.309 C13.114,46.697 13.153,47.134 13.019,47.618 C12.709,48.699 11.809,48.925 11.106,48.925 C10.75,48.925 10.369,48.867 9.968,48.755 C8.832,48.43 7.641,47.568 8.032,46.199 L8.032,46.199 Z M9.354,50.936 C9.908,51.09 10.448,51.171 10.958,51.171 C12.857,51.171 14.262,50.062 14.814,48.128 C15.142,46.973 15.049,45.879 14.543,44.977 C13.99,43.975 12.985,43.258 11.648,42.879 C11.114,42.727 10.595,42.652 10.104,42.652 C8.192,42.652 6.782,43.76 6.236,45.691 C5.526,48.176 6.724,50.183 9.354,50.936 L9.354,50.936 Z" id="Fill-11" fill="#B31B1B"></path>
            <path d="M13.482,37.063 L13.372,37.258 L11.988,36.519 L12.092,36.325 C12.441,35.681 12.815,35.147 13.406,35.46 C13.617,35.574 13.739,35.705 13.791,35.869 C13.9,36.218 13.662,36.717 13.482,37.063 L13.482,37.063 Z M17.973,39.708 L15.026,38.132 L15.121,37.95 C15.398,37.422 15.612,37.468 16.067,37.523 L18.942,37.89 L20.077,35.746 L16.256,35.348 C16.002,35.329 15.723,35.337 15.51,35.389 C15.542,34.574 15.119,33.81 14.346,33.398 C13.913,33.17 13.498,33.053 13.109,33.053 C11.713,33.053 10.972,34.461 10.315,35.705 L9.315,37.581 L16.944,41.646 L17.973,39.708 L17.973,39.708 Z" id="Fill-12" fill="#B31B1B"></path>
            <polyline id="Fill-13" fill="#B31B1B" points="22.739 32.191 18.819 28.941 24.379 30.206 25.928 28.341 19.277 22.82 17.924 24.46 21.843 27.711 16.291 26.428 14.732 28.308 21.384 33.822 22.739 32.191"></polyline>
            <polyline id="Fill-14" fill="#B31B1B" points="32.352 22.849 31.175 21.398 28.762 23.363 27.714 22.073 29.916 20.288 28.728 18.84 26.536 20.627 25.667 19.554 28.06 17.606 26.881 16.156 22.79 19.49 28.241 26.193 32.352 22.849"></polyline>
            <polyline id="Fill-15" fill="#B31B1B" points="39.526 18.567 38.603 16.932 35.927 18.44 32.605 12.539 30.691 13.621 34.925 21.146 39.526 18.567"></polyline>
            <polyline id="Fill-16" fill="#B31B1B" points="46.781 15.787 46.14 14.031 43.25 15.079 40.945 8.713 38.883 9.462 41.82 17.581 46.781 15.787"></polyline>
            <path d="M55.48,14.357 C55.652,14.357 55.829,14.347 56.008,14.33 C57.204,14.229 58.082,13.854 58.626,13.216 C59.138,12.605 59.353,11.76 59.263,10.708 L58.816,5.286 L56.63,5.462 L57.039,10.395 C57.182,12.135 56.484,12.415 55.861,12.474 C55.806,12.474 55.752,12.48 55.702,12.48 C55.19,12.48 54.489,12.287 54.35,10.617 L53.946,5.688 L51.765,5.869 L52.212,11.292 C52.377,13.294 53.502,14.357 55.48,14.357" id="Fill-17" fill="#B31B1B"></path>
            <polyline id="Fill-18" fill="#B31B1B" points="65.371 9.198 67.238 14.594 69.643 14.92 70.804 6.354 68.701 6.07 68.02 11.122 66.155 5.727 63.746 5.4 62.589 13.969 64.69 14.252 65.371 9.198"></polyline>
            <polyline id="Fill-19" fill="#B31B1B" points="77.29 8.205 75.202 7.543 72.612 15.794 74.703 16.447 77.29 8.205"></polyline>
            <polyline id="Fill-20" fill="#B31B1B" points="88.122 13.06 86.148 12.066 81.979 16.308 82.904 10.433 80.815 9.367 79.532 18.408 81.659 19.478 88.122 13.06"></polyline>
            <polyline id="Fill-21" fill="#B31B1B" points="90.284 25.414 91.437 23.948 88.979 22.028 90.004 20.717 92.23 22.463 93.38 20.992 91.149 19.246 92.001 18.159 94.435 20.06 95.589 18.595 91.43 15.339 86.108 22.146 90.284 25.414"></polyline>
            <path d="M98.947,24.576 L99.096,24.746 C99.404,25.103 99.724,25.504 99.695,25.836 C99.691,25.988 99.606,26.131 99.44,26.277 C99.279,26.417 99.123,26.489 98.963,26.489 C98.595,26.489 98.211,26.109 97.919,25.778 L97.773,25.61 L98.947,24.576 L98.947,24.576 Z M93.86,29.038 L96.369,26.837 L96.509,26.999 C96.831,27.367 96.841,27.523 96.575,28.036 L95.217,30.594 L96.818,32.415 L98.546,28.972 C98.605,28.847 98.729,28.579 98.77,28.27 C99.51,28.594 100.4,28.447 101.044,27.885 C102.903,26.249 101.416,24.551 100.331,23.314 L98.911,21.696 L92.411,27.397 L93.86,29.038 L93.86,29.038 Z" id="Fill-22" fill="#B31B1B"></path>
            <path d="M101.914,35.953 C101.489,36.203 100.959,35.779 100.717,35.373 C100.448,34.914 100.293,34.339 100.274,33.718 L100.257,33.267 L98.28,34.18 L98.42,34.622 C98.615,35.29 98.736,35.694 99.154,36.402 C99.857,37.592 100.793,38.248 101.784,38.248 C102.246,38.248 102.712,38.11 103.174,37.831 C104.704,36.928 104.463,35.491 104.29,34.442 C104.169,33.7 104.11,33.24 104.419,33.057 C104.573,32.97 104.716,32.927 104.852,32.927 C105.248,32.927 105.511,33.302 105.607,33.46 C105.858,33.886 106.022,34.39 106.092,34.91 L106.146,35.312 L107.943,34.498 L107.895,34.26 C107.769,33.648 107.521,33.036 107.143,32.391 C106.201,30.808 104.656,30.295 103.212,31.15 C101.733,32.022 101.946,33.428 102.106,34.449 C102.238,35.259 102.292,35.732 101.914,35.953" id="Fill-23" fill="#B31B1B"></path>
            <polyline id="Fill-24" fill="#B31B1B" points="102.903 43.777 110.905 40.512 110.075 38.483 102.078 41.749 102.903 43.777"></polyline>
            <polyline id="Fill-25" fill="#B31B1B" points="110.935 46.616 104.357 48.231 104.878 50.366 111.458 48.742 112.006 50.953 113.814 50.508 112.203 43.964 110.386 44.408 110.935 46.616"></polyline>
            <polyline id="Fill-26" fill="#B31B1B" points="105.875 57.088 105.997 59.278 109.39 59.087 114.794 61.859 114.667 59.48 111.512 57.917 114.474 56.058 114.333 53.488 109.266 56.901 105.875 57.088"></polyline>
            <polyline id="Fill-27" fill="#B31B1B" points="10.71 76.868 12.502 76.35 11.751 73.745 13.072 73.362 13.867 76.104 15.661 75.58 14.26 70.723 5.949 73.119 6.569 75.236 9.958 74.255 10.71 76.868"></polyline>
            <path d="M14.97,84.534 C14.421,84.805 13.877,84.948 13.394,84.948 C12.644,84.948 12.1,84.605 11.765,83.934 C11.541,83.475 11.5,83.028 11.646,82.604 C11.848,82.008 12.435,81.437 13.255,81.035 C13.764,80.787 14.29,80.65 14.767,80.65 C15.535,80.65 16.093,80.987 16.414,81.652 C16.637,82.105 16.672,82.553 16.525,82.987 C16.318,83.587 15.751,84.158 14.97,84.534 L14.97,84.534 Z M18.407,84.033 C18.744,83.035 18.638,81.927 18.089,80.826 C17.326,79.266 16.058,78.41 14.537,78.41 C13.805,78.41 13.034,78.605 12.25,78.99 C10.988,79.611 10.129,80.498 9.772,81.556 C9.431,82.544 9.546,83.653 10.092,84.758 C10.854,86.306 12.125,87.156 13.681,87.156 C14.423,87.156 15.198,86.96 15.975,86.579 C17.202,85.973 18.042,85.096 18.407,84.033 L18.407,84.033 Z" id="Fill-28" fill="#B31B1B"></path>
            <path d="M24.362,90.727 L20.492,93.807 C19.449,94.641 18.703,94.716 18.103,93.959 C17.856,93.648 17.754,93.351 17.792,93.051 C17.843,92.621 18.182,92.161 18.803,91.665 L22.668,88.591 L21.292,86.865 L17.035,90.244 C16.149,90.948 15.677,91.739 15.64,92.596 C15.6,93.389 15.94,94.243 16.646,95.123 C17.484,96.181 18.384,96.711 19.329,96.711 C20.028,96.711 20.75,96.42 21.478,95.842 L25.738,92.457 L24.362,90.727" id="Fill-29" fill="#B31B1B"></path>
            <polyline id="Fill-30" fill="#B31B1B" points="31.711 97.76 28.481 101.703 29.711 96.117 27.802 94.562 22.324 101.25 23.985 102.596 27.218 98.646 26.002 104.252 27.888 105.8 33.365 99.111 31.711 97.76"></polyline>
            <path d="M38.52,106.897 C38.073,107.792 37.299,108.299 36.396,108.299 C36.027,108.299 35.66,108.209 35.33,108.041 L34.795,107.78 L37.002,103.387 L37.534,103.656 C38.089,103.936 38.518,104.422 38.708,105 C38.903,105.602 38.839,106.259 38.52,106.897 L38.52,106.897 Z M38.093,101.849 L35.868,100.729 L31.982,108.455 L34.208,109.567 C35.279,110.107 36.215,110.366 37.071,110.366 C38.566,110.366 39.74,109.549 40.557,107.926 C41.843,105.365 41.018,103.321 38.093,101.849 L38.093,101.849 Z" id="Fill-31" fill="#B31B1B"></path>
            <polyline id="Fill-32" fill="#B31B1B" points="42.862 113.252 48.033 114.628 48.515 112.829 45.474 112.013 45.898 110.413 48.66 111.149 49.146 109.351 46.381 108.61 46.734 107.274 49.75 108.076 50.237 106.277 45.085 104.897 42.862 113.252"></polyline>
            <path d="M55.533,113.727 L54.938,113.697 L55.222,108.799 L55.808,108.83 C56.971,108.893 58.101,109.803 58.013,111.403 C57.915,113.07 56.659,113.788 55.533,113.727 L55.533,113.727 Z M55.611,106.945 L53.115,106.802 L52.632,115.434 L55.117,115.576 C55.308,115.588 55.497,115.591 55.685,115.591 C58.581,115.591 60.129,114.228 60.283,111.54 C60.355,110.207 60.053,109.15 59.374,108.389 C58.592,107.518 57.359,107.044 55.611,106.945 L55.611,106.945 Z" id="Fill-33" fill="#B31B1B"></path>
            <path d="M69.252,111.044 L69.528,108.787 L70.708,110.731 L69.252,111.044 L69.252,111.044 Z M67.892,106.293 L66.423,115.442 L68.685,114.954 L68.982,113.016 L71.757,112.408 L72.812,114.076 L75.182,113.559 L70.065,105.829 L67.892,106.293 L67.892,106.293 Z" id="Fill-34" fill="#B31B1B"></path>
            <polyline id="Fill-35" fill="#B31B1B" points="76.104 110.759 76.853 112.836 78.932 112.087 78.175 110.005 76.104 110.759"></polyline>
            <path d="M83.815,107.822 L83.296,108.104 L80.956,103.795 L81.48,103.512 C81.826,103.321 82.218,103.216 82.612,103.216 C83.483,103.216 84.248,103.708 84.705,104.545 C85.467,105.958 84.835,107.266 83.815,107.822 L83.815,107.822 Z M80.313,102.014 L78.119,103.196 L82.243,110.798 L84.431,109.609 C87.304,108.058 88.068,105.987 86.703,103.467 C85.352,100.963 83.184,100.451 80.313,102.014 L80.313,102.014 Z" id="Fill-36" fill="#B31B1B"></path>
            <polyline id="Fill-37" fill="#B31B1B" points="88.35 104.738 89.619 106.556 91.435 105.294 90.172 103.473 88.35 104.738"></polyline>
            <polyline id="Fill-38" fill="#B31B1B" points="91.802 93.674 91.418 97.065 93.316 97.324 93.473 95.911 97.597 100.095 99.171 98.541 93.102 92.386 91.802 93.674"></polyline>
            <path d="M102.371,92.109 C102.078,92.505 101.527,92.621 101.152,92.345 C100.81,92.089 100.698,91.739 100.79,91.148 C101.411,90.743 101.864,90.677 102.253,90.968 C102.435,91.101 102.535,91.268 102.567,91.459 C102.598,91.665 102.527,91.897 102.371,92.109 L102.371,92.109 Z M99.404,89.779 C99.096,89.974 98.774,90.14 98.49,90.14 C98.354,90.14 98.235,90.105 98.128,90.026 C97.703,89.708 97.914,89.185 98.105,88.931 C98.249,88.729 98.43,88.632 98.631,88.632 C98.774,88.632 98.936,88.688 99.089,88.799 C99.349,88.998 99.463,89.447 99.404,89.779 L99.404,89.779 Z M103.514,89.148 C102.792,88.618 101.984,88.531 101.087,88.878 C101.101,88.029 100.66,87.3 100.133,86.907 C99.057,86.117 97.619,86.563 96.565,87.986 C95.521,89.396 95.616,90.825 96.816,91.719 C97.413,92.161 98.193,92.262 98.941,91.994 C98.888,92.937 99.191,93.643 99.859,94.133 C100.345,94.492 100.849,94.674 101.367,94.674 C102.234,94.674 103.101,94.141 103.821,93.179 C104.424,92.355 104.689,91.529 104.577,90.787 C104.479,90.148 104.124,89.604 103.514,89.148 L103.514,89.148 Z" id="Fill-39" fill="#B31B1B"></path>
            <path d="M107.353,83.969 C107.217,84.253 106.998,84.391 106.69,84.391 C106.48,84.391 106.237,84.326 105.985,84.195 C105.56,83.985 105.271,83.721 105.187,83.452 C105.134,83.292 105.15,83.135 105.235,82.957 C105.365,82.699 105.575,82.573 105.886,82.573 C106.12,82.573 106.392,82.646 106.673,82.786 C107.042,82.973 107.309,83.23 107.396,83.495 C107.45,83.654 107.432,83.811 107.353,83.969 L107.353,83.969 Z M107.432,80.697 C105.934,79.949 104.511,80.396 103.791,81.833 C103.588,82.24 103.505,82.632 103.544,83.021 C103.008,82.58 102.521,81.895 102.942,81.048 C103.156,80.617 103.438,80.332 103.783,80.031 L104.074,79.781 L102.485,78.641 L102.306,78.816 C101.864,79.246 101.516,79.727 101.242,80.275 C100.816,81.136 100.733,81.968 101.004,82.771 C101.468,84.169 102.893,85.123 103.998,85.671 C104.962,86.158 105.785,86.395 106.506,86.395 C107.603,86.395 108.427,85.849 108.967,84.774 C109.802,83.098 109.241,81.612 107.432,80.697 L107.432,80.697 Z" id="Fill-40" fill="#B31B1B"></path>
            <path d="M110.491,71.974 C108.765,71.455 107.372,72.234 106.883,73.899 C106.834,74.053 106.799,74.195 106.781,74.319 L105.769,73.997 L106.649,71.024 L104.925,70.517 L103.444,75.505 L108.234,77.029 L108.232,76.61 C108.229,76.146 108.29,75.707 108.422,75.26 C108.545,74.848 108.987,73.827 109.913,74.101 C110.895,74.398 110.668,75.455 110.579,75.773 C110.404,76.358 110.061,76.778 109.775,77.126 L109.5,77.463 L111.516,78.128 L111.639,77.91 C111.97,77.327 112.263,76.652 112.418,76.117 C112.722,75.106 112.681,74.176 112.305,73.428 C111.949,72.729 111.309,72.216 110.491,71.974" id="Fill-41" fill="#B31B1B"></path>
            <g id="Group-45">
                <mask id="mask-2" fill="white">
                    <use xlink:href="#path-1"></use>
                </mask>
                <g id="Clip-43"></g>
                <path d="M59.562,18.395 C82.744,18.395 101.606,37.258 101.606,60.435 C101.606,83.618 82.744,102.479 59.562,102.479 C36.377,102.479 17.519,83.618 17.519,60.435 C17.519,37.258 36.377,18.395 59.562,18.395 L59.562,18.395 Z M16.015,60.435 C16.015,84.454 35.547,103.991 59.562,103.991 C83.577,103.991 103.111,84.454 103.111,60.435 C103.111,36.422 83.577,16.887 59.562,16.887 C35.547,16.887 16.015,36.422 16.015,60.435 L16.015,60.435 Z" id="Fill-42" fill="#B31B1B" mask="url(#mask-2)"></path>
                <path d="M59.562,118.446 C27.576,118.446 1.557,92.427 1.557,60.44 C1.557,28.456 27.576,2.432 59.562,2.432 C91.548,2.432 117.568,28.456 117.568,60.44 C117.568,92.427 91.548,118.446 59.562,118.446 L59.562,118.446 Z M59.562,0.875 C26.718,0.875 0,27.594 0,60.44 C0,93.276 26.718,120 59.562,120 C92.407,120 119.124,93.276 119.124,60.44 C119.124,27.594 92.407,0.875 59.562,0.875 L59.562,0.875 Z" id="Fill-44" fill="#B31B1B" mask="url(#mask-2)"></path>
            </g>
        </g>
    </g>
</svg>